<mxfile host="app.diagrams.net" modified="2023-09-21T01:54:59.518Z" agent="Mozilla/5.0 (Macintosh; Intel Mac OS X 10_15_7) AppleWebKit/537.36 (KHTML, like Gecko) Chrome/116.0.0.0 Safari/537.36" etag="hXbOhENKPVSpJiW9DwwA" version="21.8.0" type="device">
  <diagram name="Page-1" id="qsTPAiI0j9Sc0IeZHyX-">
    <mxGraphModel dx="2131" dy="1864" grid="1" gridSize="10" guides="1" tooltips="1" connect="1" arrows="1" fold="1" page="1" pageScale="1" pageWidth="827" pageHeight="1169" math="0" shadow="0">
      <root>
        <mxCell id="0" />
        <mxCell id="1" parent="0" />
        <mxCell id="KzuWo8lKTBk8vEu39LvP-1" value="AWS Cloud" style="sketch=0;outlineConnect=0;gradientColor=none;html=1;whiteSpace=wrap;fontSize=12;fontStyle=0;shape=mxgraph.aws4.group;grIcon=mxgraph.aws4.group_aws_cloud;strokeColor=#AAB7B8;fillColor=none;verticalAlign=top;align=left;spacingLeft=30;fontColor=#AAB7B8;dashed=0;" vertex="1" parent="1">
          <mxGeometry y="40" width="800" height="600" as="geometry" />
        </mxCell>
        <mxCell id="KzuWo8lKTBk8vEu39LvP-2" value="us-east-1" style="points=[[0,0],[0.25,0],[0.5,0],[0.75,0],[1,0],[1,0.25],[1,0.5],[1,0.75],[1,1],[0.75,1],[0.5,1],[0.25,1],[0,1],[0,0.75],[0,0.5],[0,0.25]];outlineConnect=0;gradientColor=none;html=1;whiteSpace=wrap;fontSize=12;fontStyle=0;container=1;pointerEvents=0;collapsible=0;recursiveResize=0;shape=mxgraph.aws4.group;grIcon=mxgraph.aws4.group_region;strokeColor=#147EBA;fillColor=none;verticalAlign=top;align=left;spacingLeft=30;fontColor=#147EBA;dashed=1;" vertex="1" parent="1">
          <mxGeometry x="10" y="80" width="390" height="520" as="geometry" />
        </mxCell>
        <mxCell id="KzuWo8lKTBk8vEu39LvP-3" value="us-east-2" style="points=[[0,0],[0.25,0],[0.5,0],[0.75,0],[1,0],[1,0.25],[1,0.5],[1,0.75],[1,1],[0.75,1],[0.5,1],[0.25,1],[0,1],[0,0.75],[0,0.5],[0,0.25]];outlineConnect=0;gradientColor=none;html=1;whiteSpace=wrap;fontSize=12;fontStyle=0;container=1;pointerEvents=0;collapsible=0;recursiveResize=0;shape=mxgraph.aws4.group;grIcon=mxgraph.aws4.group_region;strokeColor=#147EBA;fillColor=none;verticalAlign=top;align=left;spacingLeft=30;fontColor=#147EBA;dashed=1;" vertex="1" parent="1">
          <mxGeometry x="430" y="80" width="350" height="520" as="geometry" />
        </mxCell>
        <mxCell id="KzuWo8lKTBk8vEu39LvP-18" value="VPC" style="points=[[0,0],[0.25,0],[0.5,0],[0.75,0],[1,0],[1,0.25],[1,0.5],[1,0.75],[1,1],[0.75,1],[0.5,1],[0.25,1],[0,1],[0,0.75],[0,0.5],[0,0.25]];outlineConnect=0;gradientColor=none;html=1;whiteSpace=wrap;fontSize=12;fontStyle=0;container=1;pointerEvents=0;collapsible=0;recursiveResize=0;shape=mxgraph.aws4.group;grIcon=mxgraph.aws4.group_vpc;strokeColor=#248814;fillColor=none;verticalAlign=top;align=left;spacingLeft=30;fontColor=#AAB7B8;dashed=0;" vertex="1" parent="KzuWo8lKTBk8vEu39LvP-3">
          <mxGeometry x="10" y="30" width="290" height="470" as="geometry" />
        </mxCell>
        <mxCell id="KzuWo8lKTBk8vEu39LvP-19" value="Availability zone" style="sketch=0;outlineConnect=0;gradientColor=none;html=1;whiteSpace=wrap;fontSize=12;fontStyle=0;shape=mxgraph.aws4.group;grIcon=mxgraph.aws4.group_availability_zone;strokeColor=#545B64;fillColor=none;verticalAlign=top;align=left;spacingLeft=30;fontColor=#545B64;dashed=1;" vertex="1" parent="KzuWo8lKTBk8vEu39LvP-3">
          <mxGeometry x="20" y="70" width="270" height="180" as="geometry" />
        </mxCell>
        <mxCell id="KzuWo8lKTBk8vEu39LvP-20" value="Availability zone" style="sketch=0;outlineConnect=0;gradientColor=none;html=1;whiteSpace=wrap;fontSize=12;fontStyle=0;shape=mxgraph.aws4.group;grIcon=mxgraph.aws4.group_availability_zone;strokeColor=#545B64;fillColor=none;verticalAlign=top;align=left;spacingLeft=30;fontColor=#545B64;dashed=1;" vertex="1" parent="KzuWo8lKTBk8vEu39LvP-3">
          <mxGeometry x="20" y="300" width="270" height="180" as="geometry" />
        </mxCell>
        <mxCell id="KzuWo8lKTBk8vEu39LvP-21" value="Public" style="sketch=0;outlineConnect=0;gradientColor=none;html=1;whiteSpace=wrap;fontSize=12;fontStyle=0;shape=mxgraph.aws4.group;grIcon=mxgraph.aws4.group_subnet;strokeColor=#879196;fillColor=none;verticalAlign=top;align=left;spacingLeft=30;fontColor=#879196;dashed=0;" vertex="1" parent="KzuWo8lKTBk8vEu39LvP-3">
          <mxGeometry x="30" y="100" width="110" height="130" as="geometry" />
        </mxCell>
        <mxCell id="KzuWo8lKTBk8vEu39LvP-22" value="Private" style="sketch=0;outlineConnect=0;gradientColor=none;html=1;whiteSpace=wrap;fontSize=12;fontStyle=0;shape=mxgraph.aws4.group;grIcon=mxgraph.aws4.group_subnet;strokeColor=#879196;fillColor=none;verticalAlign=top;align=left;spacingLeft=30;fontColor=#879196;dashed=0;" vertex="1" parent="KzuWo8lKTBk8vEu39LvP-3">
          <mxGeometry x="160" y="100" width="110" height="130" as="geometry" />
        </mxCell>
        <mxCell id="KzuWo8lKTBk8vEu39LvP-23" value="Public" style="sketch=0;outlineConnect=0;gradientColor=none;html=1;whiteSpace=wrap;fontSize=12;fontStyle=0;shape=mxgraph.aws4.group;grIcon=mxgraph.aws4.group_subnet;strokeColor=#879196;fillColor=none;verticalAlign=top;align=left;spacingLeft=30;fontColor=#879196;dashed=0;" vertex="1" parent="KzuWo8lKTBk8vEu39LvP-3">
          <mxGeometry x="30" y="340" width="110" height="130" as="geometry" />
        </mxCell>
        <mxCell id="KzuWo8lKTBk8vEu39LvP-24" value="Private" style="sketch=0;outlineConnect=0;gradientColor=none;html=1;whiteSpace=wrap;fontSize=12;fontStyle=0;shape=mxgraph.aws4.group;grIcon=mxgraph.aws4.group_subnet;strokeColor=#879196;fillColor=none;verticalAlign=top;align=left;spacingLeft=30;fontColor=#879196;dashed=0;" vertex="1" parent="KzuWo8lKTBk8vEu39LvP-3">
          <mxGeometry x="160" y="340" width="110" height="130" as="geometry" />
        </mxCell>
        <mxCell id="KzuWo8lKTBk8vEu39LvP-40" value="NAT gateway" style="sketch=0;outlineConnect=0;fontColor=#232F3E;gradientColor=none;strokeColor=#232F3E;fillColor=#FF8000;dashed=0;verticalLabelPosition=bottom;verticalAlign=top;align=center;html=1;fontSize=12;fontStyle=0;aspect=fixed;shape=mxgraph.aws4.resourceIcon;resIcon=mxgraph.aws4.nat_gateway;" vertex="1" parent="KzuWo8lKTBk8vEu39LvP-3">
          <mxGeometry x="55" y="135" width="60" height="60" as="geometry" />
        </mxCell>
        <mxCell id="KzuWo8lKTBk8vEu39LvP-45" value="" style="edgeStyle=segmentEdgeStyle;endArrow=classic;html=1;curved=0;rounded=0;endSize=8;startSize=8;sourcePerimeterSpacing=0;targetPerimeterSpacing=0;" edge="1" parent="KzuWo8lKTBk8vEu39LvP-3" source="KzuWo8lKTBk8vEu39LvP-40" target="KzuWo8lKTBk8vEu39LvP-22">
          <mxGeometry width="100" relative="1" as="geometry">
            <mxPoint x="-610" y="70" as="sourcePoint" />
            <mxPoint x="-510" y="110" as="targetPoint" />
          </mxGeometry>
        </mxCell>
        <mxCell id="KzuWo8lKTBk8vEu39LvP-46" value="" style="edgeStyle=segmentEdgeStyle;endArrow=classic;html=1;curved=0;rounded=0;endSize=8;startSize=8;sourcePerimeterSpacing=0;targetPerimeterSpacing=0;" edge="1" parent="KzuWo8lKTBk8vEu39LvP-3" source="KzuWo8lKTBk8vEu39LvP-40" target="KzuWo8lKTBk8vEu39LvP-24">
          <mxGeometry width="100" relative="1" as="geometry">
            <mxPoint x="125" y="175" as="sourcePoint" />
            <mxPoint x="170" y="175" as="targetPoint" />
            <Array as="points">
              <mxPoint x="85" y="270" />
              <mxPoint x="215" y="270" />
            </Array>
          </mxGeometry>
        </mxCell>
        <mxCell id="KzuWo8lKTBk8vEu39LvP-4" value="VPC" style="points=[[0,0],[0.25,0],[0.5,0],[0.75,0],[1,0],[1,0.25],[1,0.5],[1,0.75],[1,1],[0.75,1],[0.5,1],[0.25,1],[0,1],[0,0.75],[0,0.5],[0,0.25]];outlineConnect=0;gradientColor=none;html=1;whiteSpace=wrap;fontSize=12;fontStyle=0;container=1;pointerEvents=0;collapsible=0;recursiveResize=0;shape=mxgraph.aws4.group;grIcon=mxgraph.aws4.group_vpc;strokeColor=#248814;fillColor=none;verticalAlign=top;align=left;spacingLeft=30;fontColor=#AAB7B8;dashed=0;" vertex="1" parent="1">
          <mxGeometry x="70" y="110" width="290" height="470" as="geometry" />
        </mxCell>
        <mxCell id="KzuWo8lKTBk8vEu39LvP-58" value="" style="sketch=0;outlineConnect=0;fontColor=#232F3E;gradientColor=none;fillColor=#8C4FFF;strokeColor=none;dashed=0;verticalLabelPosition=bottom;verticalAlign=top;align=center;html=1;fontSize=12;fontStyle=0;aspect=fixed;pointerEvents=1;shape=mxgraph.aws4.route_table;" vertex="1" parent="KzuWo8lKTBk8vEu39LvP-4">
          <mxGeometry x="150.00000000000003" y="224" width="22.58" height="22" as="geometry" />
        </mxCell>
        <mxCell id="KzuWo8lKTBk8vEu39LvP-5" value="Availability zone 1" style="sketch=0;outlineConnect=0;gradientColor=none;html=1;whiteSpace=wrap;fontSize=12;fontStyle=0;shape=mxgraph.aws4.group;grIcon=mxgraph.aws4.group_availability_zone;strokeColor=#545B64;fillColor=none;verticalAlign=top;align=left;spacingLeft=30;fontColor=#545B64;dashed=1;" vertex="1" parent="1">
          <mxGeometry x="80" y="150" width="270" height="180" as="geometry" />
        </mxCell>
        <mxCell id="KzuWo8lKTBk8vEu39LvP-6" value="Availability zone 2" style="sketch=0;outlineConnect=0;gradientColor=none;html=1;whiteSpace=wrap;fontSize=12;fontStyle=0;shape=mxgraph.aws4.group;grIcon=mxgraph.aws4.group_availability_zone;strokeColor=#545B64;fillColor=none;verticalAlign=top;align=left;spacingLeft=30;fontColor=#545B64;dashed=1;" vertex="1" parent="1">
          <mxGeometry x="80" y="380" width="270" height="180" as="geometry" />
        </mxCell>
        <mxCell id="KzuWo8lKTBk8vEu39LvP-7" value="Public" style="sketch=0;outlineConnect=0;gradientColor=none;html=1;whiteSpace=wrap;fontSize=12;fontStyle=0;shape=mxgraph.aws4.group;grIcon=mxgraph.aws4.group_subnet;strokeColor=#879196;fillColor=none;verticalAlign=top;align=left;spacingLeft=30;fontColor=#879196;dashed=0;" vertex="1" parent="1">
          <mxGeometry x="90" y="180" width="110" height="130" as="geometry" />
        </mxCell>
        <mxCell id="KzuWo8lKTBk8vEu39LvP-62" style="edgeStyle=none;rounded=0;orthogonalLoop=1;jettySize=auto;html=1;" edge="1" parent="1" source="KzuWo8lKTBk8vEu39LvP-8" target="KzuWo8lKTBk8vEu39LvP-58">
          <mxGeometry relative="1" as="geometry">
            <Array as="points">
              <mxPoint x="270" y="330" />
              <mxPoint x="250" y="340" />
            </Array>
          </mxGeometry>
        </mxCell>
        <mxCell id="KzuWo8lKTBk8vEu39LvP-8" value="Private" style="sketch=0;outlineConnect=0;gradientColor=none;html=1;whiteSpace=wrap;fontSize=12;fontStyle=0;shape=mxgraph.aws4.group;grIcon=mxgraph.aws4.group_subnet;strokeColor=#879196;fillColor=none;verticalAlign=top;align=left;spacingLeft=30;fontColor=#879196;dashed=0;" vertex="1" parent="1">
          <mxGeometry x="220" y="180" width="110" height="130" as="geometry" />
        </mxCell>
        <mxCell id="KzuWo8lKTBk8vEu39LvP-9" value="Public" style="sketch=0;outlineConnect=0;gradientColor=none;html=1;whiteSpace=wrap;fontSize=12;fontStyle=0;shape=mxgraph.aws4.group;grIcon=mxgraph.aws4.group_subnet;strokeColor=#879196;fillColor=none;verticalAlign=top;align=left;spacingLeft=30;fontColor=#879196;dashed=0;" vertex="1" parent="1">
          <mxGeometry x="90" y="420" width="110" height="130" as="geometry" />
        </mxCell>
        <mxCell id="KzuWo8lKTBk8vEu39LvP-66" style="edgeStyle=none;rounded=0;orthogonalLoop=1;jettySize=auto;html=1;" edge="1" parent="1" source="KzuWo8lKTBk8vEu39LvP-10" target="KzuWo8lKTBk8vEu39LvP-65">
          <mxGeometry relative="1" as="geometry">
            <Array as="points">
              <mxPoint x="340" y="360" />
            </Array>
          </mxGeometry>
        </mxCell>
        <mxCell id="KzuWo8lKTBk8vEu39LvP-10" value="Private" style="sketch=0;outlineConnect=0;gradientColor=none;html=1;whiteSpace=wrap;fontSize=12;fontStyle=0;shape=mxgraph.aws4.group;grIcon=mxgraph.aws4.group_subnet;strokeColor=#879196;fillColor=none;verticalAlign=top;align=left;spacingLeft=30;fontColor=#879196;dashed=0;" vertex="1" parent="1">
          <mxGeometry x="220" y="420" width="110" height="130" as="geometry" />
        </mxCell>
        <mxCell id="KzuWo8lKTBk8vEu39LvP-28" value="" style="outlineConnect=0;dashed=0;verticalLabelPosition=bottom;verticalAlign=top;align=center;html=1;shape=mxgraph.aws3.internet_2;fillColor=#D2D3D3;gradientColor=none;" vertex="1" parent="1">
          <mxGeometry x="370.25" y="-40" width="79.5" height="54" as="geometry" />
        </mxCell>
        <mxCell id="KzuWo8lKTBk8vEu39LvP-35" value="" style="sketch=0;outlineConnect=0;fontColor=#232F3E;gradientColor=none;fillColor=#8C4FFF;strokeColor=none;dashed=0;verticalLabelPosition=bottom;verticalAlign=top;align=center;html=1;fontSize=12;fontStyle=0;aspect=fixed;pointerEvents=1;shape=mxgraph.aws4.internet_gateway;" vertex="1" parent="1">
          <mxGeometry x="570" y="80" width="28" height="28" as="geometry" />
        </mxCell>
        <mxCell id="KzuWo8lKTBk8vEu39LvP-37" value="" style="edgeStyle=segmentEdgeStyle;endArrow=classic;html=1;curved=0;rounded=0;endSize=8;startSize=8;sourcePerimeterSpacing=0;targetPerimeterSpacing=0;entryX=0.5;entryY=1;entryDx=0;entryDy=0;entryPerimeter=0;" edge="1" parent="1" source="KzuWo8lKTBk8vEu39LvP-34" target="KzuWo8lKTBk8vEu39LvP-28">
          <mxGeometry width="100" relative="1" as="geometry">
            <mxPoint x="210" y="-70" as="sourcePoint" />
            <mxPoint x="-50" y="40" as="targetPoint" />
            <Array as="points">
              <mxPoint x="43" y="100" />
              <mxPoint x="410" y="100" />
            </Array>
          </mxGeometry>
        </mxCell>
        <mxCell id="KzuWo8lKTBk8vEu39LvP-38" value="" style="edgeStyle=segmentEdgeStyle;endArrow=classic;html=1;curved=0;rounded=0;endSize=8;startSize=8;sourcePerimeterSpacing=0;targetPerimeterSpacing=0;entryX=0.5;entryY=1;entryDx=0;entryDy=0;entryPerimeter=0;" edge="1" parent="1" source="KzuWo8lKTBk8vEu39LvP-35" target="KzuWo8lKTBk8vEu39LvP-28">
          <mxGeometry width="100" relative="1" as="geometry">
            <mxPoint x="-140" y="-150" as="sourcePoint" />
            <mxPoint x="-40" y="-110" as="targetPoint" />
          </mxGeometry>
        </mxCell>
        <mxCell id="KzuWo8lKTBk8vEu39LvP-41" value="NAT gateway" style="sketch=0;outlineConnect=0;fontColor=#232F3E;gradientColor=none;strokeColor=#232F3E;fillColor=#FF8000;dashed=0;verticalLabelPosition=bottom;verticalAlign=top;align=center;html=1;fontSize=12;fontStyle=0;aspect=fixed;shape=mxgraph.aws4.resourceIcon;resIcon=mxgraph.aws4.nat_gateway;" vertex="1" parent="1">
          <mxGeometry x="115" y="450" width="60" height="60" as="geometry" />
        </mxCell>
        <mxCell id="KzuWo8lKTBk8vEu39LvP-42" value="NAT gateway" style="sketch=0;outlineConnect=0;fontColor=#232F3E;gradientColor=none;strokeColor=#232F3E;fillColor=#FF8000;dashed=0;verticalLabelPosition=bottom;verticalAlign=top;align=center;html=1;fontSize=12;fontStyle=0;aspect=fixed;shape=mxgraph.aws4.resourceIcon;resIcon=mxgraph.aws4.nat_gateway;" vertex="1" parent="1">
          <mxGeometry x="115" y="215" width="60" height="60" as="geometry" />
        </mxCell>
        <mxCell id="KzuWo8lKTBk8vEu39LvP-55" style="edgeStyle=none;rounded=0;orthogonalLoop=1;jettySize=auto;html=1;" edge="1" parent="1" source="KzuWo8lKTBk8vEu39LvP-49" target="KzuWo8lKTBk8vEu39LvP-34">
          <mxGeometry relative="1" as="geometry" />
        </mxCell>
        <mxCell id="KzuWo8lKTBk8vEu39LvP-56" style="edgeStyle=none;rounded=0;orthogonalLoop=1;jettySize=auto;html=1;" edge="1" parent="1" source="KzuWo8lKTBk8vEu39LvP-49" target="KzuWo8lKTBk8vEu39LvP-42">
          <mxGeometry relative="1" as="geometry" />
        </mxCell>
        <mxCell id="KzuWo8lKTBk8vEu39LvP-57" style="edgeStyle=none;rounded=0;orthogonalLoop=1;jettySize=auto;html=1;" edge="1" parent="1" source="KzuWo8lKTBk8vEu39LvP-49" target="KzuWo8lKTBk8vEu39LvP-41">
          <mxGeometry relative="1" as="geometry" />
        </mxCell>
        <mxCell id="KzuWo8lKTBk8vEu39LvP-49" value="" style="sketch=0;outlineConnect=0;fontColor=#232F3E;gradientColor=none;fillColor=#8C4FFF;strokeColor=none;dashed=0;verticalLabelPosition=bottom;verticalAlign=top;align=center;html=1;fontSize=12;fontStyle=0;aspect=fixed;pointerEvents=1;shape=mxgraph.aws4.route_table;" vertex="1" parent="1">
          <mxGeometry x="129.61" y="340" width="30.79" height="30" as="geometry" />
        </mxCell>
        <mxCell id="KzuWo8lKTBk8vEu39LvP-34" value="" style="sketch=0;outlineConnect=0;fontColor=#232F3E;gradientColor=none;fillColor=#8C4FFF;strokeColor=none;dashed=0;verticalLabelPosition=bottom;verticalAlign=top;align=center;html=1;fontSize=12;fontStyle=0;aspect=fixed;pointerEvents=1;shape=mxgraph.aws4.internet_gateway;" vertex="1" parent="1">
          <mxGeometry x="29" y="340" width="28" height="28" as="geometry" />
        </mxCell>
        <mxCell id="KzuWo8lKTBk8vEu39LvP-63" style="edgeStyle=none;rounded=0;orthogonalLoop=1;jettySize=auto;html=1;" edge="1" parent="1" source="KzuWo8lKTBk8vEu39LvP-58" target="KzuWo8lKTBk8vEu39LvP-42">
          <mxGeometry relative="1" as="geometry">
            <Array as="points">
              <mxPoint x="210" y="345" />
              <mxPoint x="210" y="245" />
            </Array>
          </mxGeometry>
        </mxCell>
        <mxCell id="KzuWo8lKTBk8vEu39LvP-67" style="edgeStyle=none;rounded=0;orthogonalLoop=1;jettySize=auto;html=1;" edge="1" parent="1">
          <mxGeometry relative="1" as="geometry">
            <mxPoint x="280.0667819828187" y="366.30968027942026" as="sourcePoint" />
            <mxPoint x="175" y="482" as="targetPoint" />
            <Array as="points">
              <mxPoint x="210" y="366" />
              <mxPoint x="210" y="482" />
            </Array>
          </mxGeometry>
        </mxCell>
        <mxCell id="KzuWo8lKTBk8vEu39LvP-65" value="" style="sketch=0;outlineConnect=0;fontColor=#232F3E;gradientColor=none;fillColor=#8C4FFF;strokeColor=none;dashed=0;verticalLabelPosition=bottom;verticalAlign=top;align=center;html=1;fontSize=12;fontStyle=0;aspect=fixed;pointerEvents=1;shape=mxgraph.aws4.route_table;" vertex="1" parent="1">
          <mxGeometry x="280" y="354" width="22.58" height="22" as="geometry" />
        </mxCell>
        <mxCell id="KzuWo8lKTBk8vEu39LvP-69" style="edgeStyle=none;rounded=0;orthogonalLoop=1;jettySize=auto;html=1;" edge="1" parent="1" source="KzuWo8lKTBk8vEu39LvP-68" target="KzuWo8lKTBk8vEu39LvP-2">
          <mxGeometry relative="1" as="geometry" />
        </mxCell>
        <mxCell id="KzuWo8lKTBk8vEu39LvP-68" value="" style="shape=image;verticalLabelPosition=bottom;labelBackgroundColor=default;verticalAlign=top;aspect=fixed;imageAspect=0;image=data:image/png,iVBORw0KGgoAAAANSUhEUgAABLAAAAGMCAYAAADKoVu+AAAAAXNSR0IArs4c6QAAIABJREFUeF7s3Qe0JUX19uECBEERFANmFMWAESN/REUUMwLmnFHEhAFBUTEjKuaMijnnnDNmDCBmMKKiYgbJfOtp3fP19PS599yZM3CG+9Zas2bm3j7d1b/aVbX3W7vqrHfWWWed1VJCIARCIARCIARCIARCIARCIARCIARCIARCYE4JrBcBa05bJtUKgRAIgRAIgRAIgRAIgRAIgRAIgRAIgRDoCETAiiGEQAiEQAiEQAiEQAiEQAiEQAiEQAiEQAjMNYEIWHPdPKlcCIRACIRACIRACIRACIRACIRACIRACIRABKzYQAiEQAiEQAiEQAiEQAiEQAiEQAiEQAiEwFwTiIA1182TyoVACIRACIRACIRACIRACIRACIRACIRACETAig2EQAiEQAiEQAiEQAiEQAiEQAiEQAiEQAjMNYEIWHPdPKlcCIRACIRACIRACIRACIRACIRACIRACIRABKzYQAiEQAiEQAiEQAiEQAiEQAiEQAiEQAiEwFwTiIA1182TyoVACIRACIRACIRACIRACIRACIRACIRACETAig2EQAiEQAiEQAiEQAiEQAiEQAiEQAiEQAjMNYEIWHPdPKlcCIRACIRACIRACIRACIRACIRACIRACIRABKzYQAiEQAiEQAiEQAiEQAiEQAiEQAiEQAiEwFwTiIA1182TyoVACIRACIRACIRACIRACIRACIRACIRACKyRgPWNb3wjBEMgBEIgBEIgBEIgBEIgBEIgBEIgBEIgBEJgSQS23377JV2/xgLWUh+4pNrl4hAIgRAIgRAIgRAIgRAIgRAIgRAIgRAIgXMVAQlRS9WTImCdq0wgLxMCIRACIRACIRACIRACIRACIRACIRAC800gAtZ8t09qFwIhEAIhEAIhEAIhEAIhEAIhEAIhEALLnkAErGVvAgEQAiEQAiEQAiEQAiEQAiEQAiEQAiEQAvNNIALWfLdPahcCIRACIRACIRACIRACIRACIRACIRACy55ABKxlbwIBEAIhEAIhEAIhEAIhEAIhEAIhEAIhEALzTSAC1ny3T2oXAiEQAiEQAiEQAiEQAiEQAiEQAiEQAsueQASsZW8CARACIRACIRACIRACIRACIRACIRACIRAC800gAtZ8t09qFwIhEAIhEAIhEAIhEAIhEAIhEAIhEALLnkAErGVvAgEQAiEQAiEQAiEQAiEQAiEQAiEQAiEQAvNNIALWfLdPahcCIRACIRACIRACIRACIRACIRACIRACy55ABKxlbwIBEAIhEAIhEAIhEAIhEAIhEAIhEAIhEALzTSAC1ny3T2oXAiEQAiEQAiEQAiEQAiEQAiEQAiEQAsueQASsZW8CARACIRACIRACIRACIRACIRACIRACIRAC800gAtZ8t09qFwIhEAIhEAIhEAIhEAIhEAIhEAIhEALLnkAErGVvAgEQAiEQAiEQAiEQAiEQAiEQAiEQAiEQAvNNIALWfLdPahcCIRACIRACIRACIRACIRACIRACIRACy55ABKxlbwIBEAIhEAIhEAIhEAIhEAIhEAIhEAIhEALzTSAC1ny3T2oXAiEQAiEQAiEQAiEQAiEQAiEQAiEQAsueQASsZW8CARACIRACIRACIRACIRACIRACIRACIRAC800gAtZ8t09qFwIhEAIhEAIhEAIhEAIhEAIhEAIhEALLnkAErGVvAgEQAiEQAiEQAiEQAiEQAiEQAiEQAiEQAvNNIALWfLdPahcCIRACIRACIRACIRACIRACIRACIRACy55ABKxlbwIBEAIhEAIhEAIhEAIhEAIhEAIhEAIhEALzTSAC1ny3T2oXAiEQAiEQAiEQAiEQAiEQAiEQAiEQAsueQASsZW8CARACIRACIRACIRACIRACIRACIRACIRAC800gAtZ8t09qFwIhEAIhEAIhEAIhEAIhEAIhEAIhEALLnkAErGVvAgEQAiEQAiEQAiEQAiEQAiEQAiEQAiEQAvNNIALWfLdPahcCIRACIRACIRACIRACIRACIRACIRACy55ABKxlbwIBEAIhEAIhEAIhEAIhEAIhEAIhEAIhEALzTSAC1ny3T2oXAiEQAiEQAiEQAiEQAiEQAiEQAiEQAsueQASsZW8CARACIRACIRACIRACIRACIRACIRACIRAC800gAtZ8t09qFwIhEAIhEAIhEAIhEAIhEAIhEAIhEALLnkAErGVvAgEQAiEQAiEQAiEQAiEQAiEQAiEQAiEQAvNNIALWfLdPahcCIRACIRACIRACIRACIRACIRACIRACy55ABKxlbwIBEAIhEAIhEAIhEAIhEAIhEAIhEAIhEALzTSAC1ny3T2oXAiEQAiEQAiEQAiEQAiEQAiEQAiEQAsueQASsZW8CARACIRACIRACIRACIRACIRACIRACIRAC800gAtZ8t09qFwIhEAIhEAIhEAIhEAIhEAIhEAIhEALLnkAErGVvAgEQAiEQAiEQAiEQAiEQAiEQAiEQAiEQAvNNIALWSPucfvrp7YwzzmjnPe95Z9Z6v/zlL9vhhx/edthhh7b11lvP7L51o1NOOaVtsMEG7TznOc/M73123PCII45ov//979uNb3zjdsELXvDseGSeEQIhEAIhEAIhEAIhEAIhEAIhEAIhsI4QiID1v4Y69dRT22c/+9m27777tl//+tfdTwkpj3rUo9ree+/dNt100zVq0itc4Qrt+OOP70SxP/3pT53YtKblX//6V3vpS1/aXvnKV7Z//OMf3e0ud7nLtRe/+MXtpje9adtwww3X9BEz/TxR8KyzzhoV2bbYYoumDR73uMe1pz/96TN9bm4WAiEQAiEQAiEQAiEQAiEQAiEQAiGwbhOIgNVa++c//9l23HHHduyxx4625sYbb9w+9rGPtRve8Iar3doPfehD29ve9rZ229vetr373e9e7fvUB7/4xS+2O93pTk3m1Vi5ylWu0r70pS+185///Gv8rFnd4OY3v3k76qijukyrYabYla985Xbccce1t7zlLW2PPfaY1SNznxAIgRAIgRAIgRAIgRAIgRAIgRAIgXMBgQhYrXWCyWc+85muOXfeeef27Gc/u/v3+973vnbIIYd0WUNbbrll+/GPf9w22mij1Wp29zjxxBPXOJPLw08++eS2zTbbtL/97W9dJtf+++/fdt999/bXv/61HXDAAe073/lOV8c73vGO7c1vfvNq1XfWH/rPf/7TLnWpS3VZVn//+99XEbDOPPPM7nfEwpQQCIEQCIEQCIEQCIEQCIEQCIEQCIEQ6BNY9gLWj370oy6zisB07Wtfu8ta6m/vO/jgg9szn/nMjhmh6MlPfnL371e96lXt9a9/fffvT3/6080WOOWrX/1q22effbp/v+c972mXv/zlu3/f/e53b7/4xS+6LYTOwlLuf//7tx/+8IejFvnOd76zXfGKVxz9nW12r3nNa7rfPf7xj29Pe9rTVlxnm57tg9///vfb+uuv3/3tzC0C0U477dROOumkds1rXrO94Q1vWPGZBz7wge3II4/s/v/tb3+7rbfeet2/3es5z3lO++AHP9j+8pe/dHVXJ0yucY1rrPj8H//4x7bXXnu1n//85+3f//53J9Jd5jKXaQ94wAPa3e52t/azn/2s3fe+913xrrLDlO233769/OUv7/59k5vcpKvbox/96Haf+9xnxb397CEPeUj7wQ9+0GXKXeACF2jXv/7120te8pK22WabrbjuZS97WXvTm97Udtttt3aLW9yi7bfffu13v/tdJ4hd5zrX6a6/8IUvPMozPwyBEAiBEAiBEAiBEAiBEAiBEAiBEJhvAstewHriE5/YiB/KO97xjrbrrruu1GKyppxfRZi57nWv2wlcyjOe8Yz2vOc9r/u3A9ovetGLdv/+5Cc/2e585zt3/5YJVWINkezoo4/uBBVikHKzm92sE4zGip9f9apXHf3ddttt14lFm2yySbcdb3jWlcyx+93vft1nDzzwwO5cLwLWJS5xiS4LTF0+97nPrbi3rX3f/OY3u/8TiQhfSm17JGhtu+223XsSlIhIRDsilnO41FNWlc/JVHPGF/GL8PeYxzxmYtaZbLcPf/jD3bN8Tt1kvxGxFPcktsksG5bLXvay7bvf/e6KjK2nPvWp7YUvfGG7yEUu0mR7uVe/aFftmxICIRACIRACIRACIRACIRACIRACIbDuEVj2ApZzpD71qU91LfeTn/ykXfrSl16lFWX82D5IyJIJpMxCwCLM2DanyGKSIeUbEO9whzt0Z0FNOujd9sE//OEPnaj0rW99a5X6+p1rlHve857tta997ZIFLFlit7rVrbpsrBe96EXtwQ9+cDvttNO67CeZZHe5y13aYYcd1n71q1+1q1/96t2zDj300HaPe9yjE/s+9KEPdUKerC0HzD/ykY9s73//+7vrHJLvDCx/6oyuMQHrCU94QndAvSLjbJdddunu+9jHPrbLmOtvkSwBy7WERnU73/nO1zGViaU4Y2vzzTdf93ppahwCIRACIRACIRACIRACIRACIRACy5zAshewbn/72zcHosseIigNDxdnH5UpZVscIUuZhYBVtucgdmLPF77whe6bD21r7G+PG9qobYl//vOfO3Hmox/96ComTBSrLY3O9yKGLTUDy7bEF7zgBZ3A5AD7KrKcZE05dP2II47ossnUh6BEcHvKU57SbRvEql8IYLZFKmNnYA0FLGKZrDaC3lZbbdVtP6ytjdVmF7rQhToxTNv1BSxbHm0jVGwddC6YslBW2zIfB/L6IRACIRACIRACIRACIRACIRACITDXBJa9gPXwhz+8OztpIYHjSle6UrdVT6YRYMokAYug5LwrZbEthGUZJbIQzwg1Y1lgfSuydc92PsKRb/Ublu9973vtxje+cffjRz3qUd05VgsJWM7MIkYptYXwYQ97WCd8TSoXv/jFu0wshTAlw8rWvSq2Dtq+WILgUgUsB9SXCFbZXnXvOgPMWVuyqzyjL2D95je/WSHgvetd72oPetCDuo/aJnm1q11trjtkKhcCIRACIRACIRACIRACIRACIRACIbAqgWUvYL361a/uDkJX/Pve9773SpQIOpe85CW7n+24447dGVdKX8A69thj28UudrHu5761kHCjTCNgfe1rX2u3vOUtu+udx1XZQgsZ641udKNuK6PMI9sFaxtefcYB8869UmzBc4B6X8C6wQ1u0D7/+c+veIRvB7TNTykBi/DloHeZYE960pNWqY5nOqS9igwsmVe2Yzr/SiHkve51r+v+vVQByzctOs9KccD7xz/+8RXPqrO5bAckVsn86gtY/XO8ImBl2AuBEAiBEAiBEAiBEAiBEAiBEAiBdZ/AshewZA35lj6HkRNMZBX1txHe7na3W3Fwu28VvM1tbtO1uu119e1/X/7yl7tvuiMS+SZDgpaymIBl66CsLiKUs6WISrVNbiHT+sAHPrDim/rUR72q2D7ofWzTsx3xmGOO6c6hIjA5xN35VL6Nz9lVniWDqQ6ad48SfyorzAHx3sd2vWmKbZgOhXfIvGynOhzeNwm+/e1v725h26HD7Ptl7Ays613vet25ZBtttFFXT2daEccw++1vf9uJht7Pe0TAmqZ1ck0IhEAIhEAIhEAIhEAIhEAIhEAIrJsElr2ApdnqvCf/JqQQTmQYyXL62c9+1ok/BCZnVFUBrs5ZItQ4vFz20Ve+8pUV1ywmYMlYcr6UDKK99tqrE5yqOHzd2U+TSmVhEW8IUL6tj/jkmc7HUmRzyeqqsttuu6349sHdd9+9E5je/e53d2JTlRKwiGqEIiIb4etZz3pW881/BD6HsTtbS2YXIexe97pXl33l2w1t/bOd0Of739roGxtlrSnOsJJV5VB13zpY3IffQvj1r3+9O7hdIRDe+ta37hjXdsf+t0ZGwFo3B6DUOgRCIARCIARCIARCIARCIARCIASmIRABq7VOpHnFK17RCVmyqIaFWOOb+GpLW/3etwX2t+IRkx7xiEc0W/gcPr6YgCWD6KSTThptJ8KWs6kmFQKRb+P7yEc+ssol6nHQQQd1olg/m8xntt9++3bCCSes+IxzpPbZZ59OoFL62+8++9nPdt9iOFbHgw8+uDk/jKAl62xYNtlkk+YwdUKbIiPMdbKvqhDdbKFUxjKwZFtpE9lg/XbxfjK6bNesEgFrmu6ea0IgBEIgBEIgBEIgBEIgBEIgBEJg3SQQAavXbkcffXR31pJvtvvqV7+64pDyfqZPv5mJVG9729tWnEclI0vGkG/q87s999xzhejlLCiZUQSlOp/KNkTftjdWFsvA8hmijowkItDxxx/fHabuZ4QxmWDOthoWGVOEJVlXRCPffug6Z2Up+++//0rbGP/0pz+19773ve2nP/1psz3R9kOZVd6T+EX8I6LJiqpvcXS4vAyvK17xiis93jNlfNn+5z6+3bGy2IrFzjvv3GVy9Yt3Ofzww7vPOeB+hx12WEXckx1XB+z330Gb+tZExWHudVbZutldU+sQCIEQCIEQCIEQCIEQCIEQCIEQWJ4EImBNaHdZR77tjzBkOyGRxuHn81w+97nPdYIUUYzIRKia9uyqeX6v1C0EQiAEQiAEQiAEQiAEQiAEQiAEQmB5E4iAtUD7H3nkkV2GEDHL9kGHtTsHap6LrXQvfvGLu0wsdZeVNTwwfZ7rn7qFQAiEQAiEQAiEQAiEQAiEQAiEQAiEwJBABKxFbAIgB7krW2yxRXcA+bwXmVfOslJkkW233XbzXuXULwRCIARCIARCIARCIARCIARCIARCIAQmEoiAFeMIgRAIgRAIgRAIgRAIgRAIgRAIgRAIgRCYawIRsOa6eVK5EAiBEAiBEAiBEAiBEAiBEAiBEAiBEAiBCFixgRAIgRAIgRAIgRAIgRAIgRAIgRAIgRAIgbkmEAFrrpsnlQuBEAiBEAiBEAiBEAiBEAiBEAiBEAiBEIiAFRsIgRAIgRAIgRAIgRAIgRAIgRAIgRAIgRCYawIRsOa6eVK5EAiBEAiBEAiBEAiBEAiBEAiBEAiBEAiBCFixgRAIgRAIgRAIgRAIgRAIgRAIgRAIgRAIgbkmEAFrrpsnlQuBEAiBEAiBEAiBEAiBEAiBEAiBEAiBEIiAFRsIgRAIgRAIgRAIgRAIgRAIgRAIgRAIgRCYawIRsOa6eVK5EAiBEAiBEAiBEAiBEAiBEAiBEAiBEAiBCFixgRAIgRAIgRAIgRAIgRAIgRAIgRAIgRAIgbkmEAFrrpsnlQuBEAiBEAiBEAiBEAiBEAiBEAiBEAiBEIiAFRsIgRAIgRAIgRAIgRAIgRAIgRAIgRAIgRCYawIRsOa6eVK5EAiBEAiBEAiBEAiBEAiBEAiBEAiBEAiBCFixgRAIgRAIgRAIgRAIgRAIgRAIgRAIgRAIgbkmEAFrrpsnlQuBEAiBEAiBEAiBEAiBEAiBEAiBEAiBEIiAFRsIgRAIgRAIgRAIgRAIgRAIgRAIgRAIgRCYawIRsNaweY477rj2hz/8oV3vetdbwzut+nH3/d3vfteuf/3rz/zeYzf8+c9/3n72s5+1a1/72u1Sl7rU1M/8+te/3i52sYu1K1zhClN/ZnUv/MlPftJ+8YtftOtc5zrtkpe85FS3OeussxpDv+pVr9oueMELdp9R5y233LJtvfXWU90jF61bBP75z3+2H//4x+2GN7zhulXx/9W2bHa77bZrG2+88Tr5DudUpf/617+2n/70p+0GN7hB22CDDdZKNYyTJ510UjdWpqxK4F//+lf74Q9/2JaD/XrP008/PbYwMINvf/vb7fKXv3y7yEUuMtddZNiXjz/++Hbsscd2c8f666+/pLrzTcw9/JPlUrD629/+1q573esul1fOe4ZACIRACJzDBJa1gHXUUUe1973vfe1Rj3pU22KLLVZqije84Q3tN7/5TXviE5/Yznve8670u9e85jXthBNOaE960pPaIYcc0l72spe1X/3qVws25Zlnntnufve7t1ve8pbtwQ9+8FTN/tKXvrS7/69//euprl/di/7973+3m93sZu23v/1tu/SlL90JOx/72Memup1A+wIXuEC73/3u117xildM9ZnVuYhTuMsuuzSC4cUvfvG22Wabtc9//vNT3Qp713/gAx/o7lF11g4vfvGLp7rHml7kWQLqhzzkIWt6q6k+/6Uvfak9//nPb+9+97vb+c53vqk+c2666Ctf+UrbY4892l/+8pd18rVOO+20dqELXah9//vfb1e84hXXyXc4pyr90Y9+tBtrf//733f9fm2U+9znPp1I9q1vfau7/Re+8IVurF6u/W3IGJedd965HXnkkef6RQJzp/npiCOOWBumttr3POWUU9phhx3WfvSjHzWC4lZbbdUe9rCHdfP7QoVT+NnPfraz780337xd7WpXa3e60526RaqllMte9rLthS98Ybvzne+8lI+d7dcO+/LrX//69uhHP7r96U9/WvLc+dCHPrR9+ctf7hZPlkt5xCMe0T71qU81C6ApIRACIRACIXB2EFjWApaVeiuEgo5b3epWK3hbTeV8cUq/+tWvrrSyeuqpp3Yrine9613b6173uqkFLAEp8cRziGLTlLNLwHrRi17Unv70p3cinAwlgs/YyqNghHDHYa9ydglYD3rQgzrHUGAksD/jjDOmzq6YBwHr9re/fbvxjW/c9ttvv2mafo2v+chHPtKe8YxntM985jMrss5W56bEWuzPc57zrM7Hz7HPnNMCllVpK/u3vvWtF2Xwqle9qt3tbndbSUSPgLUotokXnBMC1gc/+MH27Gc/uwv8Bf3LvUTAOmctwJwnO3C99dZr17rWtTohl7NH0Le4QcwaFnP5s571rPaCF7yg/d///V/nGxFxvve977Wb3OQm7Y1vfOOSXmptCVjqaczce++9l1SfSRevjoClDvwzQle/zFrA4osaV/iMG2200Uzed9Y3iYA1a6K5XwiEQAiEwGIElrWABY7VRWLUgQceuIKV1crLXOYy3dadpz71qSs5Shw6284+97nPdSnm02ZgLdYQY78/uwSsXXfdtdmat9gK2r3uda+Ol8yzKmeXgLXjjjt2WwAPPfTQJaOcBwFryZWegw/IzBOEyGRZ17axndMC1sMf/vAuM/G5z33ugi3JNjEmzva3s0bAWv0OcE4IWKtf23PnJyNgnfPtaty+xCUu0YlYisW37bffvl3zmtccFaO++c1vtpvf/ObdmEWU6M/x//jHP5a8ELK2BKxPfvKT7clPfnL7zne+MxPIqyNgWcyT4XvMMcesVQFLG1796lfvjpKY10zqCFgzMcPcJARCIARCYAkElr2Atfvuu3dZRQLeKu9617ualTRp87Io+r8TaN7udrfrtvXZdkjAevnLX95d94Mf/KAdfvjhXao9p4PY089k+vCHP9ydE+XnVQSqztCQ6SUjjEhj64UsrxKwnKtgu6Nr/Pwa17jGKvcea3NZSoQpdXaug3MZZAHJYFJOPvnk7jype9zjHl1GUwXb3q9/dowgm8N2hzvcocu+wkVxLxlbAvX73//+XcaP98fCqu+22247ek6V7BQCIOfM+V7uuckmm4yarW0Q7mdL0JWudKX2gAc8oJ3//OfvHO0q3vGLX/xit7rsuTvssEO78IUvvOL30wpYHPziTLyxCk2k9DwFK8+STdUv0ucJPDe96U1X+vn73//+7mfqIjPD1kd2oQjwcLMSLnDQES960Yt2TK985SuvdB+CatXrP//5T8e1ghIBiW2fw2L7q+1n/bZ0phpbtr2B7VqhZ4vD7bPuhaXtJzLzrLzX6i+xkzOtDa3K254iy4v9POYxj+na9Lvf/W6XedRfMSZ02pZ6oxvdaIX9eY53Y9cYCLZssbXyv1CxKi1b0HvoO8RmbUUAKi7ek52ye1thBDvs3XV9fvUcXF2jHdxDPZ1rt+GGG66oinfFsG97filTk/3ttNNOnR3LWJBpKePy3ve+d/d5AuyQs3EHW+K5LEhbe2RKuE9fwPLvGoNsQxWADjMk1UHd2RU7usUtbjHVmXT4Y++8Gn3Z52xZxECbaVv2OzzfRP9lv+qj6C/6KTsl8hujsO5nI2lnfcAYhpd20b/YoWfbwmycqbOTMOsHbZ/4xCe6+2666aadzXiW/7uHd64yScD64x//2I2F+rCxxLiz2HYq93S+C7bs2vP00X322aezfdwU84Hxv9/fnJFVTDyb3Rmbavyt+hpXfNYWNEF/nRmkjc1P2ta46t4C5k9/+tONoPCEJzyhswP18xzstCeentMXnfHST4xlxqtf/vKXXVsbL9ms/sT+3d9n/Vns/DD9j13qE/osGzF/qVMJWMYg/c7z9SXXjNmvevsMW1RHY4uxsvofe9MP+hmNGLBP46V2qWIhBgvsTjzxxPa1r32t64/ezbZzvPRtY2eN7ZPGG3NytaF7OdPLnNW3S3ZknsIVE8/bZpttundl78OCtSwobaCv6e81hmPJprTNULBgJ+5/m9vcpsuINa+pGzb41Xy10GIDv8bcoC8Nyzve8Y5ui+Gf//znlca9MTbGe/XUn7QRBmypxl+fGROwjN3axpZbxfyI6dDWjNv6nGuNIdoKd2PGfe97365PPO95z+vuwebwHiu4VPu5J9vTf40hVZYqYBmn+DoYvvKVr+xuY4w0Z1QGlrFCf8YIB33/Kle5ykp82Iw2Pfroo7v38h7qVmOScdT88JznPKe99rWv7foz3xKLsaJ/sHH3c199Uj/u+wdszhxtzFRH/de8xHb0o2o/9/J+fB02yV7N+z43tP++gOX+xlc2OizGdeMg204JgRAIgRAIgTUhsOwFrDrvgFNnIhe0ccQ4uM7GEkRxGjn/CmdHgCTA53QRsGyzEtTatsWRMkk7q8nv9txzz+5zlakkM+Pggw/ufsaZk/3FmRPAcVx87k1velMnYhGw/OEMEEPcm1PDkSA2LZRWVfV0AAAgAElEQVRC73kEBQ6Q+/qsIKkCBQEcx1c2FTGCM1xn7XBW+k4wh18dOFnqWWdhOCeMYyaQ9Z4EurpPnQHhmX0xybbLxz3ucZ1zxbHiRLmnoH941hhGAh/Xc8wEWg5u1xbvfe97u2dxGG0BJX4QgzyXcy2IqG0S0whY2sI2Lm3hGf5wuLQxJ1QgIvgRFGnfCi4IHw68x0u7lLAguBXccybVQzCGoXOplLvc5S6ds8ipZnucR4GX/9dZXa4T/LEt9sZx50y+9a1v7cQhzuW+++7bOb7DwobYmmAEN23Hpr0XB5hTL+jef//9OzsfFpmHGKtbBaWucfi9QIdTLYi3tYHoIiAQrBJ/2YJ799tdm7BDq+f1hQf15QeYcbQ5/OxbULrQ4euewWkW6BNl2RD2HG79VeGYY/y0pz2tCzbYNhae6Twy22SqcNY55Rz7y13ucl1bcsLZlKC+guinPOUpnY2z6X7RxuprMNUuRCvt7/0rgJU5KHjql8c//vEdDwGt+rF//fItb3nLCgHLvWxPEwQpbEQAwOYr2CCE4UcwETSrH3shEi10sK7rfQ4XogebYH+C0jqc3BhmrPGO1e/dl5it7j6vEBYISvq169iJfi0ALX7sWJ/XzvoNNt7Hu2lTdqmvuJ69assPfehDK97TddrOu6u7a12n/fr1GxOwBFb6ozqxZ+MNEUCd+8HssB+wCde7xrygrdiyunm3ErBqHqn+5j4YsR82xZbYh3FDXUvcxXq33XbrhFu2bJz3e0G94J6A7DkC2ze/+c3d+3sHfY7d6zvei12zHbZLCHINGy5hgJiqHnjW542pnuv8QgsDFleI+Ozgjne8Yydg9wWJPhvzxqtf/eqOiX6tjtoEZ58pAeue97xnNy9qd9zMNebQl7zkJSvGSoKA/mPO8g5sQwBufFMH7/DMZz6zEwtcW9uZMTcGCb6JelWM48YDop/2Ja64j/MHMfAcdkf0MqZPOqjbnIBJ1UubeS92ahyoz7m/Oml7cyUhHUOfN5cSLqrY+mYbOcGVXZmv9DmM3Mfn9SHjlnfrF2dJVb9WJ1vLjGPug5G+gBkuY++EqzEIH1sFh0WfZSfmdX7JpMJGiG7ayPjC9oz3hPh+nYcCVs2xmBhfjFv6E1syFpateQ9tird+Qzhk7z7HLxr6K+Y5c+NYkSWlzTBlp/wJz2GntWi2VAHLs2rBsRabcGCf/BHP4xMYh/ldbJbPoO+pfxXjqjM4jYNs0ZylfWsclWVm7MeWDdU8abFjrOgjFlPdj00Ye9wPr1o84asSw4htxhr+m3Z0nc/XlkjisHcwF7M7IiI/z734EP15sS9gGduNW/yv4Xznme5p/E4JgRAIgRAIgTUhsOwFLIKOCVnAz2nnVAmMBAecaQ6IYJ6TY8VM0CyIKCdCgMdxEwi85z3vWREwcMoc7s454DiNCVjEAw5HBYIcFGILB8sf4pX7cGw5MhWMeJ7DUTnhYyu8DKIEDA4IZ1ARQAiMBBqcxLofh8O7MYaFCh4yrca2EKovAYGT4t+CSk6Xd+fMKBx1P8NO0OQ6zilHV6CD16QiaBAse+8qgr/b3va23f05gO7nHdWBA1Yi2jQCFqYOoSfC1Iolh5uDyga0EVvhUBOhrFQr2k/wzcnkHNbKo4BQcMRBV68xAcs9PZNtVcYL0UUwxqHkwAsSCTAc7hL4fPGAdhCgTvq2yKGAxTGVBUaUq0ABK/+eFMDJKJDFpC59QfNtb3tb22uvvTounO4S89yLuDWtgCXYEvRpP7aojxBl9SNO/6SsPO2pbUoE8DlBvKDw4x//eNcu6qUt9FfBpGtdh522EaxVNpy+KwAnOpWjrz1lp3He6+yXaQQs98SVw//IRz6yHXTQQQv2qapnBS11cWVgsTd1Kxb6qCBTgF7ZTdpI4KuvF0ftzQb080ljBDHWfdxTAI4PYcF4x7aMi34m6879CQL+z+Zk//SDVe2h/WtMkbki+Nc/bD1WCFiCO/bjnq5nj5UJw8bLloin2klAZNxRjBPq4b0Epj5P4CX8yMjQZp4/FLCMbURv/UzfrXGWfVgwUIex4l21pzEKR/2vMgllhAoSFxKwhkz+/ve/d+IG4cH44fdY+jfBosZoducPW1WIbQSsEgb93ReWCArar/pxidWVJewebEY7G1vw9nkBtrGS0Kq9y8YIZfqhYHXs4G79zxhJSK+AHBd2X+JSCViCWON0/by2qdX8qm7uYWzVJ+u6OnfJuEzc0EZEQ/ZagiORxZxijO1/0QlRjc2xUf3K/Kdfm4trzCBAEF2NNWPZImUPQ7ZVfwsd9e3A5mcBPeFHX9QOWPAntAW2ijriQfzHt8Z8nzE2Ey7ZKbtX137mt88bC9gJkaSytPr92/0JQ4997GObsapftA/RydzvHcbGfNeYh2XKErnMPWNZeMYI7VJnZta4+sAHPrBbACrRfChgERH5DupZ7cAevf873/nOLsNQP2Zbxg72Wn2OzVVdjCOuq7630AA77IPGVRz1rcqYXqqA5XnGdUKhduoXbfP2t7+9WzzSzjjj4xkELGJf2S8b8buyef9nuzLiDzjggO62+gQu02whxMg9asGA7bIn85tFEYWPYkHQuxNha74glPNljQnGqBKw2GjZpX+XoG/8cy+lL2B5n8rQ0u+rVD/kxyYDa0GXIL8MgRAIgRCYgsCyF7Aw4tBzcgkrBAwOEoeBQ88Jtc2AA0AwIgBxWiooLAGr75C7p88Ta6wacujGBCyBl2wUK2JjpQQsQVx/W5mgy/8JJLWFZ/j5ChA5Kf3CmfZMQR6HVpmFgCXwtMrYd4w5qwKEOluL48SBISj0HWNijJ/7/KTtD2MCFq6CS8JD/7kcdE4SAYszPI2AhSPHa/hNiiXIVPvKlijRBTtbXWxP4eSxF04tp5mTLMAvR3RMwCL4acvhNiuBVf2cGOT9iAdVbNdif8MvGOi381DAEowQJjDpZ0YtNEYsJGBx1LFhZ/0yrYAlOOasCyQ42FUERVgJjgks0xbBagmJPlPCUJ1VV/fh4Avy9AEBFdsgIsiKHK7iC1IEIdpCBsA5IWDpv/1Ve7Ynm4DtEDUE/gJFwUQ/a8J7amftMSlA994yOARMVQS4+oxV8go0vD+BmCAn+4oQQ6AYy5jst5ex0vhZwbRxVd8kOtTWLfUkMhorBWtVBKgENMGgTCbFe7J9DPrjh0CWiEAAI2IOBSzjtbrUeFDPIBoI1C1ajBX38941hvdtSH1lMi0kYI3d0zjmj8wL7yLAFNgaR6oQEQg2hEulBCxzjX63WCEeYqWtKtuRgGVcqq1bdQ9t7Z59wUPwql6C2bHtvOay2p7U317cr1cJWMMxgpjI7ioTU5sYd/vtXPchQmkDAne9E2HT+EiIcB8Zva4jumDIntiAfkPwqsBZdsywf3t32afGjmmLdyfquZ/FBoXtsQPzVz+bj3NlbsBTIVqxzb6Q5ufaBW990btgo08aC2tu8J6EKeOm/kIsMv6bS/vFGGDBof8NvZUxaAwzHy/0zZxEDwKz7G19zFgpa6xEZL/HnY0SsqoYR815xuwSNoYClnvpN8SqfjEP6BM+VwL9sK/2r1+KgDXWrgQaQmDZw6wFLPy0i/GrCqGRv+LvSYtOrmXbfs+PUJYiYI29K6GJ/1g+WAlY7tvfdqs/yQJmYxY/SsAicPMD+oV4qQ29izI8A0vfk+1IrCuhne9ngYV/PWnBbNo+mOtCIARCIARCIAJWa91qmYmVSGAC5wwTeky+HHTbpGylkt1htdwqVBVBhSBXUNWfmKXrc6QrgB4TsDg4toBxFscKAcvKmG1V/YCt7s2x4GCMFQGbALS2rNU16iErSsBupVeZhYDFqRSI9YszKohztUpJqCD01PakuhZbgUoFoGPvMxSwONJW1TmhdQ5Ffa7EQ9u2BALTCFjaYmw7naCEYyfdXv0FZK6rFX9Ou6CKvXDoBZ2yRGxVEazX9pExAYsTqa79UgKjDCRn5dhmQFjFrc7G8RzC2KQMCfcbClgEAdvRBD3EWkHb8MyuIffFBCxOsffvl2kFrLq3rLr+OVPsk/jEPhfaIitAFoyxGSImFt6R06y4h5Vr4kT//n5HVCEeWP1nG+yImFHBfr1PCQcVdJwTApYBujLF1It4JPCuQF5wX9vPbPHoF+MZQbYyoPq/E+SyUcEjIaYKHj4nmBaEVDEmVl9io8Nz1/RHmTsCeW1AqMBPpp4MQsUYIbDT3/sZRIJ3IltfyBfUq5fAXRCmCIgJ9wKhfqk+WvUaCliESuKbsbL/bZrsRR3ZyJgYR8DRR4y/w28AI6rVeUXqMraF0DtY+DAOuFa2mHlGVp92KTGAEFJjGAHRth6LC5X5V3Y4FGOLgc/I/nGduuoP+gf7ri2eBCzCi+C6X4bBvN/hok0EvrWtfDg2+J0sONy0nTGxH7CXgMWW2FgV78x2BLnGdFvn2FVt4e8/x9xHeMfOuEAAMHcRb4nV5k7bIM0B3tk9jT8EOaKr/lACFjbDc5KMzQSfss/hO/q/+wr63cccr/7aU71K+CVgERyx79u1unl3cwLOhGh2RKAaFgKRxRHzNTtRV+JqbXXWjjL+SthQ9zrvrH8v/ct7W3CpwvbZnT68kHjVvw+bMvZYhDLOs0/10Rbqpi7D7Dx936JcvV9fwMJR2xlzht+AqG7mJGOafsGW+FjD8azqtxQByzjE5rWZe/q/euLq23WVWQtYFuNw6vuDfAJ9qn8chbGWT6mfsn/tzlb4bcZSZakClrHRPfkn2tCYSMDkTyhsmT87XATwO21gjMSmBCx9kPjUL/qZubl8l6GAVbsY2CqbUYhlMu0q03Ssr+VnIRACIRACITAtgQhYrXXiBGeGoyZY5LTVuUAmcqvNHGNOM8eQw1Vl0rcQTiNgESQIFLYkjpVJ30I4rYAlsK3ztvr3t8LnvAOruMosBCxbAofZS0MBiwMvOJokTAgIJm0bmyRgYSeboV9keNiCIMgg2kwjYBFinDlBzOwXQkeJVFbTOaDqIkAiegjyrZQTBGz7Edh5fm1PqhX0MQGLcykw6pehgIUX23SdoFZ9BOgc0XIOx2xnKGC5psQJjiWxUeaDwHfsEHjXLyZgDTMOfGYhAYug656eywm2is9ZHvt6cBlxfeGm3pEzztYIcexXIEeAIhQIBPoCFpFB4DAsniuYkaFSAhZxYHheVAWgiwlYlQFUq9qz3EJorOmLCEMBiw3KehCUDMVE7y0LpbIn+hwq0414PpZl40yi/pdNVEaboExw1D+IXIagTDz3YZOyA2Wi6OcEAkGQIvDUHv3g2s8FdsQQ412VSQIWm6htonVtCVi1DXMoYJXgazway/AUwA5FTve2LYzwQ5gY/t64wi4mZWDh67NEHeOavwXksjK1SY2V7I7AiLdxuc61EohWlloJWEQh4la/yA7zeX1KG9R2daLfUMAiHBAE+4Ww4jwkfaLKNAKWawkognUZOoQTwpHtkcqkbyGcJGANM1Hdg5hjftW+ij5uAUl7EK3Mn8Z47S2IxtwYaTwwpyslYAm2+0Kt3y0mYGkb7SyzS2YMtjKNCZC2u/cFLALBcDtZbUOubfzmP59X32EhCNkO730V87ZxGlfzvT5CsCeWVZ9hU2MZeeac+qIV17IN4wPhfqlFPySwWkAp8ZkNem5/fKj7YmThQOkLWCXg6Of1Dv26mIP4K/whNmQOnfSte9MKWMZOdWf3NS7pg/o7IWVtCVi2ztXxBfWOQwGLgGTc5l9i6f21Gx/EeL9UAUs7sVHzn/mR/8Peza/ajkCm8Bssfnn+8Hw74hXBlVhZApYsZAJov1SGVfXLsW8h9BlneeqTggx1G+5SWKot5voQCIEQCIEQKAIRsP6X1SD4IlzVlqG+88SxEjhJmxaUcTKqrImAZSWTMzzpnJw1EbA4kYJIolu/CIA5wxx8AZZydglYnEjO1KQzZxbqlmNbCGtlf3iodp2rUweoTyNgyb7BoQKIqguRw1lNFTxaJeVsCsrZg8/VeWg+L1gQYAmcOGzlJK6ugKUe6mRVWz1sC+PAj4kVfX5jAlb/94Qyzj2hqFb1h/xXR8BiV4JL4k//G97K7mxtwahEn4W2wY7ZQ53PMvwcp30oYBEROdCVuVb3s9Ise4CIxzYEgoJwwVW/VMBcwa9MDf2JXfWLTD9C0DkhYMk8c66OelXgOM30JuAhKMrykfmxUGHPmBkHiTp4YlfCoy3AbL22vNW9jG+EkVkKWDJxKpugnlOib2UEDgUs2+aIO/2t39MwqrOkPG8ofhA1CAuTBCxCOFtlf/1S3zJbApZA0bghmNW3iY3G5X72xkICVn27meyV+kwJ+GtbwKr30ibsSNCKh3ecVsCqL0CoQ8z7rAT27KoYY0UUIUywRcE529U+xld9QXavBY0ScNZEwDJOGSe0Y5X68oFhBpZ+QaToZ/iZl4iVbEDbeh9ilnoOi/cyvuhLSi2UEI2Mz0QF9l0LPOYA7TzNXIqteWqxOWNSn5DBpO76j+eb/2S/2ZK+UOkLWLXFUHtNOjLBvYge5o9iNnb/aQUs47lsIP2/n8GuXrbBnZMCFqGODRkz+1lxxgKC21IFrJqDKtuvuLmfLOW+gCWjqp8JVtcSs7En7pWApb2GWZvEVfNljW1jApY+aRxgv55n/h/75stpxuFcEwIhEAIhEAJDAhGw/keEU2SSlepeh64WLKKWzBIrqoKaviO4JgKW7AQOfH2V8bBx1kTAUi8r2LYYcUyqEOAEn5zrCuynFbA4JAKH/tkXtTVymgwszrtVYCyJMf3iPpO+8cp1YwJWiTQlVLnOfWz14gCW0zaNgCUzgmBjy0sd5O1+Vg5l68isqiwM26KIFZxjGQi19UyQIdgg3gwzpFZXwKpDbWXaTDrvbGxYGwpYGAzPnuB4snX3Hit1SP7wgPEKaMYysOrb0LCs7Uue7SBmgUsdfkxAYU8CdoLDQm3frxtH3b0Eb5VNU98SJjutn4FFwOKQEwvq/iUGOFy8gkVihPrgUMK1ccB2GCIPDtjJgJABIpDrCxpsREZYCVjqw4b8nK0vVOogbWOAbb9V6hD3xTKwXC/QFpQ5t2rs0OVJzydKCayJjmNZcD6n7WQ5CowE6QRczzImVuYowUXWWf/cHSyMFYS9/hbCNc3AchZSn5V2I1bIRNJPK8NFBpL/Cw7rrClBq/NdprU184FsCIGw/lz9R0BINJTBM0nAIpgZf/riOjHGWFs2ia9FE33FfSadDbOQgKV+AnEZNlVqW15/i7k2mnUGVt+u2IW+Ult/pxWwtB/7VTdjaRXtzD5lUdY2eH2CeCJ72DYzQpB+qL9pDxlRrsWyshbXRMCy0EPk739xiAw2c0VtT1ffOgOrf1ZlzUOEvdpqZW4hMjvfrz//6X/GInN1ZZ36PDFOZh4hkjjY38plXDF+e7/+1s2xvl6H+U/aktcfc8YyEWUZG6Pdx+9xNpcTMBb6Bs/hGVjq712JbpVdOKxvZVMaX7zzWF/V37HW/gudpyTjje/TzzrEy9mBxM8av1ZnCyEfyMKjtu2LloS+aTKwzGGu00+q8CfMAbIIS8Ay/vs/QWih9tMfCGIyq6oN9SH9Sh/pbyHUDmy4/02UNafzDfnCJWDZImy8K5HNmKi/6od1nt6YgKVfY+89zbX6bD9j3PZGc7gtpdOOxwtOpPllCIRACITAsiIQAet/zS1tnUMi6BWo9kt9NbAtHnVwZf1+TQQsDpgVWqu8ziQS0DurgeNnO8GaCFgcYPfmiHDgBNRWN22jqfMs6h2mFbBkU9i+Q6ThaBPA3JdjNY2A5Xm2ZHCGZbEJ8DkyHCHOm7pNKmMClvMsbPsS2KiTAErbCTg4TLUdcBoBS5BLsNAWHC7iiFVGhwtzujm9VcoeiAWc+hIzBKuu41QPz81ZXQHLMwlkbIVDyFnGXJsJLPpbufrshgKWoJnjyannlKqrAMFWWc7vWCE2CNLVHRPZB4KqOmdmTMBynzrjTNCvvrKDOMac69pC6Lo6RNv1snS8C0GN3fvdWDCFtza3nVO9bUly0D1H3WDWF7CIpWxCgF9bOgUYBOj+ofgcfQEwIYugwF7Yj4BSf68gjSCCoeAYDyKXQJaDLxDpH4zrOYICgQh+6jHWVp6lvwtcBG2EJOc8LUXAsrKtfZ0zQqTxLNkaMlHY76TMC2MNoUUWj2wKW//YmXeztVRgLAAX8BDojE+KM6UIQYQkWZDai0hFPDDmEGqs4ms/mUWzFLDYvuBIBogxQZac57O12tI1zMBSZ+O78QUnf9RNPdnm8JDifl8gNhAtCUSELPblnMSyzUkClv4nSCToCEAFzoR1AhtRojKwCG+yHLyXsceYYvsP+6nzDRcSsAg87E7wqv2JHba3sVVZm3WPWQpYxErzk8UQNmGu8XwZqXUG07QCFtbGf4s52sWYRgzTp80JRNN+vyEA6ef+riDfPfBmp/qTcakE2TURsLSB+Y596cPsir0J4tlTfwuhscCYb26VzY2F/rfffvut9K29tj0Tf7SRfqdtvav5c/gtvJ4t6GcTrutv9cWIHVks8TmLG8ZrdbQVrS9o8lu0f52pNmmOZZ+eo896X9vijWHqYWyq+dR7Gq+M7Z5tPLQF1P31jUnfQqjvECXN2+ZW45yf6WPG6hL1jNfEeEzYBB/GGFdCIj/G72yF8znzmTF0WMwPxmefs5iiv6sfezUmrYmAVduLZdDz3bS/eWxaAYtY692MY8R2TL0TYc+YWraNq62a7N3cxLeocbj/vrZxe0f25b20HWFJFqy+2BewjM3mNFuP2Rch0nmo7KnOMS0Bi+/B/tSToIu5udPcUQujYwKWuhHS2YytxhZ9+l8eQzTUjmPnaC6rCCwvGwIhEAIhsFoEImD9Dxsn2mQuoBk7o4GzyVEbfqsf55YzNjzzQLAvqLb9QNBbh6dzcATHVQT1HDbBsmsEOCb++vYfK33DjLDKgqiDcBdqeQGt4E5ArD4EHgFSvxAD3FMwtVgRaFSmBSdMgGSrGGeottLVPfxfIDw850kQwMHGyOqbeqnj8BDtfl0EgRyssTO9OJCcYGKGewmwCRJVBDWCc0EFAafagsPYP+ReYCxY9V6uId5wsggC/SKw4mRaqRQ49Z/DKedQy1jprw57N5zrjJjhGTp1D4IJEUwgSBgjEmBrpZIjq15WfdkLh1D22Vj2TH2TFMHHtg9BSDmTnkV81D4LfYW867SdYJXQ6D7EGoIe8cu/x1bStavAooJ7Igk74HirV/+sKe/CgWfj3s27uDf7mLQy6905wAJJQqM+qz38qe05nGxOt1VufU4/1L4CAYLuUBwTVOn/hBrtRojpb8uq9qlDo7WT+mFKjGUrnP86F6bOJKnz8tiUe44VjAVvRFSfV+f6ljUDdD+DUmAhKMGxtgC7pyBE4OJ5OHoH4qQAelJ2lc8ROnxOkFNf6e7/BC1trh/JOKxv06z6swlBkvp5luBKsOgegl82YpsMcbu+4Q57Qbb26xdZeISYOrDa7/AjoBEEBImKIFUfMl7qE9pfIOaa/vZJwa6+LWjqb8/RtmyBwKHt9C/jI1taqGgP12gfYorgWvt7rv6pGAfYm6yrygw0zpsfaizxjZuCfM/X97RxbTU052AlECYi6Fv1zXnEZm2tHvWlEP36etfa5uY++oPxkmBH5FPYF37DL7xgbxj0v8FS1qdxTB/q21490/sQB7yzd8CS+O/9KkuEyG9sYVfGrirGaPZrHupnlGIis6b6FVHPvDrspxhYSDHG9+2fEGKe1Yf728CNj5jUeNrnNvyWzKENsEF25iwsxYILG8ebTRYz76mfsY3+Vjv16HOt+5ur9C992WeImex6WAjr2tv8I2tpOB4SEvUxIlK1g7GVcNYXOdyD+DrpqIJ6LlGC6EpUqDGE4ORzw/OuPFs/ZHeV3Uv4Ytcl+LMh9etvzeZneAZb8TnvhB+RqT/PEt7NAfqca7DHrYoxhc+gHmxR3xsr/XEJE74LkcfcXRm4df4p2+r3ZWPqpHO4XGdMNzZiz/4Jk+Yu44w+3C/GPTyIaHXmpH6KhT6h33g+P9SY0s8aMzeyYdfxDfqZiv1nYCrj1RhiftfH3Jdt1bdVYqZNzBPm6MoQxYJvVRm8JWDxmfRNc5z31Jf9rP+FCERBC07DLeTqZgzXr4firParbbH9jPcFB+L8MgRCIARCIAT+RyAC1pyYAme5AshZp1S7r/uPZbSszuu7l9JPnV/qfTiv7iP4XZP71HPdz595u9dSufSv53QKyggjAtJ+qUO1OcvDb3Wc9Ex2wOH391JswfWcV59Zim3Ws6ZpE/cvm5rmGWXT7j3N9dPWxXXKYlvx2K7nLnZdBZaLMVhdxsO2Xt1xpD7nfVb3a85n2QfHbJgAI4Aj3lX7L7W+9blqu2lsR12Wam/9cYlNjfW3EnmJVX37wJFwICvD76Yp09r3NPea9hr19Fz2slg/mPaeNSesrg1O+5ylXLfU+U6fX8wuZzkn11zqmWPtME19+jy8b82li7WD9veH/S52bf8Z9blJdXbtYu/lHq5ZbC5bm32j6rjQIsFCtjatHUw7/ix2HQGLsF7bWifNTyVg1TcJVl+fdr71zu5NlCQaEvj6Zdr3Xko/zbUhEAIhEALLh0AErOXT1nnTdYyA7UCC3LEDV23Zcb7E2CHl69hrprohMBWBvoA11Qfm/CKZsLIyht+qKBtQJqkzxPrb5Ob8dVK9EAiBOScwFLAmVXcoYK3Oa8m8ls0nw3gxkXF17p/PhEAIhEAILF8CEbCWb9vnzeecgK14toTYommrgnR8WwJtwbL9wBYLIlZKCCwHAuc2AavOkrON0JYmmS+20Nmi6Mwa5+w4FyslBEIgBGZBYG0LWLbw20roOArbbf3dPzJgFu+Qe4RACIRACIRABKzYQAjMMQEOoTR+Z2o4E8XZFrIznK1SB8bPcfVTtRCYGQEZSfGUqzgAACAASURBVLaiOMPl3FBsy3GejbNrCFa2YDmrz7lVDggnXKeEQAiEwKwIOBfLtwE7r2uh4uwxorovV3H+2LTFWVjOy3JWlkPqnZWYEgIhEAIhEAKzJhABa9ZEc78QCIEQCIEQCIEQCIEQCIEQCIEQCIEQCIGZEoiANVOcuVkIhEAIhEAIhEAIhEAIhEAIhEAIhEAIhMCsCUTAmjXR3C8EQiAEQiAEQiAEQiAEQiAEQiAEQiAEQmCmBCJgzRRnbhYCIRACIRACIRACIRACIRACIRACIRACITBrAhGwZk009wuBEAiBEAiBEAiBEAiBEAiBEAiBEAiBEJgpgQhYM8WZm4VACIRACIRACIRACIRACIRACIRACIRACMyaQASsWRPN/UIgBEIgBEIgBEIgBEIgBEIgBEIgBEIgBGZKIALWTHHmZiEQAiEQAiEQAiEQAiEQAiEQAiEQAiEQArMmEAFr1kRzvxAIgRAIgRAIgRAIgRAIgRAIgRAIgRAIgZkSiIA1U5y5WQiEQAiEQAiEQAiEQAiEQAiEQAiEQAiEwKwJRMCaNdHcLwRCIARCIARCIARCIARCIARCIARCIARCYKYEImDNFGduFgIhEAIhEAIhEAIhEAIhEAIhEAIhEAIhMGsCEbBmTTT3C4EQCIEQCIEQCIEQCIEQCIEQCIEQCIEQmCmBCFgzxZmbhUAIhEAIhEAIhEAIhEAIhEAIhEAIhEAIzJpABKxZE839QiAEQiAEQiAEQiAEQiAEQiAEQiAEQiAEZkogAtZMceZmIRACIRACIRACIRACIRACIRACIRACIRACsyYQAWvWRHO/EAiBEAiBEAiBEAiBEAiBEAiBEAiBEAiBmRKIgDVTnLlZCIRACIRACIRACIRACIRACIRACIRACITArAlEwJo10dwvBEIgBEIgBEIgBEIgBEIgBEIgBEIgBEJgpgQiYM0UZ24WAiEQAiEQAiEQAiEQAiEQAiEQAiEQAiEwawIRsGZNNPcLgRAIgRAIgRAIgRAIgRAIgRAIgRAIgRCYKYEIWDPFmZuFQAiEQAiEQAiEQAiEQAiEQAiEQAiEQAjMmkAErFkTzf1CIARCIARCIARCIARCIARCIARCIARCIARmSiAC1kxx5mYhEAIhEAIhEAIhEAIhEAIhEAIhEAIhEAKzJhABa9ZEc78QCIEQCIEQCIEQCIEQCIEQCIEQCIEQCIGZEoiANVOcuVkIhEAIhEAIhEAIhEAIhEAIhEAIhEAIhMCsCUTAmjXR3C8EQiAEQiAEQiAEQiAEQiAEQiAEQiAEQmCmBCJgzRRnbhYCIRACIRACIRACIRACIRACIRACIRACITBrAhGwZk009wuBEAiBEAiBEAiBEAiBEAiBEAiBEAiBEJgpgQhYM8WZm4VACIRACIRACIRACIRACIRACIRACIRACMyaQASsWRPN/UIgBEIgBEIgBEIgBEIgBEIgBEIgBEIgBGZKIALWTHHmZiEQAiEQAiEQAiEQAiEQAiEQAiEQAiEQArMmEAFr1kRzvxAIgRAIgRAIgRAIgRAIgRAIgRAIgRAIgZkSiIA1U5y5WQiEQAiEQAiEQAiEQAiEQAiEQAiEQAiEwKwJRMCaNdHcLwRCIARCIARCIARCIARCIARCIARCIARCYKYEImDNFGduFgIhEAIhEAIhEAIhEAIhEAIhEAIhEAIhMGsCZ7uA9ZnPfKZd+MIXnvV75H4hEAIhEAIhEAIhEAIhEAIhEAIhEAIhEALnUgInnHBC22WXXZb0duudddZZZy3pE72LH3voQav70XwuBEIgBEIgBEIgBEIgBEIgBEIgBEIgBEJgmRJ44Z5PXNKbr5GAdf1n3bftvt1OS3pgLg6BEAiBEAiBEAiBEAiBEAiBEAiBEAiBEFi+BD74vS+2bz/5zUsCsMYC1lIfuKTa5eIQCIEQCIEQCIEQCIEQCIEQCIEQCIEQCIFzFQEJUUvVkyJgnatMIC8TAiEQAiEQAiEQAiEQAiEQAiEQAiEQAvNNIALWfLdPahcCIRACIRACIRACIRACIRACIRACIRACy55ABKxlbwIBEAIhEAIhEAIhEAIhEAIhEAIhEAIhEALzTSAC1ny3T2oXAiEQAiEQAiEQAiEQAiEQAiEQAiEQAsueQASsZW8CARACIRACIRACIRACIRACIRACIRACIRAC800gAtZ8t09qFwIhEAIhEAIhEAIhEAIhEAIhEAIhEALLnkAErGVvAgEQAiEQAiEQAiEQAiEQAiEQAiEQAiEQAvNNIALWfLdPahcCIRACIRACIRACIRACIRACIRACIRACy55ABKxlbwIBEAIhEAIhEAIhEAIhEAIhEAIhEAIhEALzTSAC1ny3T2oXAiEQAiEQAiEQAiEQAiEQAiEQAiEQAsueQASsZW8CARACIRACIRACIRACIRACIRACIRACIRAC800gAtZ8t09qFwIhEAIhEAIhEAIhEAIhEAIhEAIhEALLnkAErGVvAgEQAiEQAiEQAiEQAiEQAiEQAiEQAiEQAvNNIALWfLdPahcCIRACIRACIRACIRACIRACIRACIRACy55ABKwFTODEE09sRxxxRDvppJNmbigbbLBB23bbbdulLnWpmd87NwyBEAiBEAiBEAiBEAiBEAiBEAiBEAiBcxOBCFgLtOYNbnCD9qMf/WittfeGG27YCWRbb731WntGbhwCIRACIRACIRACIRACIRACIRACIRAC6zqBCFgLtOBmm23WzjzzzLbxxhvPvJ1PPfXU7t4HHnhg23fffWd+/9wwBEIgBEIgBEIgBEIgBEIgBEIgBELg3EfgzLPOameceUb3YmeddVZbb7312vrrrdc2WH+Dc9/L9t4oAtYCzbvpppt2v/33v/89cyO4xS1u0b7xjW+0Aw44oD3xiU+c+f1zwxAIgRAIgRAIgRAIgRAIgRAIgRAIgXMXgQPe+7L2rV//uJ106sntrNbaaWec3jba4Dxtww3O065w0Uu3h950j3aDra9x7nrp/71NBKwIWOdKw85LhUAIhEAIhEAIhEAIhEAIhEAIhMC5hcBBHz+sffKHX++Eq8XKZbe4eHv4TndqO297w8UuXad+HwErAtY6ZbCpbAiEQAiEQAiEQAiEQAiEQAiEQAgsJwKPeNvB7Zu/PLp75cteaMv2sJvdpV13qyu31tZrFzr/Zu1vJ/6jnfDvf7ZPH/31dtjXPtpdJyProD32bje9yvXONagiYEXAOtcY87r+Ij/96U/bRS5ykXbhC194XX+Vc139jzvuuO7Mustc5jLnundbLi907LHHtgtc4ALtohe9aPfKtob/8Y9/bFe84hXXSQQ/+9nPuve5xCUusU7WP5Ve9wn86le/auc73/naxS52sXX/ZfIGy56AOf4Xv/hFu9zlLtc22mijZc8jAEIgBOaHgO2Bj3nnISvEqyfd5v5tj+vuvGAFT/j339szPnJo+9oxR3XXPf/Oj2o7nUtErAhYa1nAOvLII9s1r3nNVZ6yNs7A+uxnP9tOOumk7lkOceNYXvrSl25XutKVuv+nrB4BgeJrXvOa9pznPKed97znXb2bLPIpB+8JRp2H5ly0eS7PeMYz2s1udrN24xvfeJ6rOdO63eUud2n/+Mc/2qc//emZ3neWN/vqV7/aPvOZz7SnP/3ps7xtO/nkk9uHP/zhdu1rX7sbS/rl9NNPbx//+McXfN4d7nCHFb//85//3L7+9a+33/72t+1Sl7pUu+pVr9qufGUrR7MtxKmnPOUpbZ999mlbbbVVd/NrXOMaTV2e/exnd///xCc+0fbcc8/2u9/9brYPP5vuRujefffd2+tf//q19sSPfexjneDnG3nHype+9KVOQBvahWvPOOOM9oEPfKCzm6FI+MUvfrH985//XLDe17/+9RcV50444YT2rW99qx1//PHd/bbccsuuva91rWu1TTbZZK1xmfcbn3jiie3xj398e+Yzn9ktiqytoo3MBc973vPW1iPONfdlq5/73OfaLW95y3bBC15wpfcyxi42t/TH0XMNlDl7EWOIRSpjytqYl7zuG9/4xnbaaad1c09KCIRACExLYJ93vKAdfsyR3eWvvc+T2nZbXWXaj7bnfOR17QM/+HJ3/fv3fn67zBZbTv3Zeb0wAtYCLbOmh7i/8IUvbE996lM7527vvfde6UlrQ8C62tWu1v7whz+0S17ykt03ERCz/vKXvzROpkBi8803n1c7nOt6vfvd725PeMIT2uGHH94F3WtarFqf5zzn6cTFKuuSgHXDG96wEXQESLMuRNidd965rb/++rO+9Rrd75wUsH70ox+185///CuEmEkvYpx55zvf2b773e+u0bsOP/ypT32q3elOd2rXve51G8GiXwTKfj5WjD1WtP/6179249Hb3/729vCHP7wTJYgiRKZf/vKXnTh817vedaZ1PuaYYzo7etnLXtaJVsq6KmARZ7A0vvfL2SFgyawhUn77299uV7jCFVZpo//7v//r+I59EYk55z73uU9nO29605tW+qzPyHRQ2AZBk4B/oQtdaMV1L3nJS9ouu+wyahe+xVfbEmiIAeq5wQYbdCLW73//+2Z+fc973rNkm/ryl7/cbnKTmyz5c/P2AX6Aed/ctcMOO6xx9f72t7+1n//856sImRGwpkdLsHjHO97RXv3qV7d73/veK33wT3/606jdGT/Zs76hTScVYzQhMVlD07cHf27bbbddacw5OwSsO97xju2UU05pFgeWWv7zn/+0H/7wh13fnvdizrJgZZEqJQRCYM0I/O6vx7c9Xrlvd5MX3fUxbccrbbfoDX/4u5+3A97/ynbA7R/Yttvqqu0ur9qvHff3P7cdtr5Ge8k9/3uvdblEwFqg9dZEwBLYWQ1WpCObdPplbQlYnHkTc5XvfOc73Yrf1ltv3QUhycQ657vrbW5zm3a/+92v3f3ud19RmXVJwFpbBK1CX/ziF++cng033HBtPWa17ntOClh3vvOd261udatzbMVWsEUQ8seWu2nERdlqgoN73vOe7fnPf37H/FnPela7+tWv3mUNVXnxi1/ciRCCs7UdfK2rAtZ+++3XjdvPfe5zV7Lds0vA8tDrXOc6XcbacP5YSMAy72hT2QwEqknZqzK1LK484hGPWOUdJ3VWdvXJT36yyzZ85CMfudJl5t6///3vS15sMD8+9KEPnbkAvFoDzpx96NBDD+2yOwli/RIBa7qGYuMyeyz+EKtky07ji8lW1Y++9rWvdQL8WOE7WBBwBEGOH5iuPVxlZ8TrXve6lUTZs0PAmr6Gq14pe0vG87Afrsk919ZnzVv8OPN+SgiEwJoReMaHXtM+ctTh7fzn3aR9cd/XLHqzU04/tT3szQe1o35/TLvxNtduL7zbY7vP3PDZ92tnnnVWe9HdHtN23GZxEWzRB52DF0TAWgD+mghYtkwI9pT3vve97da3vvVKTzq7BCwPNYFYrRZE9INEK+tf+cpXuu0XRJWxDC3BgFVpE7sgZptttlmFmFVCmTOC1p122mnFGTN1odVyLGQvWSWvwqlztpCMjBIs1AV3GSc+Y5VK3WSVVZG5YQuKDLMb3ehGqwQqfv75z3++uxx32U7D4jmcSDy23377Vercv74y2TignE7va9uRDCrBPJFQJolgrp9VNWZathHY4nLwwQe3XXfdtbvE+6tjfwuhbYscUjz9fKxYxfOe/papgNlCxXtYSdcOGH7hC1/ouI5l0BAUiKG24XhXwYv62o5SK8K2qGo/WRPDOlZWBZvq29VRRx3VCSHbbbfdKhlFtibKIrLtFo+NN954pbNV3NMWDMGp7Jottthi0aHTZwSmP/nJT7ptTt61bI39e5dqx7pZta939Y4KAQszQbz0f/ZOoKntaX1bJ8BVpp7+ZSXSdstJW3n0Le0owNeOfXuVvWQLluCe4Mn+Jp3Dpf+pYz9L8De/+U13vXciJPg/mypxfTGA+omxTD/U/tpHkL9Yue1tb9s9S1suJHjJ6mALH/rQh9rNb37zVW6LpXe6/OUvv9LvZDGyD4Jnv7if9tTG2lZmjuuU1RGwjJn6wLDttNm//vWvVcYe/faII47onms8KPvp15H9C0yvcpWrtOtdb+EDNbUbPjvuuGMTECj1Tn0BSz+UeSdAnnQeEXs35unbxtThNqaxNnUvWzFlWNlC/ahHPWqlyyYJWJ7FxrTrAx/4wLbXXnu1xz72vw7UsCxVwHLPe93rXl3w2V8EWMwmsTQWsCmc6iw0nzNO3P72t+/myI9+9L+Hng7HLgK7TBf9k62WXbmvNjUW9OdX45Txfpi5pq304/6cZq77xje+0dmT9q4xQF1lXVz2spdd5fWM5Wyw5qX+BTW3ekbdS182TrNJ/cccyv6MYwv1UWz0fXV+xSte0T0GO/2iL2CZJ8yFN73pTVfKaunXCyvv6Tw6DKc9v00W6ve+972OmTl/KHa7rzHeeKNOQ+Y44ciecZBJKtOuP364hm25/3C8qXdwD1v9hjawmO3pm55n/rO91dw7KXO17qV9LX4ar9VrUjnssMM6EdfCpblYu/Rt2+cIYNqc3Y9lUk66t7nLffVl/t+kRQa+irbXnt5z6HOxDffZbLPNut8PfRXzHHv0e77xWFH/b37zm924Jatw6HMQBr0nW7bleTg39O+pvuzkbW97W9ce6su2hgKWOZNdaIO+79q/l7prT/XilywmTNYiUI3TxhXjhL7PV+ZbeBY7rBiknme81bYvf/nLux/xgfrXGHP4SH6G47DO5mTzozp6N+OWxQDF2Fe+qHFShqx5Z5K/wZ/UF/gt+nLfNjBjuxa/Hve4x3X31x5re5FqsX6Y34fAukrgBs+6XzurndW+st+hbeMNFz/K5o1f/XB7xRff2y666QXbxx79khXj0h6v2Lf97m/Ht/tuf5v2yFvcY13F0dU7AtYCzbe6AtaDHvSg9q53vau7sy2Etp8Ny9kpYL3qVa/qVqpNUBW8OzflSU96UueEcxp+/etfd5PNK1/5yhVV9R62gTgLQEBi0uf8cMZMgBxbZ8y89a1v7ZwGTg5HRcAtCCh+HE8BvM/3g2uBFEHMZFlpxtLgZWgIFAhnJkeiAYeEk2qrkQnaszniHA4BY51XsO+++3ZnwpgsOYDEnTe84Q0rsj4EwxxsE7d6ChBwefCDH9xs+RwrtqI84AEP6Bxfjhdnw+TM0bjb3e7WnfWiLt6HU8qZGSvf//73m/RxjhY2FQARLzjMHDLb8t785jd3z+BoqJt6eud+VtL+++/frIpzZggqnCgBrp9PKu9///vb/e9//66dbWXgQHGmOLwyYfrBIN5EE3URcGgHDqp6EgIe8pCHdL/XXtpiuLXsIx/5SLvHPe7RZR5iVbbkHb3X0Ucf3bU9J4otERGJgARTgbmfcRqtOCra5qCDDupslVOGoXsecsghE9+XQ6wOWHumIIgdY4mpIIrzyjHur1xz2tXZtifbnxQCls+qP9vm1LEhwgYnrs4A+sEPftCtmH/wgx/s2ppdsA/tY9uUvtIv2oI45H7anL0KSASM2O22227du7qPdvLnxz/+8eg7y3QS1Otniv6CF0bEQX2UzbFTq8/EtUlOeT3APd/ylrc07/WCF7ygy5BhMwtlyLEZtiFDZrHtS/o+p19Qr67D4uwtgll/+wwnXCYXAYj9VHEtZ5zjjaMtd1ara0vY6ghY+oix2vbHfsECa0Gzon6ew36NRcZTdsSG9thjj+4agppMOu+q7oJt9mN87G+dq+ewN/ZpTMW7xlOr7/onmyXkGFe0D5HDcwUh7t3PeNIm5iEBhEBLX8PK9s2Fivc3brB592Dz/bOlJglYzvEzxhD0LKDoI4LLsbJUAYtNYWNcmiYbUD8g1LALQao+rF7EYotLRAm/1z6urbZ49KMf3R7zmMd0P5MxW/1eXxZ06ld+ztbMa4LK/hhqHCBUelZfqNHXCQ7agy0QFcxL7FO7GM/NWbe73e26McDYqD1lUVcR6BrTBJjaZ1jqywkIJiXGCDLdy3voQ4Rp9isINpeNLU65r894B+N8LUawff2iBCxjiXHJuIkz22STfZHUvGi803bq7p4WmNjzpKDfmE1s9b6ENvcWpOvr5nHFmKQ/snd9jz+gXxE7SnjWNrak+j2/Qntob/c0RmCjn/FhsCEimtOqXmzgvve9b8eOUGmsZgMvetGLum2yCxXcPMeco08Y7/gJlZk66bPGPQtHxvNJ4y2e5jOCgXbUHzC1TVEx/vAL2Dg7MD7oA95jkkjncxYC1BNrLMyR3pefUIKH67SPeY1vZPxmx+xKGyh8MPcxbpjDtKNxDOMqfDrjg/qUuMseK+PMOKqt+WrGdNcYby0COppDf9HX9BGc1Vl9ZS6bS4eF32RM0obsGVvPZp8lYGnXJz/5yV37mzPVwXuaC6uwCX4B/43de6Z7uc9wu3e/DnwmrEqU5Kfwy/x56Utf2o0lnmdc8X7q6t/GfO2njWuudJ6jOYCNmWfcy7vo/8ZVAl1tw65x1nP5TsYx78/HVPQJ9zvwwAO7+2knrI1X5qiaT/yOv2zcMefoRwrfxvxmHMBKG5krSqzkE+kDKSEQAksj8Ivjf9vucegB7Xwbbdw+//hXtQ3W//+JIJPudKODHthOPeP0duCuD263v9b/PxbhW8cc2R7+jhe0bS9+ufamBz9jaRWZs6sjYC3QIKsjYHE8iTomN6KNM2nGMpvOLgGL08FBNulwKE3InGLiAMfPRFYOC0fVCqugnwPC8fB3HcDLCTLplQhFpDPBmpisFplYK8PDvSroW6qAxUkVwJtMBRPqrt5W8PE1cQpiOBaCe46bFTTOCgGI88Pp8jkBSjmCnEbtIaOAGFPtwsly7aSMnjEBq1bbOSvEAPXjPKi3967sqqF5cZA4kEQ24leV2kLIyfN+nBXBZmV2cVQ56YosCsEN/hwGn+WEc6Q5U959rLgvJ9y9BQ2ce6togk3/56xUcQ2nVEAm+wKrcuZLwBKEYePvyjaszwvsOEaVCedeAhfv7j7EI0Hj0572tBVZHXVmnPboO+ycNoE8Z7wyAXAnEHFGOZHDggmnknMsa6gy59zLz6sOSxGwBBMYy0QRBAsaBAucdv2EDepj+oLAXwBUq5cCF6IfYbZEHUGGINZ12gwfgh0RkjNc4w8nkRDOaVyoTBKw1IHTSmTDRX/Ut9nMYgITO3CtsaIE5xIlx+oiQOFAe1eO8GKFKKnfCmbHisBHG1m997diXCBqC1jUpbJTZH3JQnOtdj47Baw61+R973tfNy7hrE8Q0qvfCJLZDTvWn9gPAcL16jyWKep99RPzxdgWQr+3BVPwY+wQ+BjnjNElGAkozEUCocqeM65oW33OmDCpsGPjjOwLf7St8bXKJAGLGEIAImSyN/MNoW0saF6qgOUezlJbyhl87Mt4V2O8dxDwCZy9gyIDi41X8F3vqE2NZ/optupLwDGPEEOIItgQP4i2irGUyGosEBgapxSiCjvABCN9nohE0NT+AlVt6fPu7ffsG8vKwHMfdq/vEjfGspgmCVjmPXVnr8RrogDbMI8QeCaVOqNubAuh+do47ownNmhOxkR/FEAr5gJi18Me9rBuLNMn/Izo630njRWCc0zMqeZD/UrAbOGmsjk8j59T40D1AQt0Ze8ELPOYxTGLdPohkUb/w8HPLBaoF2GUIMJX8A6K95ZJSKgzVrOB1772tV29tZP2m1TYlLFXm/Ol1MVYjdskYcoCkDnf34udyUaMMk8b8/oLMfq9Pi77HkfPMreye2PP0M779ScKsTG+DT7s0CKe8bjGlRrrtTVhhx3iwqYqu1C/MCYbryvziy9Qv9cmfDo+jf7gueprjsWHAKqfaxNzZ4khnqENjZ2ezaYshpRg6ZnqMsmnM2cbm/kn/S+oKAFLXywhil9rkan84lqs0h/5VPwCPoW66wfex8LKpMylMQGLX8OuCLPeGW+LTsaN/uKNsYqd1wJ5tZlxnC0aX4h4xZHvo81wq3FW38HYnKIP1SKA9mP/OBu7/Nt4ob5srARjMYK5iHCKhfsaO+pn/EP19x4WAMxPKSEQAqtP4FvH/rA9/O3Pa5tvsmn79GNf0dZf5EvZHvaW57Tv/Pon7cpbXra9dc+Vt/D++Lhj2n0Pe3q7/BaXaO/e++DVr9QcfDIC1gKNsFQBy8pPfwuZFb1J2zTWloDFqeDcE9A4sZxuwpPJuJwbjqbgj1PQX/kUIFplMflyqgVOAmorWWOFMGYlyATeLyZdQTiRQqC2VAGLAyrLa+jccYA40oLesYIpR4KD3i8cLM4H50IgbzsLHgs5nf3PTxKwOOP9VVTONadF1s6kYGAxAcs7EkH6hdClDTk3nsEp5Gxwqqr9OBGcQitcHJCxUgKW+/e3EVSwT0goMagy3mQQDNuhL2DVFjMrhxxchSjm/oQxAeykIngQjNaq5iQBS7Alk4BN9jOGfN6zxg4tL06CSpzGMo2WmoHFzvXpfso+J5vjyREWoJWARSwgZFdRHw6zVV2Cn/YighLE+vZcY4hMwgrq1lTAEsj50y+yOQTg1WZjbSRQEdjiK7hQZ+0qAB/75ju/dz1GxpCxjKr+cwQcBECBYGW6DevhnoI+Ilo9k0Ptc/qyPs/RV/R9447+fXYLWBYCvDOnfmwLHwGF+NEXTNTZZ7ybQGHSeLSQgFVCWX9rhnFOQC7QF4jpg8b64RmIxu/aVjepj5aAhbkxU5BPlCiBfkzAIgx4V3aj7TzDdf5dgkb/eUsVsPQjIkB/XrKwMpwX2MWkbyLEzbu5xjiujAlYZX9YETSqCNCMweogw7kWrogy5jwBpsBNAEk8MBebW/Vp47DxbFIxf1msqOw+ATwBx1hTW1KNrVgSIseylyYJWMQgYkG/mBvZyjCLtn/NQgIWn8Mc38+GI0oRLcwPiqBX9g7BrX8dUd44I5NnrPBVsCIMTrPlte5B3DMe1zzMXrAfSRWk/AAAIABJREFUnrVnHCGADecQIoDFOX2nbMCinIWIvg2wReJRbekaewfZPOaDejYfQF/wc7YxLGxZfyF+sqvFyiQBy3ZfC3hssj//GQtk5RBx2fW0hX9g/qqFLmNZzc1jwrQMJ/PMQiKceQVjAm0V72/O8+7sTj+S/WmOHROFLKCyI/XhG01TFhOwjCX9L16q62V98a8VfqXnmqv7hc9hcaoyb4f1GROwZCwNxWiCPx9HtnodVTAmYBFvPVM9tE+VyiQ3HxhDapzlf4z50MYzC0/9bzEmhIkbCI31RR3GdnbT363hmf2FhQhY01hhrgmB6Qh8/KjD24Efek27yKYXbJ/Y56UrPvTqL7y3m/8futN/d4oo3/7l0e3R7zyknXbG6e2ld39c+78r/nfht18IP921T37zdBWY06siYC3QMAsJWFatCT61v9tkLQgTiCiLnc+xtgQsk1al6QqaiBoc0/7qvtVwE7LU/H7hCAnqrdLpFCYszjlnh0PaP0+KoGIlxyqUQLhfBEomaY6Lv5cqYKnzMNAp4WchrpweWxGHX/ku48EqphRnK3OcDs4bx1M7mowX2ooyScDiOA3Pa+BAWZXqBzt9NosJWMSqoThgFVlmm4Cgto5o46Hzybn2fhzysaCmBCzZPf0zfWqlUhuXw4+h+1upG5a+gOV3RBAr0+wNR4IER4pD1t8aJVDxM8GSetqe6l61BWZMwCqnS3A/tFdCHXu3wjj2vgI1ASbnTptr7/7ZIEsVsASUY4GnIIZdCoBLwOpviy1+HF4Bi9Vi/YfYbYWf8FJFYE0M5LjKkFLWVMDqb4Ws57BRdlXj19gwqK6EboFWFXUiUAuch+dC6e+2l+Be2VKThlfBOF7atH//ses54La6EcY463gZq2Q8ErHYFYdZ28qGYFNnt4AlSBTMyQwwpmDX/xp29cdaUNTf2kfc0ecEX5Oy4RYSsHCuLMdi51n6n35GfDZ+m59kbfaL8YTYZLyfNP71Baz+1hF8CZRDAcs1BE7taxyrfklE1s99bliWKmDpNwKw/tYtQkl9Lb0A2zjj78qy9QxjvucTEmSgWJwh7NbZXGMCVgWBhFmiRr8Iqtmi+ZUwJAAktBg7S5gwphErcDZOmEOJwHWWlPvV+UDq63n6nLGmvqXRtlTPMadg6/+CRcJbP9js122SgKWOw23MxAN9abhw0r/fQgIWOx/e0xjn3XFmAwJj4m5/+5n7E1NkjbDBsUUGWURYEjVkQPn38AwnNiebSMZQzS0ypti9uUghMMnqwbpv6+6nb1TmXL2zIN1cLENWn8Zb2w2/UY0NaF/vNlYssBBxiGl9kYYoIyumxvj+Z4nhFo5wmXT+Zf/6SQKWLBp9dLh1d2yRZKzu/Ah2gSkG5j73YqOK99HH62iF4T3qrDri5NgZbq43h5gD+2dJEk20V32pg/sTWfUJWWn+yAyrYi7FjD9gDDb+mj8XOotqMQGLWN8Xw2qM4hMTj8uPIzwN7ZF4xS+elCE6JmBZOBz6beZYc1llfnrfMQGr7BOj/rlf5UsY1wjg9Q7+Xd/M228zY4NxCcMq7kE4xld/ri+nsugynOP1BQsc/JcIWJM8n/w8BJZOYFIG1k7Pe0g78dST2z2uv0t77K3u084868y2yyEPb/88+cT2gBvt2va+2aq7U5KBZVRbzbI6itlqPmqNPzZJwJIWW1sCOJACE0GIiU0hBCy0IueatSVg9b+FUMYOJ59z1T8s2EpibS0cg2RlpZxJqz9WD91DOrZsGc5YOUHShodZNoQBDgaH2+Q5ScDisHN+h2dgcRKHqzs1mU867LmcIduGxjIZ1KdWzpivgFHgzIH2Plb7JqV8TxKwOJjDsw7WVMAqB6nfLn0BS7sJ4Din/QC5rtdunJCFBKxhZiAenBd2QZRTBGHEhbEAaShgcWxtQyGMsT+2zeGvPiKIsSVDoOAZxBOBsT7C+SNkKWMClsDQCqDPjH11NAdfFtwkZxUvwa5tQOxNYGVlGqdJAhaHWb2GZ2BxFDn0w8JuZFpwIEvAGsu+7AtYAhvtOPalB+4vYK0VzzUVsPCtczCq7osJWITSyp4ZBpaCTQFr3wkWMLvnQmfJ1bPrLCgC6TBbcmw8EpiyLyKR8Ud7EwQsFsgEwtpYJ8DVxmxibQtYbIp9VJaMegsQZCkYS4ybghLjmOwo46RxlI2MiUVElLH+7L4LCVi2RA0F76GAhR3BuLbKDRn3x/vh7/oClt8Z92VN6M8CFgsDxviyVX2dXQuch++p/4+N30sVsNiZdp90/l0dal0CFlsQcBGzsGTX5jJ1lrFXIu6YgMVWPU8/7Z/fWJz0/cp6MG/JbhBAC8hlYdXnLPIQL11v3iEIlXhpjNVG5hLsCFhEyRKwPEvQ655EN3MX4YXdT/pmx0kClrar85HqHdZUwFI341+/DAUsdl9b88b6uDlr0hZaY5E+5d2JIbZzep7sOvZG0MCMaFFzC3/M//sCls+Yo4YCFjGC+N4vfQGr/JRJNqBdhhmudS8LO4Tj4Rl32p4YUFtb63qisoUWC3jscZoyScAyh/AT6ksJ6l61YEVUHDuHiz9gTNEvZIGxS3OQMU1GVwlYBD4CnDFhTHws0X64tbH/TvyFSV8qYmwpIRgvoiTblS1n/FHH/vEc+ozMRSKb9ybUTBLOFhOwZMb2x+OhgMWOPMO4MraFV9tNOkZiTMCqLMi+HzOtgFV93fPGsp61H5+n3qF/LmS/LbyHsbP/hVNDAauOEbDYMpZ15+f6ZwSsaXpurgmB6Qj86Lhj2v0Oe3rb9LybtM8+zhlY63cf/PovftD2f//L20mnntKJWPrde773hbbZxudrb9/z2W3LzS+8ygPe++1Pt4M/9dZ2022u3V7wv28mnK4W83fV6uhJ6521zAUsry/AtWKiCPQ5HorVNquBCx1y7LqzQ8DyHCsiAnUOXk2OJn+rfyUcTGOWHAir0JzQ+hY6ExjHWyDTL7ZaSZ+ulTcCh+BJsNffYmmVnKPIWajVbZP7mIDFibVaR+SYdBYQ51XQ6IycaYs29EyTd/9sl/7n50nAMkAJpDg8tmQspVQGVmXm1WcJEgKr/pbIpQhYlU1k1ZGY6V7EyxJNBO6ChxIX6rmewR4WysDS17R7bb9ayvsOr7UyKLASsMsE4CASNofZRBx14kp/+yy7qm2M/ftyCgX5hBUrydMKWIQ1nAQQBO+FyjkhYMm8JMgLoofniOjLgkDBmb8xEHQRqvXxSYGod2RrRExiJGYLrZIXk9pSIruKfRm/ZGVVNqIxQQCsD5ctzUrAck9j3PDsH21mLOwLWP02FEQR+NgNlvqDcau/HWRaW15TAUswhfMwSJ/m+UMBy2e0g3sSDbWDeaEELO8pE4q4Mjz70Rkqgi1ZNX0RYakCFtHOoof5Y/gtXeo3FLD0S2NeZYi6xjONK4SlhTKwCH/GW32h3nESNxnYAmNbWAX/5l3FfESorTGC+CortLYfm4f7mbzshTjXF7CIEMZ8YxXBzLsMM+/69Zo3Act2apmZlaE+je2NXeMebE972DIlkwkvY3P//CfjtwyRWQhYtVjHVvrnkE3zDgSY+oa+/vV1qLoFxhKRzAnqbN5cbAG0f69JApaxxyKbsbA/zloI4GPVFr3he7AtC3HGVSJXFYIU7iVg4UGMdb+xL6GQOUS8q/PexnjJGCJK6dPTFvUjbhGPhl+u4R76rDlG4YOOzTFrKmDJEjN+mHcIqEspsxawan40vkzatlhjnjF5TQQs/qf31g8WGg8jYC3FInJtCCxM4J//+Xe73Uv3aSefdmr78CNf2C6x+UVWfMCWwce864XtlNNPW/GzPXfcrT2kt62wf/fdXv649vu//7k99fYPbrte+/8f7r4utkEErAVabbEzsAg4sjKqcMqt5k1Tzi4Bqw7ydNaHzDFF9oA/fje2qjyp/rVtsL5+22qztG1BXD8gsaJL0OsfzGziFNT1M5asMsoumkbAUieCh6CfoDSWxcAZ5MgSEBf7drX+O8qk8C6TtjHMUsAqx4nTWmevqEsd4r5YBpZriS+25HBMl3IuSAlYlRlXDGTXcSCJL/VNV0sRsNzHyiehypYLDml/pZsTK3Cp81BcTzgkAusHJaQKRAQlBNL+SiJbFQQK/Kb92vVJNsx5JFpZoa8gb7jFwVZMQfhQwGLTtnbUtyN5BgdWFkexm1bA0t7uI8PM8xcSvLWJANAq6kJl0iHuq5OBZYsq4WZsC6l+TETyN5bsSvaTvjcpi1G9jR+yXwQfAo9pxKt6XwK3tmP37LcCFEKB7R7GGoKKoEaZlYAlCHQWiftXfb2H+sh+mSRgqYNxkA0JgOub6vSPpQbBgnEiVn/bmfsL2KfJwCKGyPIhni3UPmO2NSZguY5tmD8qG8q4VV/SYAV/uKjhM8Z5wbmxoR/wLlXA0m/xN957t6FgOhSwiEVEtn6dHJrvZ5VBrX7aWrBtnOnbpusIAcavSRlPPm98kFkloJVdU8/T9jgaB41tlcVpTNSPZDX0v+HLexFH+wKW+5s72ZTxxhhb2/rG2m3WAhYhZixTqb6FcLEMLGOQzDRzcx2CPY2fNHYNQVJdiFm2NhEK+9/8yw7NLdptFgKWOmgnommdZTZN3Ym4ssHZQX9bVn2WEGnsrPO/LDbqI8aaabYO1n28u+wb9tLfQmaclPVnLOzfz5hEtB3+vO5XAvXQH3JUABG8BKz6NlV2L9ttrBijZJ/W9t7hNYQyCySyCqf5RtH6PH+Wz0GsGptHSjxjG2NnEhKgjEFDMacOcV8sA0s9vLNt67K7l1L3NRGwZMTxjWrBXD0sLssCdD6eMX7SAtIsMrA8j0hmLNT/Jr23OvH5jYX8un7BXpsttNA1Tf/KNSGwnAg85I3PbN/73c+7V/7WAW9aadw7+rhj2oPe9Mx2xplnto3Os2E7fP/Xj6I59fTT2o2e+98vbnv7ns9s22y51TqNMALWAs23mIBlG5A04srEMqFafZ2mnF0ClrpYpRSwc6h8awsHj+PJQeHMWBn3b+nhJkGTjjMhODICZw6ACYmTxJG34iZ9v1LrZWRYBeSEc2QJGcNMKZk2zrYSgPqs9G/XCQanFbBKSJLxxoFxz/omNYGZc6KsYHJerUZZZfTOVg45verpud7fO8pCs62FQ0GMrK81HrbfLAUswgVBwmqrIEW91YeAwcmcRsDiAKiv672n7CSONSFOCvekby0qAavaCQOrw5xzbSxLr8pSBSyOn0wh9uUd+ud9VFZGnZHAQXc2FSeGoFECFgeccEKUcOCuwI+tyLThoHF4bF0TPFt1dF/c6pum+u2mb8qAYYeEIs/yfBk8mAkW2J73JoqxdQ4XUVVWCdFhKGARbDiPtlnaiiNjzzYKAaf+5RnTCljq6h3cp1bD/Vtwz+HTZyuoJcron/W11ZPE2VkJWLUNjDhdQtGwT6izjBDsiQnqXpksw2vV37u4Rp/T74fv4Pfaa5KoVV8Hr9+wdXamEBQFqsan/tlusxKwtLV+on0FcAIEAhThytbAErDqPL36ZifbXLy3bcuVEWqbkew/zPwbC9fpL7JWJwUDhApBqjFWv8RAv5hWwDK+aEfzFJs23pU96VMLZQBOErBqDNJPKjtJIO45xtyxrSzsSl8bjnFLFbC0u+wRgq45RVYl7sR8NoC3MaW2EFoo0HcE3/gR7GWWsBnjQW0hZGPaizikzY0h5kP2xnaN24RX9m4OdJ2sK+NvBZLqg7ff1SHz9Y2oxsh+xlfNnxYkZNPqE/wHgaHPDAUs4r5ticY8IttCQfOsBSxCnz5A3NffLMTwj6YVsLQxYdMcYw42hxP5BOKyyohyY0V7GBec/cVWiUjmK6KIfmRux8XfxiOBNX9G29UXRLivjKbV3ULo89VW5is2YPxjA8ZqwufY4eH6emXSjY1rxFJzdR2qb16zkDbp/EBidf/LGoqX+ZGQoj/oC+zaeGr+5CPxEwi2+p4xhG2rc23xH3KvLfTa2VzpXupljmRXJWB5jvkaB2O6rWN+r68R6hXPsrDAH+BLqhMbrsVUY0YdWI8XH4LoxNbYHHHLWVL6LTsw7rMXdqd/6Weu1XcIpMYd4wzB33sPv7ii/658KPUneBuL9aulCFjGZHXShuyAL6fu7Mz7D8/GqmeviYBl3mDLbFAmoj6k7sZ2wrAvlNG/vJuzQV3r4HltOCsBq+xW7MM+9AnzrcUuc1WdQYsNm+E3GTPZKfv1Oe3qdykhEALTEfjjP/7Sdn3ZY7uLn7P7Xm2Xq++w0geP+9uf2l1evX/7xKNf0jY/3wVWuSnx6haH7N3+c9op7Vbb3rA9647//TKKdblEwFqg9RYTsHzUZG8lhhM76eDusUecnQKWIINjYGIRKHGmBM9EoDpolzPCSecIuo7IYHXTZGXyE7CYqDk9/SwYjp3rTFLuaxI3kTnXoO+0uc7kVodgc1o4H8SFaQUsTj3RoL89g+hAVKutiSZtDo/35NSYtDmGnkUEMWkKXtSnvu5e/a2GTlr1nKWAxRZk7WGpDrUVy6Q+rYDlHlbtOe5EN5y1Hxvk2EzKqisBi+NlRZQj6HP1rYn/j707gfetmv8/vppLgzQPojSQIRUSGlASkZAplFKJFEXlpxQylFJCokGphCISTcaIooyhOUpKiuZ5+j+eu/+6dtv3+z3n3HNO9wzv9Xjcx733+917Da/1WWuvz3t/1vq2t/yMVMDSN1Uw9Ja9fX4E21FXTicnxGKb3TnbiEjS3spat/lpE0eknslFaOQoc6CUpd7K84bdoq2blGlBb4GlTPlxxkWxcIaqbVqMWwjXX6HCkI2LluAIVyfUgt8490bd4tSCjW0RbSwqq9g0EgFLnTmpnOj6NlPbLHC1uzqoHASLVf3FZqtg3m3zWAlYBDnbAznJ/SLDOCTsiSBCDByUjFnzQr8zntxLjNG+fk45x4JDoG5EyZrMYxbQ7uM81be6YyVg1XOKOAGEI3MKcdFcyamrAhYBwjUcCswITERYc0ttE2EDMwKOPtTXriVaOGC6n3jHISOQmbtcb4xzzocrYGFFsFJvtl3nC9w4Xv3OxnJfPwHLdzXSqQpYbMJ8xInr14+cWEIym+Z4STMjYLmP+I4bpu1TDThyhGVjszqlRCKRT/4vkslcxNE0h1QBqwpa5gzXiV7hmEtejhBTzJ3a5lrzEwbtCA8RZpxyz6EqsrqfI+9lixc4lbc6e26aYwgu/u855GULsaIrYHleqC9bqJFF/cbdWAtY6mc+rQIaxxjT4QpY6mlsEHS86JMw9Nw2bvrNIcQJEbjK1ycERfd7ZhnrnGJilnyNTdd4XtctpmMVgaW+5hQ2wI6qDVjnsKVeUT6eJSJU2UivxO7xMw7YTTeKrXtPv616rmOzNULX2hIDydxRhc96npEXNOxxUASMFwPWayKcJGPJPGWdUgUsn+sX84p1o2euMggXdWufOc8cow/Vxfee154vNRE11V1EYp03CJy46W8vrcwx5jACiH72DPbc9NzVH/6tf/yfXRn/7GrQL+Fad4omYpeeT9amIxGw1J+dmT+sH6pNsGXjo9e2SveMRsAiANqKbn3A1j1j6stC8yGxXrsqR2Kv7e91q/9otxDWPjPHsYm6bsGc3REhifj1maOt5jG2Vuc+YpZ+Uc+kEAiB4RM4/tzvl0N+9I3mhq9uu29ZZanhRVDdee/dZf/Tji6n/enc5t6TdtivLL/Yw+N0MqcIWAN6bzgC1sx2/ngIWDNTF06Zh7aFgoVU24my2BCl4m2rNyaDFjzysYAZKvRdXh52gxYWQ7XD/RZWdUHWy1lSjoWJ+tSfHq/5us/32mY//0jCv4eq20i+J8pwcqojN5J767UWkPUtXLed3fyqgFW36FkQ6tOh+mxm6tXrHosv9bWIGsTcdRa7bK57XbVHAkGv82+65bJJ9m1hO+h6DC222eVQW9vYD3bq4M9YJO01hvRF2/Ft26wytWM09jIWdZ2OeehzYhn76CfqcUirk9bPecHOdXXri/yGu925fc/M9oGxJZ9e8/3M5jmr7zNuvaQxVxgb/bb5DXeMuw4nfdidC+pzw1wyVmMfP6IAW+gVYVP51sgHDnuN+nq02Wt/3X41s2W731xmnsNxqOev8WIO1xf9tswTsuozY6j5e2brXe8bLxsYbb0wwAmj7lrNGMHHd8PlY86rdjlo66x6e3bJv84rvZ7D5h323Wvtpyz3G3e9noHWfL7XjvZZZ901nXr4fiibqvexLbaozKHa2K9/2nXXtpnNZyT9j4W69xoPQ60lRlLOoGvrOnrQusX9npt1h4H/Gz+eeWM5f45Vm5JPCExkAg88+ED5yCmHl9P//LAQtd26ryrbr//agVW+7uYbyvtPOqRcev3VzXVHbrVXeeZyq0zkZg67bhGwBqCaDgLWsC0lF056Al0Ba9I3KA0IgRAIgWlCwBYpUVi2QCaFQAiEQAiEQAhMPwJ7f/uwGSLWEgs+rmzx3I3L05ZZoSy50KJl6YUXL9fe9K9yxQ3XlDP/fF7zR5pnzrnKF968R1ltiohX2hQBKwLW9Bv907TFEbCmacen2SEQApOSgPPEbDm3ddGWZluobQtKCoEQCIEQCIEQmJ4EvnT2yeXk3/64/OeOoX847tlPXLXs/cptG3FrKqUIWBGwppI9py0DCDiDxbk9zmkazva7wAyBEAiBEJh1BJwVSLhybqCzjOqZfLOuRik5BEIgBEIgBEJgIhD4xq/OKD+4+Pxyw603ldvvuavcevcd5bHzzl8WWeCxZeUlHl82WHWt8uJV15oIVR3zOkTAGoDU/nJ77sczOSTWwbZJIRACIRACIRACIRACIRACIRACIRACIRACvQlEwBpgGX69zsGp45Uc9uhn2ZdaaqnxKiL5hkAIhEAIhEAIhEAIhEAIhEAIhEAIhMCkJxABa0AX+rUc50+MRxSWX4LxK2v5RbFJP4bSgBAIgRAIgRAIgRAIgRAIgRAIgRAIgXEmEAFrnAEn+xAIgRAIgRAIgRAIgRAIgRAIgRAIgRAIgdERiIA1On65OwRCIARCIARCIARCIARCIARCIARCIARCYJwJRMAaZ8DJPgRCIARCIARCIARCIARCIARCIARCIARCYHQEImCNjl/uDoEQCIEQCIEQCIEQCIEQCIEQCIEQCIEQGGcCEbDGGXCyD4EQCIEQCIEQCIEQCIEQCIEQCIEQCIEQGB2BCFij45e7QyAEQiAEQiAEQiAEQiAEQiAEQiAEQiAExplABKxxBpzsQyAEQiAEQiAEQiAEQiAEQiAEQiAEQiAERkcgAtbo+OXuEAiBEAiBEAiBEAiBEAiBEAiBEAiBEAiBcSYQAWucASf7EAiBEAiBEAiBEAiBEAiBEAiBEAiBEAiB0RGIgDU6frk7BEIgBEIgBEIgBEIgBEIgBEIgBEIgBEJgnAlEwBpnwMk+BEIgBEIgBEIgBEIgBEIgBEIgBEIgBEJgdAQiYI2OX+4OgRAIgRAIgRAIgRAIgRAIgRAIgRAIgRAYZwIRsMYZcLIPgRAIgRAIgRAIgRAIgRAIgRAIgRAIgRAYHYEIWKPjl7tDIARCIARCIARCIARCIARCIARCIARCIATGmUAErHEGnOxDIARCIARCIARCIARCIARCIARCIARCIARGR2CWCFjPePxKo6t17g6BEAiBEAiBEAiBEAiBEAiBEAiBEAiBEJg2BC685vJy/l7Hjqi9sz300EMPjeiO1sUUs6QQCIEQCIEQCIEQCIEQCIEQCIEQCIEQCIEQGAmBR13AeucLNx9J/XJtCIRACIRACIRACIRACIRACIRACIRACITANCZw2E+/+ehHYI1UMZvG/ZOmh0AIhEAIhEAIhEAIhEAIhEAIhEAIhMC0JzBLzsCKgDXt7S4AQiAEQiAEQiAEQiAEQiAEQiAEQiAEQmDYBCJgDRtVLgyBEAiBEAiBEAiBEAiBEAiBEAiBEAiBEJgVBCJgzQrqKTMEQiAEQiAEQiAEQiAEQiAEQiAEQiAEQmDYBCJgDRtVLgyBEAiBEAiBEAiBEAiBEAiBEAiBEAiBEJgVBCJgzQrqKTMEQiAEQiAEQiAEQiAEQiAEQiAEQiAEQmDYBCJgDRtVLgyBEAiBEAiBEAiBEAiBEAiBEAiBEAiBEJgVBCJgzQrqKTMEQiAEQiAEQiAEQiAEQiAEQiAEQiAEQmDYBCJgDRtVLgyBEAiBEAiBEAiBEAiBEAiBEAiBEAiBEJgVBCJgzQrqKTMEQiAEQiAEQiAEQiAEQiAEQiAEQiAEQmDYBCJgDRtVLgyBEAiBEAiBEAiBEAiBEAiBEAiBEAiBEJgVBCJgzQrqKTMEQiAEQiAEQiAEQiAEQiAEQiAEQiAEQmDYBCJgDRtVLgyBEAiBEAiBEAiBEAiBEAiBEAiBEAiBEJgVBCJgzQrqKTMEQiAEQiAEQiAEQiAEQiAEQiAEQiAEQmDYBCJgDRtVLgyBEAiBEAiBEAiBEAiBEAiBEAiBEAiBEJgVBCJgDaB+8803lzPOOKPcdtttY943c8wxR1lnnXXKKqusMuZ5J8MQCIEQCIEQCIEQCIEQCIEQCIEQCIEQmEoEImAN6M0111yzXHrppePW33POOWc599xzy6qrrjpuZSTjEAiBEAiBEAiBEAiBEAiBEAiBEAiBEJjsBCJgDejBhRZaqDz44INl5ZVXHvN+vuaaa8pdd91V9tlnn7LbbruNef7JMARCIARCIARCIARCIARCIARCIARCYOoRuOe+e8vNd91eSnmo3H3fvWXeueYp8841d3nsfAtMvca2WhQBa0D3LrDAw51/++0MY2zThhtuWM4777yy5557lv/7v/8b28yTWwiEQAiEQAiEQAiEQAiEQAiEQAiEwJQi8MCDD5Sdj9+//Prqi3u26/ELL17eu+GbynpPflaZbbbZplTbNSYCVgSsKWfUaVAIhEAIhEAIhEAIhEAIhEC5k3CVAAAgAElEQVQIhEAITCUC7z/xM+WXV/yx3PfA/UM2a6F55y+7bPjG8orV1x/y2sl0QQSsCFiTyV5T1xAIgRAIgRAIgRAIgRAIgRAIgRCYVgS2Omqf8pfr/tq0ecXFly17bvL2ssJiyzRRVvPPM1+5/e47y+333Fl+eslvyqfP+mpz3Ryzz14+tMk2ZZNnrjdlWEXAmmYC1o033licv7XaaquV2WeffcoYchoSAiEwOgJ///vfy0033dTMDY9m+v3vf1+WXHLJsvTSS497sX/605/KMsssUxZZZJFxL2uoAh544IFy4YUXNj/iMc888wy8/Kqrrir33HPPhP3V2r/+9a/lvvvum7D1G6ovBn1///33F3bz1Kc+tcw999yjyWqW3HvJJZeUueaaqzzpSU+aJeXPikL//e9/F/NZ1jmjo+/4jMsvv7w87WlPa2xoUPrLX/7SzKtLLbXU6ArN3SEQAiEQAv9D4N777yvbf+Vj5c//X7za/7XvLi9eda2BpG696/ZywBnHljP+fF5z3T6v3La8YoqIWBGwxlnA+vnPf17WXXfd/yllLM/AIkp961vfGmjEFt5bbbVVOeKII8r73ve+4p555513XKaIM844ozz00EPlZS972bjkP5kz5eT98Ic/LBZ7N9xwQ1lwwQXLsssuW9Zff/2ywgorTOamjbrun/zkJxub3GWXXUadVzIYOYF3v/vdzTxy7bXXPmr75c0TxsDuu+9e9t5775FXeoR3POEJTyj77bdf2WKLLUZ459hffssttxT1Of/884cUfrbbbrtCiPjZz37WVMT8vcMOO5Qvf/nLxY+NzOr0xje+sfzzn/8sP/3pT2d1Vca8/Ouvv76stNJK5aKLLiqPf/zjxzz/8c5wnXXWKYsvvnj59re/Pd5FDTt/65ArrriiGYvjkY455phiPtN3888//3gUMS3yNN+8/OUvb/rKS4ZB6clPfnJ585vf/KjM49MCfhoZAiEQAi0C2x2zb/n9NZc1nxz/9o+UJy89fJ/xkLO+Wo7/9ZnNvd94xyfLkxZfdtKzjYA1oAtHe4i7Xxj89Kc/XT7wgQ+Uvfba6xEljaWAdemll5Ytt9xyRv6iKP7xj380b/bnmGOO5nNtOfPMM8uRRx457gLW5ptvXkQXzMyC2S8zfv/73y/ymOiJ8/3Nb36zvO51rxtWVQlX2267bfOjAM985jPLwgsvXG6++eYiuuLWW28tl112WXnsYx87rLzqRRzGJz7xiVNC/MJRJMrxxx8/IgbT7WJ2d9RRRzUizGMe85gxa/5wBCxlE7nGanyOl4D1y1/+snHau78gO1UELHP+S1/60vKrX/2qLLHEEmNmAzOb0awUsAhLotNWX331ma3+jPvM5y984QvLYostNuOzCFijxvo/GVRB1vNrPCLBJ7OA9aMf/agRTD3XxyJdfPHFRRTh05/+9BFnFwFrxMhyQwiEQAiMOYGrbryubP7FPZp8v/Dm3ctzVhh6Pv/1lX8qH/nu4WX3jbcsL1hljfK2o/Ypl1x/dVljuVXK4Vs9UpMY8wo/ChlGwBoAeTQClkXviiuu2OS+yiqrlN/+9rePKGksBaxuE+riTQj94x73uEd8/aUvfWlCC1hnnXVW+fCHP1w4oBM9/eIXv2je8v7ud78bsqrf+973GsFho402Kl//+tfLnHPO+Yh7OKTsZKTpRS96UXnve99bXvWqV4301lw/SQnccccdTSQIx30st2sMR8DiXH3wgx9shJOxSOMlYIn+FHFKWGmnqSJgjQX7scxjVgpYb3vb25qtYrvuuuuom2QOPumkk5oXDDVFwBo11kc9g8ksYInY98vUIp/GIm266aZNXiI2R5oiYI2UWK4PgRAIgbEn8KGTDy1n/OVXZcmFFinf2/kzQxZwy123lx2P368RrDZ62trl469+V3PP2p/Yuvj1woPfsEtZZ+U1hsxnIl8QAWtA78ysgHXvvfc2b/6dwyCi5OSTT262iLXTrBaw/vWvfzX1I8J422zB7u/uT22KiCK+/frXv27OQXjBC14wZEh+rwis3/zmN42TceeddxbbKkWIrb322s25IvVsBVtqdt555/LHP/6xHH744Q0uDvpyyy3X/PvBBx9szu86++yzmzeKG2+88f+cm+NMGW8u55tvvvKHP/yhKYtwJPxdvs4B8caXA+7snbXWWqusueaazfXd9J///Kf8+Mc/Lv62qNSnVXgS5faGN7yhOWfj2GOPbW51to7tgN0kOmD55Zcvz372s8upp5467PkAj7/97W8Nfxye+9znzji7x1ZE7Xnxi19cRPqpn7qtscZ/JyRRXfr3yiuvbMr2XT3Dxb2267VFM3zPO++85u1vO6pDW21f0l/S3Xff3Wx/VC91xBAb0X7qhbs8RJi1k3Hhu6c85SnNtrFucs6M8VKjZogbbJSYaQuDLQr6SmRNjSzsBVM5otosvtkzm1Wfeo922u7EjkTAGZu+b59vw+4JRJhpPzu47bbbyvOe97zm2rYAqd4EJTz9m22JfnzOc57Ts53yY5fquN566z1iDNT2aLttYgQj14suqee52KL71re+tYmEcuYIlphK7tMmbbcV0PYh33XPL2GTzjZhH97Ma+cee+zROO+9thDW+nCE3CsCTDLWqq3gytlXZzbCJo23QWenVAFrzz33bMa+svW3PiM2dc8cqvUQucEGjQnzUt0OXc8r0qciX82zxrv2+bsKWJw6c9rVV19dXvKSlzRtGOqMF0I1lmz83HPPbe4lSJuf2lEkbJUNsoF2wkb76hitWwgvuOCCpnzbiuWp7uar9lzc3UJYxxK7aNeb3Rqr+tXLC/3PNvtFuaiDMU9AxwbPOr70ofkU33aknz7AwpxWzxIjYGmfFxDs9rTTTmvs31hp38tGzBvqTYg1Bo1Fcwte3T7A2vla7NnzWH8uuuiiDRtRvmzYvdtss80MsdI4MY+wU+3Sz3VuZI/1ud6dm3DYZJNNmmePensmGBttAcu92OLMRvVbey4S7YKJP/oBD3N0FcT0m/lYHtqqPc5+a/e1Z4q5G/d2Mq5F6bKf9vxjHMgPC1zrs0wdMK1bCL/xjW8099uyqj62rHfn6F7zKRsxV+k37WUj+mBQMg71m3FSo+PM33W7q3qwr2c84xlNNmxB/fWddhrf5r0633btwnPB89u6AqfaDn3BHvoJWOZw/axvnvWsZzUsBx2lUJ+zrrV2MTcZp7bKVQba8ec//7n5Tl+a042hdp9ip+3sqp2sw6yF1ENZ2sQm9t1336bt2t2OLBS9bb7wnMHOs7fX2qW9XpL3O97xjvLqV7+6KbqOZ+MHY+3BQ374t8drFbDYLLaebeYSY7trA722ECqDHehP+WrbRIgYHfYiLBeGQAiEwCwmcP+DD5TnfWLr5plyzh5HlrnnHHweoep+8ScnlaN+cWpZcsHHle+955AZLXj9Fz9Q/nrjteWta29cdt5w1h+lMRq0EbAG0JtZActWqNNPP73J+ROf+ETjmHXTrBSw3v/+9zcLfuenEF0sGC3InUtBlKnJosUCycLKotBi1GKJUzNoEdJLwLLYccbRbrvt1izuLRot1C30LFwtjmyJsdBTXnWMOG7eRkr+LXqJ02wxaeG+//77l3e962FlWeJwOEPpYx/7WPO9BaBFmMWZBZa39Z/61KcaB4ADxuFwjQWcutQkUk1dtZMTra7Y2IJZF94W0RZodSG34447NtFt3XTccceVd77znY3T193S1M/8CEwEAFwsYDnFFpvsiuOEg0gYC2DbDjls/q7RYBwn9dVfHFMLXu2VrwWo/ndtO3rsnHPOaURBThxnpyb8TzzxxKYOksU8x1CEoXItgP1bXiZYrF/5ylc2tt9OH/nIR8oBBxzQiJC9HCeLYn1rG4/01a9+teFGINAGzgr2HNIq2HT5cVA4bGxXv+pntlLb73qL+a997WtN3ZWnLfre4rxuHdImQsIhhxzSvLkmTHLE2JR+4aDXpN628H7+859vBDcsODTKJoK1Dyd335ve9KamXziQxhJHRX9Vh4dN6QNOKbGAEKHvKztbLJWjrvqSQ6k9EoH0LW95SyNq+d7YIjrpv5rkz5HSFgImUYVzoV7mhF4CFidWvxMn1KnavGhJbTdmCUH6iB0avxwXtkCs6yc4tgWsAw88sBGp5U3U4HyzyfYB57XvzB/6Dl9lsU39/Z3vfKeJxDEuOIyu84djaByzo9pXrjf/uVde6j7ImWWH8mbH+s+1GLJF9az3EhfZ+E9+8pNHmCf7MAdyWKUqYH3mM59p5iz9jKPP9Vl7DHYFLPkrt302DZu1/Y29e3aZ0/FUXq9zsmxpfu1rX9vMcWzWGCGcmAvZrLmR8M0xbx/sL0+imPa85jWvadpCwGI3xB7lmefYnnI5r3XeUyfM2bK5ko3qB+3RN9pQk3IIhHW8y48wot6eS8aHvlSm9lbHG3eCP3u97rrrGtFbP7nfs4m40U0HH3xw+exnP9tcx56MXWODWFwFrIMOOqh4dpq72BIbZfNeUNXkGebZzh4IuWz3C1/4QjMXq7vnKL4ESmMCM+PfvFBFKfO6e7tRjqJ4cSYm1fHnGfXFL36xaZcx71ljTGk7O/S8Mx+yb/eZ/7WLgGS+Mf/UF0S9nkVswvOmPofMq17oqAuhplfSTuNen6qHOVu/siUvAiR2oz/UR/LcFzVpzved/pOP/hBl/N3vfndGUeYy4wF7guQJJ5zQjBllaqvney8ByzxvrtQWDLTdmoCg131xVwvTP651L+HH+DTnmk+UXddI2mg8sgljSL986EMfmlFn/e25UZ9t9QtrLvMJ4doc7qgJba7PdP2sfhK7wdy4UCcvg+Rbn8vdvvC58WMudA5YHR9sTV29NPjc5z7XlIWD57exyDbqC6YqYIlmZVvmBfl5hji/rL326iVgaTNW5nLzgufzV77ylRliWk8DyochEAIhEAIzCFx+/d/Lm47Yszxm7nnLj99/WJlj9oePBhqU1vr4Vs1a4MDNdy7rP+XZMy790zWXla2P2besuNgy5es7jM8ZlEPVbay+j4A1gOTMCFgWwg4jZjgWs5zNXm/IZqWAxXGw+LMg0UYLIkIQwcHixeLRZxxz/3aWlQU7B55jxQkZtMWvn4CFA2eEAyN5k2hx6i08J0NSN29IOSftxLG2VY4z7O0xvhb42uHa6mARsDjZRBfOLqfStRaoFliEAIsy//ZZjW4hPjlIWuIUc5Asti26XUeQsBgTpeKPtNlmmzULz+720K5JETDlxRkYSbIYrtEQFvMcEmwsTC2i9YPvLeBFlNRkcckZ1B7t4hhxwkS7sTuOMcGE82oRT9iSnv/85zdiGSdC5BeHGjtCC2GLoyRxCjlx1a7VyULZAtXCF3t5EDCqcCEfoglhhqPYK7UFLPbHTrShbg2qEVnt82m6+WgTG2MTRCflc27UCzPOJCeBE+zNtL71vbIt6qujxOFiA8qysK8sRCg5x4zzUA/ddy8HRyQe4U45nBhOozmA2ChxdlxrfmATyiYeszH1Ngalww47rHGA9JHvjD2ihH70b/mw9+7Buuogf/VgD/LngPmMqCV/DEWEuJbdcoCwdj4eJ5ujM+gQdzZSI/Xa7AkS8jemtVvZRF9lG+NVYOv2VxWwOPr6rEbyqQPH2Xxz6KGHNrfpG+3gBNbIKs50jUKqYnQdF6LE2oK8PIwLThSRg8PLPowz8waxUmRFv8TR1w/mK2NJG/WBNhI3tt566+bWkQpY6sDJq0ICwceWYCKGvKWhBCx9wsE2n7ObKhCz7X5RNuydACRSjc3W6L267XykApazCzm16spOcSZGcIqr4FsFLPXkmNctsPreHGNOx1Yy7t3nO468NhL7Pv7xjzfXmU9ENBGcRKy0f/zBGHItG6+HeCtb6hexor4cdOX12kKoHfqpRrTVOdT8V6OljHdzg2cgFvX5iq/nBRHCs0A5ePu/ecYLl/qia7gCFhHb3C2/aifaS8SsLzq0l6hjntfPmBprBBdt9FwhJPUTcNzffQ6xc/MngaqXMG3cEyzYTz30Xj8ZO9UWewlYxBlc2EW9zpg3JtmW7/WhPD1DRFarN0GFLVi/2AYtdQUs84Rn/tvf/vaGtblUf5ubzFf9fgSnCljs1LxqPq7RYOzRM0Rd8WZn9XxCnF2vz6XhCFhsBCOCsudM90dw1F8U1Uc/+tFmfHnG6Hf/ZnO9oixx9xw0PrpbCNkAnnW842EuJZIaY1IVsNjoKaec0jxH2Yx1rfWY9U8Vx7sCFmHOSwnrHoytSzAhAltf9IrC7jv55osQCIEQmKYEnGW14wmfKo+db4Fy1q6Hltlnm20gibce8aFy8fVXldWWXbEctfU+j7j2on9cUbY8+iNlhUWWLie+62GfY7KmCFgDem6kApYFZfvgzUG/gDOrBSwL0LolDALilIWTxbjFJ6HIAoojz+mrSYQDJ9Iis7tFpl7TT8CyKGovoiygCAQ+f8973tPc3k/A8pbagruKKK71NlSdOan1c46oBVUvgc0CSx7taBT5bLDBBo3zWN/McyS8Vbc4ay8KLeyINNhIwxWwLMDd1/2FLgtAzkFNFuRtIaprmhbZ3nhyHCyi+wlYHH7Oiuvah8Jb+Ho7rcwafWQxLxqLkKefOTocBW9JLe7rtpRB/e2NMTGH7eDPocDaVpx6wH2NNuH89ztsuS1gcQSImpyV4W67JAZ5K65N7TfDbY7axJmoolL9jghI8BSF4+12FbA40O1IA2WoU1scUW8OEce3bS+cJcKQfpA41OyUQNrdHoYLUYnDYQ7BsR2V1W5DPwGLiEKg02ftRMQk6ulD/cDWRRK+/vWvn3EZp8R4tkVlpAKWcazOxElCczupj/Fdo466Nl0FrBqN1v7efRwlvFxHJCBq4tLmLIqDsEZ85wAPJWBxAolVNclbBBLRyAuIfgk3c1v7mvqiQtkEW2mkApYf+iCK1sTREylSt+P6fCgBi53qT3MMJ3s4SXQM59Wc3mtb3UgFLEIvQaadzFkED7ZNBKgCFoaig2qqjjshVNSlRMzU7vpioV6rjznG5tV+Apb5G1Nc2s+5QVyGErCM3bbAaaxok7rU5xoBq0YWdX/9Tr2JWqJZ2rbnuaLfPG/My8MVsPD2UoXd1ehhz3Fin23lRHCJgGU+8+KhHc1oDvAM8vlIxATRV2zcPNFLDKwRa+ZUgn6v1E/AMi7Nm20+xrxoIeKU55S5hlDX3o5nviTI1ginroBFDK5Rgu3tiJ6VhK9+81MVsKzXjJN2quJOfe61v7OmIKwSoqTRCljKUId6DEIty7NR5Gyv805dM0jA6tcvXvrpO6m2sbte9BwhjLVtvy1geSZoM1uuL/zkp//Moz5rR6gNZ77KNSEQAiEwHQmcduEvyj6nfKkstsDC5fT3/jcAYL/Tjm58iT1e9t+11NkXX1A+cPKhxbbDQ7fYraz1pIe36bcT4Uc6f6+Hj7+ZrCkC1oCe6ydgcVqIFxyquk2KKGCxxtmSer1Baxc1qwUsi+z2AdBVDCLOWAzaQkcEERnSThx42ypEZYl+6pX6CVje4FlM1+QNJrHJm3NvCKV+ApbFqoVs96BzC9a6Tcn96s6B67VNxAKLk0rEaSdRHsLr6+JXHt5uiipqJ4tmjn7d9jBcAYsjRRjqbgnhmFnssycOVzeKgNPnza6tHxZ+Fqny8be3rv0ELEICwaJ7sDshxdYWbz8Jh+yV40N0cL0ICAt5wqU3rjhhUt+YVhYWp+rLwWX3FrPekIsEcJ9EuOKI1+01nFJv04kvbSfqEZNqZwshQUg+nGx/E2La2zy7tud6DiTRSPROr2TxzCkWBdVO1VEROYYbh4/jq33tM0GME/VpL9wJWEQ520HayQKdo84x9pBhB8SXrl15Q608fUwEJ8LZarbTTjv1bEM/ActYJdzq/3ZiM0RG9xEXiTVsuEaQ1WsJwfXsrH4RGb0isGrEhbfrdUtZzZPjiGcVl7oNqgKW++pZcvUacyghUt1x13fEZU5RO1UBFVv1G0rAMq91BU5iicg0816/pHx2w37aiS3YSllfWIxUwBINViNQa776nngnmlSUy1ACVo2AU4dB58N17cJcrQ+IekSYtk2MVMAipHTnOHOYthE9RAZVAYtdtNtsriC2mxMxrg6ycdzd4la3ibKDfgIWIaf+KIF+JdKb1wZFGg0lYJn/21vAPQtE37TFIvMP4aq9rRDzaqM/+MEPmi2D7aSfsSf+EQWGK2CZq4k27KeKliLEPGM9N4hbkv971nZf6lTRs9+W7lpHY9e1BDZzlOuJ4crv9Suo+pL4TJg1HkX5sbO2cNRPwMK4+4z3f2InLvqIPRDGvfCR6gsTdlOj8LoClvnUGGHnbRvQJkcjiNDqdQZefS6I+GJD7eQlhjoZc93keeeZ6oWINFoBqz5LPAfb4xsPz97ueq7WZ5CAxSbYjnrqU4IsGxFVVl/yVQFLhFf9USJ5u9dz0BrIyy6pLWDh6YWYdW47YtpcI2/jpLudsu/Emy9CIARCYBoT6BeB9eIDdyi33X1necVqLyj7bPqO8sCDD5aXHPSu5rN3vvC1ZZt1/vfHvRKB5Sk0k2lmFLOZLGrUt/UTsDg/1dmq4os3qyI/JE5W9/yfbmVmtYDFMWqf99IVsDje/c7v0hbObr9fzesnYBG+6laHuggaroBlq4SIgV7RO0SN+gac+EQgEI3STRZYFtPe5rZTV8ASYcOZ6v6CmXs4LFVYGK6AxcEhbhCOuodSy7M6Qm0By9tzjs0rXvGKRiglNhI5ONhDCVicBgvSrqNd22x7AyeLzRJsCBwcBA6oSCB15YBwXETGcWTr2SUW5JwPgqJoprqdxphoC1jESoINp4xgZQGvT7bffvu+47J7BpYLHe6rPra7EmC8uSWodX/F0bXVIRsULUYEFXXQjeogyrEjjg8hCGscCVjdcdJLwMKiK4x2BSwOF34iGHslWy+VxykVIabve6V+Aha7x7sdzVPvFymBm2iLGmHWFQaG8yuEvQQsdm3ccdq74lyNHGBjXcFM3aqAxX66/Or2IWIGp5itcRhrtGZtW32r73pixVACFruvzm/NY7gCljm+HUHjfs40e6rCcD8Bi0PvD6dYqlGJNeq13de2uTpjinNs/AwlYJljOJLqMJLE7o0t99omzUknyHHy+wlYtS9Er7TPwGpHp9Y6VHFT/sZVFbDqi5J6XVfAqvd5lrQd53o9YUtf9xOw6nXECZFTbMOcZStr9yDteu1QApaXU3VLXHve7gpYNUKz3Q/YeP70ipAzb4q8rdHO/QQs0Wxsr56BhZkXPuYKn7MT4kA9xLyWXw9x99KpnYYjYKnL0Ucf3Wzl9aLIc8hzwVzeT8CqZRDmPa/MC56b+qGKav0ELHm2o4bl1RawzBd1bSLyyJxNwHGP9UWNzOwKWERrgpNndy8R0/eDBCxiixc87STCWFRzjbBtf2c+8CKF8CP1E7CcQWXrdY327reF0MsbY8i6oNdWQc+0XlF0/QQsc6b1i+eBvjA3i9xTH3XtClhVXG230XW2shNlpbaAVQVb80mvl07K6/ccHMn8lWtDIARCYKoTuPSfV5U3H/mhMv/c85Yfvf+LZY7ZZ2+a/IerLym7nnhwuZWI9YwXlDlmm62c8sdzyqLzL1S+ut3HyqILPPKHtNzzzfPPKvufeXxZf+XVy4FvGP0vN89K9jOjJ8320DQXsDSfw2YhKdli5E2V5O2Vt1q9HOx2R090ActCnyjEgRp0sHEv4x0PAYuIwwGyYByUxkLA4hhZUNaDbvuVN1wBy7lAog8sDus5Oe08uwJWDb+vbyrrtfWN71ACFgGD0+DN9CA7rFtQ1E/kFAegRrBwwupWEXZA/JCIKxxKWxfqQprowilsC1icK9cSxnDiVBkv9XD+Xkx7CVjt6wgFxMd61lQ3Dw64rVfdM8Ha14l+sOjuRtqIHLHtg4BHKB0PAYuzaW4YdGZa3aJIsOi3na2fgGULJGGgfRB2l5EIL85D/aXE9vecVDYx0i2ERAlbeTlRNZKy5svxUy/l9kpVwMKe6NlOhEvigPq4zht9B+sTdtupRknUM3fGU8DSFuJSOxHDiAFV7DTG9RFbaicCoXHZFbDc240YFCkiolCextlQAhZxwBgdKppm0NwpsonA7/woW+Wc72XLNZtq/7qp+Up/24LWFrDMlzXipJYjooOoKeLK2ByugKUMjq+omV6CbM1/KAGrXsdhN68TxNlJLxFgPAUs9ajRrt1tdSKHCEI1gs//RVDVw7trG0QRebHQPsTdWNcH8iQSGR/tKGf3zqyA5TlEsCJwtuts/BGChhKwar1xZVcEQOylmRWw3GtMeGFAUCJceW50o067AhZb9UJBnfv9ImevsVHnll4ClohP7bBW6D7XvPwSxV3PfvOywBhqH0avPC90anTboDOwqkhuXhnJr/j1E7CMcXM1W2oLd6IUCWFdAcsaof3DKXWrquc7oV1qC1jEeWsIc3ivF4GD5qF8FwIhEAIh8F8Ct999Z9n0c7uW2+65s3xtu4+VlZb877E+F15zWdn5aweW2+95+IxPaZcN31S2WPtlPRG+8nO7lH/e8u/y4U23L5us9t8dUZORdwSsAb021BlYxJL2G28LAQvl4aSJLmB5M+cwXeKFhfNI0mgELFEoFu+2QrSTt622v3mr231D275uLAQsb7RtAbDY9paxX+LkcdDqoeqDGGFiEUjA6EaidAWsev5S+7wL1xAYcOGkiuQiEnFaLG5FfdSEESFKO9wzKNmuZtHKeW2fA8JBsGAVoYVDPXhfJJwImPaByXWbWHVSa3kiOUQNVCdYvQZt4RlKwJKvbUcWxN0IqlqmRTSRStRAr7KISBwGzmH73B99KVqDk1V/WXGsI7BECqh7+9DlXn1jbvDm3tzSPUfH9camiKH2Ick+51A5B2nQL4sREAhBtvWJIKjOXLKxRQMAACAASURBVD0QGpNBApatH+y9K+4anyKJbBmrDhH7JO5wknzXK1UBS1SbCMAquLpXVArBoZ4dJ0qC8Gh81F92tJWFyMWJ4khyvtwrP5EN9TylWra2jyYCiyNqDNdtsPX8L31mrEhEF05/3WrsM46kMaWNXQHLGHVv7QvCs3FJLBOxJQ0lYOkTY8O46EaYDnfurr9ex7bqLyASXTih9TBqedXInRpV5bNq1xzs9rgyT5gD2IDxOFwBS562qLvHuOkVHeMa/W8OFMGnX2uqP9zRbjuB3jzcS3BwnTmW3YgoaZ+bVc90Gk0ElvwJePqVAFS3gRECvBCwBbCesUSgtyXVWKrjQTuJSETRKmD5jJjBztvnRnX7e2YFLO01J7e39WEkMpQA3k/A6sXeCz73WR9p+2gELGK3FyZE237Pk66AVaMJMTZWh5sGCVii2L1YI84Z8zUZv8Qqa6d6zhNR27xhnNa+J3B5Nop+rxFY1Qa7wo95xjPYOYrKG26St/vsCmifOWVcWmdVQVF+ngH1lxy7Apb5tX1mnZdFxghxu0bFtwUsNmD9aN5z7aCXoMo1Z/Q7WmC4bc11IRACITBVCbz/GweXsy/7XdO88z54zIwoLP+/7PqryjbH7Fvuvu/esshjFipn7vrwS4Vu+s8dt5SXHvzw0SQn7fDJsvxiy05qXBGwBnTfUAKWWx18LCKG81HfXA/HIia6gKUNFi0EJWHg/uZEcPy9zRx0fsFoBCwLJ4txTinn09tbb4Et9G0lsMixOK0/0y0qSf3qL1eNhYBlsciJs9jmWIqecqaDNnOoORfNBHDSSU3ZBD4LVHXsF2Hkfo4EWyEeeIOtPULtCRqiJ9pbCAlnHFvbODkxHDQOg7MuqoClDnVLJofTWRP1F4G8kebsuL8edkxgwrf9Fhhjn1l8ts9IEQUgYoxgJSqnJpEixAuOgEgmeXGaRQ51BSx15bThMpzDpdsClsW99nPg9amkPlj3ilip9TMGbTN0rzYQgLSPg018YE+4cyRF/FhYcwpsX2v/vPd4RGCpo77nzNl+pY+cO6I97KJGF3KazCsERO3lJLERzoCtQtpAiOEQitww99j+UQ//5vgaoyJfXCtajrBAUJTqGDOm2RUHgtBEXGCPgwSs6hiqfx3nbI5NGpPswzXGKcGJs46zMdQrVQFLf5hv2bFzdWxzteXJmGtvS8SEyCBClL3XyArCVntboHpou4gnY0nenN3RCljawDkVCcMxtJXanGiMaINkHIigMu44tsYBmyRIqlNXwFI3cx4n0/e4ijJpC8pDCVjKNQ5xsN1INBwH2/+NA/bRTZ5B+kj0Jacae/fVSEzXE3EJOGwIR9yrI4x9PSPR+PKCQbJ1ykHbxiKbZmf13LKRCFi4ErHM7cRWebJjgo061B8RMQ7wJzy5xnNK/xj7tikRuLAwv8iLkNAvebngGgKCbbdsbawErNoeY9hWVM8Zzw2Rdpz8+pLASwqRVMYMIZQg4pkjus080Y7AIorK15zGjrSZsGCrWT2famYFLIwIxewEcy9NRBGqg/mxn4DlTCXPRs84dmcuNxY8O+sZaaMRsNiz6FRjWf7mGkIQW67nLXUFLG0xxtg49upDAPRcYu9eePRKgwQs1+sf7TS3GgPWDOZ1dk4cqmKVZyvx3zxgnPuODXsZ4R59WgVsQjTWxpr21We6+pu7iU/mbXnL19rBnN9PzDO+zUFecHjOu89YNc84NN/f5m9jWR3Yf1vA0h4vBoypur3eSy/1IshVkbX7K4T1ZYnnrnM2CbWud56YuUG/mf/NK16AtH9YYzhr6FwTAiEQAtOFwA23/qe8/LPvbZq758vfVl615ovKbOW/v0Z48523ls0P+0D53s4Hl3nnmud/sNxz/71l3f23a+bczVZfr+z5iv/+cNBkZRgBa0DPDUfA8pC24PAG1WJmuGkyCFgWeBY63vhxACSLYguvfgdMu2Y0ApYyLWQsUi2mRBbVEHULYYs/Tm1drFnoe2NdhaOxELC0gejiZ6BFNxEG6rZRIkoVjXzGMePMS90ogK4tECA4gq6zmK/JQpDzzXmsZ6xwaCwSCUMWiAQWjjw7awtY/s2J4fDKpzq93uRalOsrIonkbT227e0gHA2RHtrZDvV35oVIJn3JeawJF067XyXSP840EemlHyxKCVbtxFEReeYN81CpLWB5cyxaysK3Luw5lxyQ9laGbp76hHCnTZUFp5bTWrdeEAkId0Q4eRPpOAsW7tWuxkvA0i6iArtRV3+UzyFr/yiC8YZd3W7ICceiijkitEQisCnzT41S8n+ilmiUareiFXxmC1VNnBlv1LEwpgnBxLz662L9nCH1xY6w6xqiaz2Tiq2KAOOkGscELdf1Ovuq1kN+Iio56UQD9TbO9RUntJ6ZU6/n9HPg2Jz2cY70HTG1nTiGxgUb0C5Ot79HK2DhyPnk0Gs/58tY0IftNukPDidBUBu1y9ggYHYFLM4rwR4r7eOME/3ahx8PR8DCAxf9IR+JkEfE6xXJZ37jTLJJydxj+237nEHPN84lAVU7cLa12FjFoC1gEY05sUQZvAlJ8je31TE8EgFLnUSsiWQh8uCtDupDMKiRuOyO2MNJVw6hhz2xU4IXh90cKh9CUL9oLuURAtiNcUGQJCaNlYAlf32t/qIk1ZVAaE6rIkW1IeOe+IajNrN5/crOqoDlGWLOMPcTKbTRvEHQIoBoOxFuNAKWKCzPISK3/AnqbNhc2U/AUh8CrjZi749nhjmuRuLMrIDFVs1RXgJgJz/b1fQ529J2810vAcucVEVaZ03hap4haHXPxKv9MJSAJQ995X5zDhu1XvK87v5Co7FJWFRfNmguMUfi2RawPCvN1eyOgFqfneovmpFgVbdksxtrpfavO/dad7BpEaHqR2C3Td5zvZ6ppRzzhGe1+awtYJmbvEwgvHqOqod1gedYO2qqK2Cph3ri4ZmsbH+015qtjmdzOFtvR1AOtVbI9yEQAiEw3Qh8/w8/Kx8+9cim2V/Z5sPlqcs8/NJ0qHTHPXeWPb91aPnFlRc2l578rk+V5RZZaqjbJvz3EbAGdNFwBKyZ7eHxFLBmtk797rNIs1i24LAoG8kZEjNbF464P71+3p2I4o/Fa69D0We2zF73WTBbGCunXxi8uriuV1371UWeRCb5+tNLMKjclTvoLCvXEaksJrs8lKEs98tn0Ba+kXDjICu318+o13wsdEUPca7qLxWNpAzX1vpr10i2GCibk8JWe/1SVs2bjfX7fqR1Hcn1xAZjiiMzqF+0QVtw7v66nM/lof7d73Bzb+U2yL565T1UW/S/NvQSRowHtjHSs/OUWW1emwbNM9o3VN8NGhdDta/X9xwtwgln3HjHoEZ29bq+lo/DINGk3qtN2Gn7aMZpta1Bc1Yt07Xt+aEfF6zVb7hjxXw01Lw13D7AEWvlD2KpTJzrPOG+9tw8XKZ1XBkXQ51lOdw2dK/THvY91POrzhHd63wuSlgEsCi39lipP6rgpcRItpsN9fwfaX9iX8focH8ZcxBP/SL6UVSYF0HtMaXvjU+CqsjAQYnNmxvVSZvGaj2jDkPNpWPxTK9jVr2VN1y7ZjO1zd3xbx4fTj76tD6PRmL77N2c2Wv8DofbSMrKtSEQAiEwFQk8+NCD5dNnHFtO/M2Pm+a9/lkblN1ettXApl797+vKjid8qjn3Svr69h8vKy6x3JTAEwFrQDdGwJoSNp5GzCICtvSINhBNNugssVlUvRQbAiMi0BawRnRjLg6BMSZQz8ETLdM+r0sxomdF2IhaE803VRIRRFSiM95sS20nW/RFetrmZptjUgiEQAiEQAhMRQKfOv2YctL/F7EWnm+B5jD25yy/allukSXLExZdpvztxn+Uv/zjynLqheeUC/52UYNgvrnmKUdvvfeUEa+0KQJWBKypOL7TpllIwPYp2x5szbAFzPa0pBCY7AQiYE32Hpw69ReNZvugbXxEG+cLOUvJ9lZbuQk9dVvx1Gl1abbK2epmu5ntrKKKbJX0jLF90na+4UYJTiUuaUsIhEAIhMD0IXDyb39cvnzOd8v1t/5nyEZvuOpzyvs2ektZbMHHDXntZLogAlYErMlkr6nrJCDgfBzbO9Zbb73mzJThbE2YBM1KFac5AedJObvMocZJITCrCYhIcqaXM+dEIBFu/Gqkw8KdmTbU9sRZXf+ZKZ9w54c9RJ45X04bHXTunC9nSzrLKSkEQiAEQiAEpgOB0/94TvnZZb8vtgredOet5YbbbylLLLBwWXrhxcuqSy9f1llp9fLcFZ8xJVFEwBrQrRZD9YDb8ep9bxIT8j5edJNvCIRACIRACIRACIRACIRACIRACITAVCAQAWtAL2622WZNGL63fmOdRKUstdRSzc8ge2uaFAIhEAIhEAIhEAIhEAIhEAIhEAIhEAIh0JtABKxYRgiEQAiEQAiEQAiEQAiEQAiEQAiEQAiEwIQmEAFrQndPKhcCIRACIRACIRACIRACIRACIRACIRACIRABKzYQAiEQAiEQAiEQAiEQAiEQAiEQAiEQAiEwoQlEwJrQ3ZPKhUAIhEAIhEAIhEAIhEAIhEAIhEAIhEAIRMCKDYRACIRACIRACIRACIRACIRACIRACIRACExoAhGwJnT3pHIhEAIhEAIhEAIhEAIhEAIhEAIhEAIhEAIRsGIDIRACIRACIRACIRACIRACIRACIRACIRACE5pABKwJ3T2pXAiEQAiEQAiEQAiEQAiEQAiEQAiEQAiEQASs2EAIhEAIhEAIhEAIhEAIhEAIhEAIhEAIhMCEJhABa0J3TyoXAiEQAiEQAiEQAiEQAiEQAiEQAiEQAiEQASs2EAIhEAIhEAIhEAIhEAIhEAIhEAIhEAIhMKEJRMCa0N2TyoVACIRACIRACIRACIRACIRACIRACIRACETAig2EQAiEQAiEQAiEQAiEQAiEQAiEQAiEQAhMaAIRsCZ096RyIRACIRACIRACIRACIRACIRACIRACIRACEbBiAyEQAiEQAiEQAiEQAiEQAiEQAiEQAiEQAhOaQASsCd09qVwIhEAIhEAIhEAIhEAIhEAIhEAIhEAIhMAsEbAWX3DhkA+BEAiBEAiBEAiBEAiBEAiBEAiBEAiBEAiBYRG44baby/l7HTusa+tFsz300EMPjeiO1sUnnPGdmb0194VACIRACIRACIRACIRACIRACIRACIRACExTAltsvNmIWj4qAeu8884rK6200ogKzMUhEAIhEAIhEAIhEAIhEAIhEAIhEAIhEALTl8Dll19e1l577REBGLWANdICR1S7XBwCIRACIRACIRACIRACIRACIRACIRACITClCAiIGqmeFAFrSplAGhMCIRACIRACIRACIRACIRACIRACIRACE5tABKyJ3T+pXQiEQAiEQAiEQAiEQAiEQAiEQAiEQAhMewIRsKa9CQRACIRACIRACIRACIRACIRACIRACIRACExsAhGwJnb/pHYhEAIhEAIhEAIhEAIhEAIhEAIhEAIhMO0JRMCa9iYQACEQAiEQAiEQAiEQAiEQAiEQAiEQAiEwsQlEwJrY/ZPahUAIhEAIhEAIhEAIhEAIhEAIhEAIhMC0JxABa9qbQACEQAiEQAiEQAiEQAiEQAiEQAiEQAiEwMQmEAFrYvdPahcCIRACIRACIRACIRACIRACIRACIRAC055ABKxpbwIBEAIhEAIhEAIhEAIhEAIhEAIhEAIhEAITm0AErIndP6ldCIRACIRACIRACIRACIRACIRACIRACEx7AhGwpr0JBEAIhEAIhEAIhEAIhEAIhEAIhEAIhEAITGwCEbAmdv+kdiEQAiEQAiEQAiEQAiEQAiEQAiEQAiEw7QlEwJr2JhAAIRACIRACIRACIRACIRACIRACIRACITCxCUTAmtj9k9qFQAiEQAiEQAiEQAiEQAiEQAiEQAiEwLQnEAFrgAnccMMN5bjjjis33XTTmBvKnHPOWV75yleWNddcc8zzToYhEAIhEAIhEAIhEAIhEAIhEAIhEAIhMJUIRMAa0JurrbZaufLKK8etv+eYY45y9tlnl9VXX33cykjGIRACIRACIRACIRACIRACIRACIRACITDZCUTAGtCDCy64YHnooYfKBhtsMOb9fMEFF5Rbbrml7L333mX33Xcf8/yTYQiEQAiEQAiEQAiEQAiEQAiEQAiEQAhMFQIRsAb05AILLNB8e/vtt495f2+44YYF/D333LP83//935jnnwxDIARCIARCIARCIARCIARCIARCIARCYKoQiIAVAWuq2HLaEQIhEAIhEAIhEAIhEAIhEAIhEAIhMEUJRMCKgDVFTTvNCoEQCIEQCIEQCIEQCIEQCIEQCIEQmCoEImBFwJoqtjzp23HuueeWxz/+8WW55Zab9G2Zag24+OKLy/3331+e/vSnT9qmOXNPO9Zaa60y22yzTdp2pOIhEAIhEAIhEAIhEAIhEALTk0AErCkkYH3mM58pN998c9Oi2WefvSy88MLlmc98ZllvvfXisI5ifBsk++67b/nGN75R6rloo8iu561+LMCPBjgPzbloEzltvfXW5RWveEV57WtfO5GrOaZ1e93rXtf86MJZZ501pvk+mpn97Gc/K69//evLP/7xj+IXUKd7Ov/888vHP/7x8p3vfGe6o0j7QyAEQiAEQiAEQiAEQmBSEIiANYUErKc97Wnl3//+d3nOc55THnjggebfIi6e9KQnlVNOOaU84QlPmBRGOdEq+YMf/KB84AMfaMSLRRdddNTV++Uvf1nmn3/+RlysaTIJWC972csKQWebbbYZNYtuBgcccEDZddddJ5zAMisFrNNPP72xO5FTo0kRsB5J78c//nEzrn/961+PGOs999xTvDDYY489Rnzvo33DrbfeWk466aTy9re//dEuOuWFQAiEQAiEQAiEQAiEwJgSiIA1xQQsUVe/+MUvZrTq0ksvLRtttFET3fPHP/4xkVhjOnxmLrMXvOAFZaeddipvfOMbJ6WANXOtHvougiux9cYbbyxzzTXX0Dc8ilfMSgHrla98Zdl0003LdtttN6oWR8AaFb5H3PznP/+5bLLJJuVvf/vb2GU6Tjl97WtfK0cfffSkjh4cJzTJNgRCIARCIARCIARCYJIRiIA1xQUszTvwwAPLpz71qXLNNdeUueeeu2mxiB/RWT/5yU/Kf/7zn7LOOusUwkpbOLjrrrvK73//+8JI7rzzzvLkJz+5rLnmmmWFFVaYIYQ5F4gzd/bZZ5fbb7+9iRLxZ6GFFppB1rZGzjMhbd55553x+d133904VS960YsagU36+c9/Xp74xCeWxRZbrMmTGLfllluWVVZZpflenf7whz8UUUzuX2211coLX/jCGVv77r333uZ75Tnn58UvfnF5xjOe8YiIHlvBtOl3v/td017fy2eppZbqaQ22XP3mN79pHFZbr5RxxhlnlI033rj885//bBi6ZvXVV28YPvaxj+2Zj6gN51zZfrfjjjs210rqKCKrbiHcdtttGw5XXXVVE0331Kc+teHRTg8++GDTTozUxzZR3G0d7Zeuvfba5h79IOoEQ/k+73nPm8G33qtN+ludfvrTnzbXb7/99s35XD/84Q8bG9BPooOITqL/2kk/iVwTZeY6fUVM/dOf/tTY4VOe8pTy/Oc/f0a7rr766mY711e/+tVy3HHHNZyXWGKJsvbaa8/I9i9/+UsRNXPbbbc196p3tedebcboiiuuKOecc04jNIhAZL/Knm+++codd9xRfvSjHzX92M6n9u+zn/3ssswyyzRZE7BcL5LloosuavpHuzFfeumlZxTPtvTxS1/60qZs9WX/z3rWs5r6PuYxj3lEVZV1wQUXNHVkixtuuGFjj9J9993X2P8WW2zRbNd8yUte0nBhhxLBjx3rU+PK+VzubdenXVhbwCJmy9s4xUT/tc/FEsH517/+tWmrP8suu2zDXL9L7jX2119//f9Bjym7qRFj5o5f/epXzT2Pe9zjygYbbNDY1qBzuNibcaRcdorp8ssvX9Zdd91HzD8KN5epqz7xt/41Hmrf9RsP119/ffntb39bRBTWfE499dTGHv7+978349r41nfaWfvOODrkkEMaO/3iF7/Y3Kuerqv9hq+xyQbNb8bBnHPOOaMq3/3ud5vPMcBLPfQzLr5jByKn1OHyyy9v+kfbF1988f9pjnm82hkbM69Ue3bvO9/5zmaO32effZp78anzaTczc7hxeuGFF5Z//etfjU3p9+6cpu/ZHebucZ1nSJ2n6vMFA/koTz7tKGDlaDs7Vm/ta49Dc4g5mi0Ye/Kozx/znPHh2cM29OVKK63U9MHKK6/8CNb9+j+fh0AIhEAIhEAIhEAITD4CEbAG9Fk978gCfawTBwV85x0592gsEienG4ElX87WJz/5ycYpqwLVxz72sfLpT3+6WexzTjhcHE7nwXCSObAcZU4K54LDwqnhgHK2qqPmTB0CB2eR40xkwI1js+SSSzbXcUI4J5dccknj6NV03XXXNeU7i2bVVVdtPubUcf6//vWvN5E4HGxnT3HMOTS+v+yyy5p6cJI5RxzzFVdcsanzW97ylhnCifuJQNq+ww47NM6iz4hV88wzT9Mu93OktIPQ1ysRLZz7xEkiNHG4ONMiG0TFaJPPOfqLLLJIw6CXkISlbTwcTvfoK0n+hCHtIWwdccQRzXfEAnnpH05cWxTk7J555pkNFyKINojo+vznP9/XlE4++eRGDCT4ESYxYxM33HBD+chHPtJs3auJLajrZz/72caR1qecZH2sTGKWKDKRQZz87jYsbDAn4nBq8WUTHFhtdb3+UG99QSAgbGFMsPMdh/fggw9uBIpddtmlfOUrX2nshBCANSFEOf2EEFyJgepLRKtOOdGUDVx55ZWNsEDcam8NZSP6V3n1nC8CFhEOa/2nHvqGMIBLFWv0sbGtDwkH+pCIwWaVRfyrtlHFDW1ZY401GltUl/3337/hS+yr9kLMY1uEKqIA552AZjwT+YwlZRgfhJVeqQpYxjXh0dgjrhkj7373u4s5oSZjzmfKNa9U4VH7tImdmbcIRm1xVV/5IYL99tuvvPWtb23ODTP2MX3uc5/b5KOd8icU9UtveMMbGpszRxJ+1UHZxp45St9LyiN6sjV9SEgxz7BptvHyl7+8bxkY4GwMSPrDGNttt93KoYce2tgqoVM/E6+IQWz1Pe95TyNgs1WCk0QUdk6eOUifEcLY2E033dTw/dCHPtTYMFut24XNcexTH+rXL3/5y40IZB4wF33wgx9sRPU6r8rbeKnzhnJdc9hhhzX1UFeCDltUvrJE7xHfzd9VfHzHO97Rd/svMc+zwLX6njhk/jF26rNDPfSlvsfLXKxPjzrqqGbulsxFGGmLNmClrXvvvXfzPVYHHXRQY4PykL8+JmjV8awunh3maWWqF7s3RtRFP+h7olZ9LrFn43Mstnr3NZx8EQIhEAIhEAIhEAIhMMsIRMAagH4qCFiiH7yZJjCJ9JBENHA0vvWtbzWOl0QcIix8+MMfbhxX13D+OMYco+osciRqJMGXvvSlxjHjMHIgJA4GR53zx4GRRipgcbicTeNPWwgiTp122mmN+KKuHB31cY1/Oz/JH458jRjg9HKgRTUQbo499tgmGo0z1BYS1LNf9FIvAYsgokzOKWFBwkEEwBe+8IVGKOqViEH6grPHSa+pOrUcM/XngMmfaKL/iA54Sxx44oCoFmJPZSzqxFlnIrp6pSpg6fsTTzyxESqVS6QS/cQJrYkTrD0+f9e73vUINm0BiwigLgSKdtp8880bm/r+97/ffKyflFVtRxQVkeh973tf44RLHFoOLqe/HQnIIRWJxpmuvwJIVOBEE104st1EjCCgElnawhz7rHmPVMBiz8SNvfbaq+GhjCrycqpFj7A3ETCcf/xqWcQj48mYq06+dn/uc59rRD7X4yNqDTsRaVWoMJZwIQDURJQmAhAPK1P1kUe/A9prHXCv0YeuP/zww5uxpv9rfX2OVY2Ikbd2EZCIKPqTCKte7KOmamP6jJBFxPOQIVKrp3z1GYHGOK6iSrf/jA1jnaiDh7GgDsQM8xHRXKp2YIscsbFeZw5TFxz7Ren1E7AIgwTWGi3qBYb5Rt/VsUWAc/5Vdwsh4cscagzX/iPOEKYIVkSZOtbViwDDHurcU78jiLNPf0t1HsDC2VuSucdYJMjWSEX3EM7YqD6VzJv6djg/QEDowrDaEIGW0G2OMM4lZ9+ZP/SpaK7uPExA1e/f/OY3m+dLHSvu9W+CoXFsHiO4Sj4jChtfIsXYjwhI7KqNYKN+bJT9EU5POOGEGRF08iEwD4rK7Dkx5sMQCIEQCIEQCIEQCIFJQyAC1oCumowClogHToMFPufKW3LOlzfb1SETvWMbjO0p7egVIgHRQZQE58gbcc7me9/73p6UiCfeoBNN2olTwYERsWDLy0gFLHUgoHUFJQ6xSAvOWa/ESbSNrxuFxDESKSSyhQjx5je/uRFW2tvTBo3YfgJW20ms93O2OKR1a1E336EELJEUBLx2Ul/9+r3vfa9xfjHn3HGIa6qRL8QOQk+vVMUFURoEuJqIIEQyzvdWW23VfEzAYv/tiKF6fVvAUi/9QsjgfEraSCQRPVXz61Ufzivhhhgg9ROwRGcRtYhDbXsV6URg1Z5eiXBZt6+1t2/Va0cqYBlDIkna4hoHX1tFwxFXqoCl/wkH7UTwIdgR1DjixuXOO+/8iAhMwp6IG1EyIiSlXgKW7XjsrB39NciGfUfAIrgZ+3XLrs/xIwYSbaog2isvUVUETX2Bp3lEpBPRTSIwsU0CClurojihrS1ymZv0u/z6netFwCIAmjvafa584l0VW/2fAGe+aif9RHj56Ec/+ggBs31NPwFLfUVLtZO82Lf5R+onYBG4jC2CWjuZl9ixuleRSmQSbviArwAAIABJREFUMbA9z9XvzGX1BUDNBxPsCEOS/rd1uS3G+5xQ6jPinbxHImD16ncRTuZPwhwxj32a370I6Cb1Y6/sgG32einwmte8phGoPGfa3ytDlCabIkQZL16QtAXoWh5O5nVMq7A/lP3n+xAIgRAIgRAIgRAIgclPIALWgD6cjAIW8aCe6UIEEgXAcW07CiJ1bNeq2/YqAtEMIiw4qN7AH3nkkY3z4OwRzpNIl/p2myPDAesl4ois4IB9+9vfbs7tGamAxQGyfaudCAX187qtq9t1hBSRYN1fWxQpULebiWTgiNl2Y9sWR0xUQ7+oFWX0E7CIYN0zgDh7eLXFpXY9hxKwRG6J4GonYgZnlMNdHTvsu+20tdP3oqF6baurApa8atSYcggPIr5s+8FFImDpQ6JSN7UFLN8RZTjVBCEcRcFx1EWh1Og919nS5awntqcfRFcQTtiJ1EvAIvSwYYJH114JHPWcq17tJQ6wv3oWGme4HfEzUgGLIMuWu4lDT7B61ateNUPAMgaIgu1EnCRGEvuIO+yVrbT7wvXGKzGsRsz0ErA48EQhTEX9+Xe/cVHrIF/iAXGnbe9Ebn0qqokwWpP5Q9/43hlE7MYfY5GIp362VrI7Ag8xU10JffKpYp6IzPa2N/kTWdmNLdS9kvlGmUTbdmKfhCRCn37VnnpOVzcffa0exm+v1E/AEkH06le/+n/6jtj2/ve/v/m8n4Cl/Z4b3cgyjGyJFcVVRSptFInZTvU7W4kJ7u1kayJxRzQpuxeBJNK0Kzoad+ZwQqV+GomAZf7QfmImcdj2TTZvq6WXGYRDEWrq0CvS07g2HjwrzLPdpH0EX6lGU9ZrjC+CnDaaN4455pjm5YlxZAsye2nbLYGMiGr8EGZtg+6eMdez4/NhCIRACIRACIRACITApCUQAWtA101GAat9BhaH1YHhtqk4C6UmzrGtKRb/vdLb3va2GYIXh0JEla1OEmGCc1cFLE4Dx6KdCAeEnLpdqp+AVQ/z7p6BRajoijgcZ45aewtWt+5EDlEJdVtK+3vRLsQMiRPl7T+RTKSE7/xN0OqV+glYtvB1Dy8frYBly1vXqW8LWBxKwgeR0pbIbiJUinoaJGDZrlO3fLqfM4yd/Gp0BwFLGfq3m7oCFiHJ9fW8K5FPhAMRWBJBzWdsk4BTz/uyxUlbCGtSLwFLe4lrxDRObDeJKuxnx661DY6zTfiwhZYzrxxCbD8Bq57N1j0DS6SaCJFu0gbRUgSJKtqw7a5o0xawRIbVLXbEn24SuVjHbC8Bq15PKOPoG+Mif2yR7RdF1e9XCHsJWERdoouz32wTYy+2fGFSBSx2I9rKHCOaSgQf+8XP/GJ8EI7ND+2Iv1p3wlY9+LzbfiyNU1vV2qmXgCWah/jeTQQSzM0ZvVI/AavXHCOf4QhYtq0aR3WbaLtcEUU+ryIVkUcEWTvV74ittii2U1vAIuwas+YsY6qbCD22/I0kAgtHQhCBCX9ClGcgMY1QSMCqY8PCoStAqQO71k7Xuq+b2Iz8CXz9ojOJ+DVi0jgi0oqyIvraPkk0rYkt6i92IeK4bhke9EKipzHkwxAIgRAIgRAIgRAIgUlBIALWgG6a7AKWpnG6HPrMOalRWIQJ/67nEw3HUjkeHJLjjz9+xqHXnDpbY+oWsJqPs2uIDd6oixQSIWF7or+JFzXVc06GI2Bx2Dj1n/jEJ5qoqV6JmMQB67W1pV8bRY3YukLoEHHSK00kAQsHwodon5FunakRWN3D9EXdERgIDVWwGomAJWpDVAZHWh7sQuRM/ZVFTiVxgwDUjpBgO+4bJGDVrZGu6yUeDcd26zWELCIAscXfHF5iXPcgctuvRMt0BSyCDptui4PaTrQwBmzdHa6AVYVIW9z62XOt9yABq15DWCDk6Uv175WGK2DZwiqysBuRZVudqMwqYCnDdjtbiI0dNkTwMkalGuVJjK7nJw23v4YrYCnfOVn6sJ2IHQQetlfPWOuWPR4CFlGO3XcF+HbZYyFgyc+YYHv9tgzXMocbgaXvzMXE/XayHVB/EKVqJKwoy152ax5VJ9sYPSt6JYwcht/94YdBtmG86EdznnHb/VVWWxfNMSKCCafdaM3h2l2uC4EQCIEQCIEQCIEQmNgEImAN6J+pIGBZ7IsKcvBu/ZU925123333RtjqF3XEyepG8VTnhZDgPmKHyKX6K11Quo/DRJxqn+UkGsVZOYSseh1H1y8Ets/eET3VKwLLPZxqb9YJb+2tabULOVS2lXBgutEv9Zpe7cKDo8v573Vmy1gKWLZFcfAcVFzPjKo8nEs0VASWa23rJCRwNLvbCHu1r7a9ClgEHIdc11R/MVCfibqQRiJguV4UkIgSgqmze9rn8nB+9Yuta5UvMVMZzrGqWwi1yZYh5xm1f0XMNit5s6f6q2+D+nPQd8QFZ5+JmKrboZwnxamuqUaCaZNIJEnUB8HDH9FkNdkOKCrRGBB5MlwBSz/ZgiVqDat+9qocW6hE4bXthaDctVXbVusvA/aa1oYrYNVfx1O3+kuiIi5F3BgjbQFLP9oGKjpLlI7ovvb5WsYz0dV5e73OIes3/Q5XwDJ3iKys2xZrfuYlvMwFvSLcXDcaAYsY6jws2/TaiYBL0FOv7tbQtl1iNJoILHnVX180HxOD26k9DxBr2RhxalAiwBJk6wH5rrVAwFddCVjszvxMMBJZ2+7rmrcIKgK26MDu/OQaUXXqpM/qr3d2x2wv+7Ytsv4AgQiu7vOp/rCA+bo9Rgc2Ol+GQAiEQAiEQAiEQAhMKgIRsAZ011QQsDSvCjS29olikvyEPUGAmCHahHNAGOIgECE4aLZmcDT8ah7Hhgjm7BmOiy1YtoZxXp3DwmG0ncsB6hxgYoQooZpEung7T4xwHdGEoydyZLgCFidYZJctUhxF0V31Mw4N55pDxLEhUBA7bIHk6NkW6ewv9eN0Oi+IaEBUER1CTDjiiCN6WsNYClgKsIWTWCRf0VT4cgSHK2DJg+CCv3b6t3bIj4hg21avVAUs/aVfiTMiivwbNweR1zRSAYswV38ZUgScPGsSkUeQIHiKkGOHtg9y8EVSVAFLXxFJiEVEOv2oDzmmtiQSY7WXzbFXNko06vUrhOqDM6FQnvJil7bC2iZJDBXVYQscm2aPuLB534seYtNtAYtYoy6iT4hKHH1CMNHIH2m4ApZrnRdEDCDGYkZosVXWNsA6TlxnHClbhAl7cQ8Bsm4zXGihhRrRz/gkENdtoF0bGK6AZZwaW7YKO2ReNBMxyGdEn7aApQzCB16Eqnakp+8ISCIc2YYznQikoqW0xVgURdQrDVfAci+bdx4X+8fQQ838II/uDzq0yxqNgFV/WVAZzsXSdvMSuzR2MLTdzfZL8w37YktjtYWwtoMgSzzF1r9vvvnmZh5nE/VXCEVCOSPNlsS6DVdUVTdh5dwqtkgAEnHo/+Z621kJWBLh15jSNoKzvmVb5mB9UQ/zF2WFjRconjU42BopmaPk7yWGednZgPrDCwpj1ssO48CzyPxoPO+0007NfI49QdW8LSpQn+NtXLIDQp17kkIgBEIgBEIgBEIgBKYegQhYA/p0sglYzpMhyniz3U4cUM6FRb1zgGrkBjGA48Mp5+Bz5oldDpbmbNgy6O2+t/nu4Yj6vv0rbBwHjjPxg+PCqann8bTrII/NNtus2Wrk3wQ0Tnp1ftwn2d5ItKg/Fd/tHoKL8uqZNyJ1OE81UkRbOTWc+BqFQDQRfcbhJzA4kFh0ie+d1cPRa/9KWrdMwo9oCwKKLXAcePUVwdbdqkIM5Bx2D6Fv54k3Z9Nhy7jWfLSB4909+4bjJrJFlEs7EU+ILLjrP6IMpv2ieaqARUAgEongch8nsW77qvlzKkVeVIezXS6RRB90txD5nJDCgeyeeSSqqdoa0UL/EICIW+0D74lZ+oJgKjqrvT2VA83JZnPqTdSypajX+UoYE2fZUeWjXEJCOyKHDWDBhlwnYkjfYeksMjYriSp0tpF+YwvYcbY5+8TRmkS6qLe+JYi1kygZgkcVu3ynLcQ+HNRFnsrUrhph4hp5KpP4y4mv51P5d92SxnbYSr/kAH1OvzHUPiNIn+k7kXPEBomo7FB/W2wJq+yKrWuDMttzACFx2223LZ/97Gebe7qJ4MFePGzqXKLNxJH6y6jde0TxuNaB4u1EZNYvBNt2BI5xQPggdBjn+sV8NSgRO8xx+krS/0Q6Z/7h3U5EYlvs2r/Iam4khLM181bdMkeYJPixtToHEa7Mt/L3mbHOzrsHndfvzEndX98z3ojW3UPpCTfGlzFT53EvENrioLKNB20k+Ioc7JWw9auO6kGkIuiaO/UTvjURytgpm6x1No49QyRM2BrG1T6NxTqeXCNy0ZxASFZvAqDtoMRh7TQv1ecPe9Mnxibb1VbtMI9ok8+Ufeqpp/aMzh1oCPkyBEIgBEIgBEIgBEJg0hCIgDWgqyabgDUzVmfxL3qAA9Dr4FuOiD8ciF4Hg9cy5ePPUNuE5MWhGeq6QW1xvzpLbUe6fU+td792uV99668qzgy70d5DmCBgjebA4aHa2a5jFbCIkyI0xqL8kTDAW331/VC2pH962dxQ9tqtT7WVoTiP1C6x02+9tpyOhEm9tvYjNv3y7NVfONXxNIjpzNSpshuqv4abd63rWHJrl13r229OGG49R3LdIEYjGZsjKbPXtcMZF+rjuqH4DHcuVw82KfWzkTrP9rProeo91POnzinjZVOj7ZfcHwIhEAIhEAIhEAIhMLYEImAN4DkdBKyxNafkNpEJdAWsiVzX1C0EQiAEQiAEQiAEQiAEQiAEQiAE2gQiYEXAyoiYJgQiYE2Tjk4zQyAEQiAEQiAEQiAEQiAEQmAKEoiAFQFrCpp1mtSLgLPR/BS9XwR09ldSCIRACIRACIRACIRACIRACIRACEwWAhGwBvSUA8IdMDueyQG5DoVOCoEQCIEQCIEQCIEQCIEQCIEQCIEQCIEQ6E0gAtYAy/BLWaecckrzc/djnRzU7Fe9/HT4IossMtbZJ78QCIEQCIEQCIEQCIEQCIEQCIEQCIEQmDIEImBNma5MQ0IgBEIgBEIgBEIgBEIgBEIgBEIgBEJgahKIgDU1+zWtCoEQCIEQCIEQCIEQCIEQCIEQCIEQCIEpQyAC1pTpyjQkBEIgBEIgBEIgBEIgBEIgBEIgBEIgBKYmgQhYU7Nf06oQCIEQCIEQCIEQCIEQCIEQCIEQCIEQmDIEImBNma5MQ0IgBEIgBEIgBEIgBEIgBEIgBEIgBEJgahKIgDU1+zWtCoEQCIEQCIEQCIEQCIEQCIEQCIEQCIEpQyAC1pTpyjQkBEIgBEIgBEIgBEIgBEIgBEIgBEIgBKYmgQhYU7Nf06oQCIEQCIEQCIEQCIEQCIEQCIEQCIEQmDIEImBNma5MQ0IgBEIgBEIgBEIgBEIgBEIgBEIgBEJgahKIgDU1+zWtCoEQCIEQCIEQCIEQCIEQCIEQCIEQCIEpQyAC1pTpyjQkBEIgBEIgBEIgBEIgBEIgBEIgBEIgBKYmgQhYU7Nf06oQCIEQCIEQCIEQCIEQCIEQCIEQCIEQmDIEImBNma5MQ0IgBEIgBEIgBEIgBEIgBEIgBEIgBEJgahKIgDU1+zWtCoEQCIEQCIEQCIEQCIEQCIEQCIEQCIEpQyAC1pTpyjQkBEIgBEIgBEIgBEIgBEIgBEIgBEIgBKYmgQhYU7Nf06oQCIEQCIEQCIEQCIEQCIEQCIEQCIEQmDIEZomANWXopSEhEAIhEAIhEAIhEAIhEAIhEAIhEAIhEAKPCoG11157ROXM9tBDDz00ojtaF7/kgHfN7K25LwRCIARCIARCIARCIARCIARCIARCIARCYJoS+MFuXxhRy0clYD3nY1uWw7fcc0QF5uIQCIEQCIEQCIEQCIEQCIEQCIEQCIEQCIHpS2D7Yz9ezt/r2BEBGLWANdICR1S7XBwCIRACIRACIRACIRACIRACIRACIRACITClCAiIGqmeFAFrSplAGhMCIRACIRACIRACIRACIRACIRACIRACE5tABKyJ3T+pXQiEQAiEQAiEQAiEQAiEQAiEQAiEQAhMewIRsKa9CQRACIRACIRACIRACIRACIRACIRACIRACExsAhGwJnb/pHYhEAIhEAIhEAIhEAIhEAIhEAIhEAIhMO0JRMCa9iYQACEQAiEQAiEQAiEQAiEQAiEQAiEQAiEwsQlEwJrY/ZPahUAIhEAIhEAIhEAIhEAIhEAIhEAIhMC0JxABa9qbQACEQAiEQAiEQAiEQAiEQAiEQAiEQAiEwMQmEAFrYvdPahcCIRACIRACIRACIRACIRACIRACIRAC055ABKxpbwIBEAIhEAIhEAIhEAIhEAIhEAIhEAIhEAITm0AErIndP6ldCIRACIRACIRACIRACIRACIRACIRACEx7AhGwpr0JBEAIhEAIhEAIhEAIhEAIhEAIhEAIhEAITGwCEbAmdv+kdiEQAiEQAiEQAiEQAiEQAiEQAiEQAiEw7QlEwJr2JhAAIRACIRACIRACIRACIRACIRACIRACITCxCUTAmtj9k9qFQAiEQAiEQAiEQAiEQAiEQAiEQAiEwLQnEAFrgAlce+215aCDDio33njjmBvKnHPOWbbaaquy7rrrjnneyTAEQiAEQiAEQiAEQiAEQiAEQiAEQiAEphKBCFgDevOpT31qufrqq8etv+eYY45y5plnlrXXXnvcykjGIRACIRACIRACIRACIRACIRACIRACITDZCUTAGtCDCy64YHnooYfK2972tjHv59NOO63861//KnvvvXfZfffdxzz/ZBgCIRACIRACIRACIRACIRACIRACITD1CPz79pvLJdf9rTxUHio33H5LWWKBhcuiCy5cnrzU8lOvsa0WRcAa0L0LLLBA8+3tt98+5kaw4YYblvPOO6/sueee5f/+7//GPP9kGAIhEAIhEAIhEAIhEAIhEAIhEAIhMHUIXHTtX8snv39Uuej63jvFFl9g4bL5szYor1pj/bLoAgtPnYb//5ZEwIqANeWMOg0KgRAIgRAIgRAIgRAIgRAIgRAIgalC4I577io7HPeJcvE/r2qaNPtss5dF51+olNlKmXuOucu9999b7rn/vnLr3XfMaPI71t2sbLv+a6YKgqYdEbAiYE0pg05jQiAEQiAEQiAEQiAEQiAEQiAEQmAqEdjooB3LTXfe1jRptWVXKkdtvXfP5v3mb38pOxy/34zvdlh3s/L2KSRiRcCKgDWVxvWkbsuPfvSj8qQnPamssMIKk7odU7Hyf/jDH8r9999fnvWsZ03F5qVNY0Dg5z//eVlxxRXLMsssMzC3K6+8slx//fXlec973hiU+nAWl1xySfntb39bnv3sZ5eVV155zPJ9NDLK2Ho0KKeMEAiBEAiBEAiByUrg7vvuKZt+btcZ4tUJ2+1bVl7yiQObc98D95cv//w75chzvttcN5UisSJgjbOAdcIJJ5Qtttjif0oZjzOwPvjBD5Z///vfTVmzzz57WXTRRZtfOHz5y1/e/D9p5gj8+Mc/bs4p+8EPflAWWmihmctkiLv8WIAfDVCOc9Emctpss83Ka17zmrLllltO5GqOad1e97rXlVtuuaWcddZZY5pvMpv1BIy9l73sZY1Nb7/99sOqkDlh3333LT/5yU9mXL/88suXD3/4w0P+6If7TjrppPLHP/5xWGUNuoious4665S///3vjfg9zzzzlB/+8IejzvfRzGC8x5YfS9G/3/72t8sTnvCER7NpKSsEQiAEQiAEQiAERk1g08/tUq675WEf//T3HFIWW/Bxw87zhHNPKwf/6OvN9UdvvU95+rIrDvveiXphBKwBPTPaQ9y32WabcuKJJ5bNN9+8HHPMMY8oaTwErKc97Wnl5ptvLi9+8YvLAw88UK677rrmrbyIgFNOOaWsssoqE9UOJ3S9zjnnnEZY+t73vlce+9jHjrquRBBCGHGxpskkYHH0OZ1vetObRs2im8H73ve+8qlPfarMMcccY573aDIcbyd7UN2+9rWvlaWWWqq86EUvGk0Tpty9v/zlL4topre85S2japuxt+mmmzYC1tZbbz2svM4+++yyzz77lJ/+9Kczrp8VAhax+4gjjih/+tOfyhJLLFEefPDBCfuy4j//+U/Za6+9yqGHHlpmm222GdzGe2zdeOONZeONNy7f+ta3yhOfOPhtZa/OP+SQQxphc7755huWbczKi9gkxnPNNdesrEbKDoEQCIEQCIEQGCMCl11/ddniiL2a3I7f9qPD+oXB0y78RTnwjOPKTi9+fXnVGi8sH/jmZ8tPLv1tecIiS5ZvveuAMarZrMsmAtYA9qMRsH7/+983b8Yl2444PO00XgLWwgsvXH7xi1/MKOqqq64qG220UePU/PnPf56wzs2sGwKPbsmc5ec85znl/e9/f3njG984o/DJJGCNF7F//vOfjcgqinCiOWDj7WQPYiqC8tWvfnXZbrvtxgv9pMx3p512KnPOOWc5+OCDJ0T9Z4WAtf766zdRV5MhMlDUGtHbOH80BazRGMc999xTll566fK3v/1t3KJvR1O/9r033XRTs/3c9lQ2kRQCIRACIRACITD5Cbzv6weVn13++7LGciuXw7f60JANuvrf15WdvnZAufbmG8ub1tqo7LrRwy9619nv7c0B7we/YZeyzsprDJnPRL4gAtY4CFje+K622mrl1ltvLUsuuWSzdcH/Z4WApUwO3ic/+clyzTXXlLnnnruphjf1hC5Oha1Rzk4RgTDvvPPOqOZtt93WbJv7zW9+U+66665mcSxqiCBXtyTee++9zTYaUUp33nlnWX311Zu33YsvvviMfG644Ybm7fdb3/rWMv/888/4/I477ijHHXdcef3rX18WWWSR5nOsnvKUpzROg3uU/c53vrM84xnPaL7HVJ1//etfF87Fk5/85CbCrd6vns6SqiIeB2+DDTZ4hCDCgTr99NMbQY9QIo8XvOAFfc+Oufzyy5ttOdtuu23jMN99993lK1/5SrNVyNkzZ5xxRuM0PPWpTy2veMUrmj7vlfD57ne/2+RjW+maa67ZXEbIEtlVtxD6v/r94x//aOxG3bpbX0TY6Rvn7tx3333l+c9/fhNFMmir6BVXXNEIqbb+nXrqqQ3Dxz3ucY3Q6v52EjnIJkSK6QfbnURH2aZkW+zTn/70pr1f/vKXm7+rWFvzYDtf/epXywtf+MKmP2+//famTzDHSj7spEZEyJ+Nqtf+++/fRGBpM/GmJtEubI3dEAG1d1BUBEbnn39+EyWDJZtaY401Gp7axZa0RT+27Z4N6d+XvOQlzZlGEgFLudqE+a9+9avy+Mc/vol2ZD81Gfvf//73G1vHl90oRz+yDQJzOylLX8uPbYmyIm5L7Ow73/lOee9739uI0PrINexHsm3szDPPLBdddFHjsBL/XDMo0pKgfd5555WLL764OdPrmc98ZtMPVaw3Lxx99NHlVa96VTNHGI+ie0STYieJpNFPzi5iP+7XH4MSG2IntjUbA+xAZCjG5oxu0m/GsShS844y2JFkzsGMgOUz85bUnV989vWvf70Qh7vRgrWdbAxv/a2P6pjUL+xGv2gvO33uc5/b/DFniPz62c9+9ojtggSsj33sY8386L6//OUvZa211iqbbLLJI+y03xZC9xCiCLiYsLn2fNlmZMybc4mabIpNmNv1ExtkN/7tGnmyb5E5kraLXtM+12Joi103OunII49s5mZ9xc6MSfZlPsWUbRvT5hx2u+666/Y1AdeJYmVLH//4xxsBq84N2lnHokhh3NgK1qKKu+nCCy9s5lxjWt3NA4POHTP3HH/88Y+wj5NPPrmZw/CtZRrrOFQ70+/uszVfv9Y5AnMsMPB8wsY2RWPJ9ur6LFLv+lxkY/rE/9mEOR4LbXWP8aT/jUNno2Hcncs9a9j9X//612b+1O56XiJ7/NznPtdE4+23337NPFHtYeDAzJchEAIhEAIhEAITlsDtd99ZXnTgDmXO2ecoP9vjiDLXHHMOWddPfv/L5eTf/bQ8fuHFy7ff/ekZ129z9EfKhf+4orx17Y3Lzhv+7/FGQ2Y8gS6IgDWgM2YmAotzwNnkJEqf//zne56J8mhFYKnDgQceWD796U83Dq+FrbTHHns02xo5JNqpvhwYzjdnmJOoHcQezgkxgCNjUVzPfSHIcB5/97vfNYt3wo0tixxvTlN1/n3PubEAX3bZZWcQ55w6cJizuuqqqzafK4voxOHlKC622GLNwpxIwKHAjbNg4c5xu/rqqxsHhPNI0OJwiX5TnjfS8t5ll13K7rvv3jgd1157beNgclw5CpxFAgCh5KMf/WhPa3Beja1FhBcOj3uUp16f+MQnGofnMY95TFMWx0x+vSKIfI47AY7zVJ0uNkJcIWARUzhX2OkPPPUFZ7ntpOGuPMKR7y+44IJGTCE+9EvyJV4RITmumOPHISRO2X5SEyeL03/44Yc3bSZUEG9sUyIm2lJDQOB8cp44cu1EEMCdaOZezjQHjbiiHRw5HDlx+pFDxz4uu+yypo85b8QETjdHkdPINolP+lHbCQ7a1E+044Drd84gsYloo67sRZ/5N7sVXUFYqQkb/asNr33ta5uPawSWccAhxo7zqU85psqQiDr+TYQ76KCDmuvMCcQseRIN6his5xcpT7v8jaO+2G233cqll15aPvCBDzTjbaWVVirLLbdcMzZtKVQHLNmx/iQSqwun/7DDDutpAgQ4400+BAL1IkIQKrWB7aqT74866qimDpx2/aM9riNMutdn5g59xn7YBpGpX2Kn6qs8Y9cf84k6c97b2yM/9KEPNdvMjBH1xdm1+pptmMfe8573NGOCUF7nDv3dFg/UxfYvY9Q9Vbz3eZ0jTjvttIa9+uy4446NvbA341BfEdgwr8Kr8UjmEjp4AAAcDUlEQVQ0ZUM777xzIQjWpH+JVfLUX0RS49L4IeAYB1IvAYtAoq76z5zHXvQHe2iLq7UscxFhX77qY6woxwsBYrC5wHhmg+YR7I1l/cu+2DbbJ4QYg8aAOXe99dab0R7zeRXT9bnt6erDFoxlTAhMxji7x/8Nb3hDTxMwX7ETc7e6aRvexoqxhSNByjjV7641FxA728IYGyDWaS/bNw+w43PPPbdvhJQXN8a78VTnUM8YTIhPbAwHeWmL+ZkgS0A94IADmrmKfdY5nbhvDH/pS19qRDl95rlGFPQsZeP1rMRdd921Yeb5oI3mecIT+/3iF7/YCGPqhAfGrvG8NN/ZSl2TlxXmY7w9C9XVs1kfsHnPLm2p8485UpnsoR3t1neA5osQCIEQCIEQCIEJR+CS6/5a3nLUPmX+eeYrP3rfYWWOIc60vvnO28pLDtqxaceRW+5ZnvmE/75kv+gfV5Qtj/5IWWGRpcuJ79p/wrV1JBWKgDWA1swIWBasHAWJWPCFL3yhZwmPloDFsbXo5RRYmEv+9taXo1UjZzg2FtIcONvbLNpFjHA42o5fuzEcLlEzhACLZYnzRyDi4NbyRipgcfo4nQSSduLoiH6xSO8V5cQx5BRwQqrTx2khxhChOKMcN4IeB2m4qZeAxSnk0HCMq51wAnH+zGc+MyNKpluGSAOcCQRtZ69uIcSaE0PMkggmnGFOn3skYgHnlRPO8ZIIAZyub3zjG40T3StVAat7Jht7FWVAUKxOGmbyJK5ttdVWj8iuLWBxrDi5HOoqzLiYfUmEkV5JhAuGnNgqnHG2995770Z4bAuAVWxgR1hIbE6UCgfSn27i1BI3iCEimHqlkQpYoh84isZ4TVgSUvQZIYFtEkQ4tASz6jxyODnB7f7hxIrwYK81Mkte+k/UX7VxjjouNfJK2aIqRbIYn6P5gQZtMq7UlXhQBSwC2bHHHttsXayJjWJOMCV61HPKzHEOL2c//c4uM89gQwBq/0reS1/60hnRecrhkBPkumUbKwRMfUZElYgShGd20y8RaAkDBHpjsybCgeg74hhbaQtYVfDo3tMuo5+ARdQ3t7TnJ+NdXxOvpa6AJaKGmMQ2RABJ5glCovO9iHn9krmWcEZ8qomARVwkmOnXdhSXOVmf6gv31UT4N77Ml9VmtYFN65OaB24ifAhS+qimKkIR3vol9kus7LWFkPhibm7bm75lj3V7JJs0FsxXxp0kEg0D80VXRK/16CdgaS97rHOK6/WD/ESWSsamz7z4aP+AB/v3AsRLoCpyu56NYV/XAHU9gJdr22PVs8qztjunGNfmerYuGXfs0/OQ+Ch5Lihf/cwBxp1oSVGIXgxkC2FfM8wXIRACIRACITBpCPzqigvLu792QFl4vgXKWbv+9wzRBx96sGnD7LM98kfaNjnkPf+vvfuP1b+s6zh+kYAQRtpMLRpmxAwdi821ltaa3+XKJrFojTbCOcHx6xvLtqzEpfSDTWVKrEGU68c3zE1pq8bWpGX/VFsw52o2sYwsUQlUKJCwH572OIc334uLz+c+932+53s69+F1bQ6/577vz+f6PK8f9/1+ft7X9WkPPPJQ+75v/872np/Y+s1Q5R/u/3S7+H2/2M583gvbH1693vtgRWAt6MKrCqzKKKpDCkLmgsvjJbD8ePUD3A9cQXAtR3E3ueoi2HA3nXzoizvJ5IEgxt1wd3oJLcHzVJElZFnR7bff/pSX/VvGkjvoNp9eVWAJWgTy451jd68rm2qqPgJf/yOQ+iKAlR0i0HXNgjUyZ9lNsecEFskmC6MvgiFLY2QjTJXtBJZsErKjL4IS7WITecG2wFPdBXx9EdzJ3hCUTZUSWIL2fkliZRz14o3Acmef4BjboRdYgkrtIhArEaVvVaDZ7/M11kn2hXPgq8wJLHXRn8cAVbAvyJMFNFUcXz8mFKYy4lYVWMaQ8dTzIOIE+jgRVyWw+uytqhshob/IbBJ4+zepoU9XkSXleDKAyENlSmBhIYvEeRct3VowvW2+VG1PyOBVAksfk1HSX6trJx1J5FpO6BjmGWJLtkcvIPpzE1iEaAXb9ZosRpkshIAiO0X/NHf05yaGCDbShFhXlhFYgn/j3xLdyor1WRJNhik5NAosfU0bOM/48I2q95zAIipGoXbppZdu3izw/aCMAsv4Ju1dd3/NF1988WYGkjaaExJzAqv6YgnuqjfZgvU4Zkp6yS6qZbsYGNNXXXXVk03pczLx/LfPCCVsSFVtPFcWCSzHG5/KeN11120+BIVAU2QeykwipPqluGSTTE2SaarMCSx9At++YE4o6vvKnMAy91ueOtYZK/M0caoQWL4L/HtcPkxgqbc5qm/fkoyW9isEnn6FrTmjigxBfbSkbgTWdrNdXg+BEAiBEAiB9SJgM/a3//Gt7fnPeW7705++6cnKX3Hk+vY1J5zQbr7k6E38D911Z3v3nbe1jdbab13y1nbei7e23ugL8aPc/bajNyHXi8hWbSOwFrTanMCqLCMCp4JvP3RJBcvclEV3771+vASWAJigUSxlcOd8lEECXkEn8dAXAYDPExB1R1f2jYwHgY87xfVD21IinxfgCMj7Qhi4OywrQIbFqgJL8DwuhatAe1GQLOuFqBiXEcmMEqwKOIgDgZZMghIKAqtFT72bE1j2YRn3frK0xdIU55oq2wksS+1uuunoBOUYl19++WYARFbIfnGd2nW8Tu8RjI+SpepRAsv7+s/qz/4tq8EeKgppZDmRbLWx9ALLa4IwgT7OsrCwFdDqY5W95xxEhUwLAaV28F99UeClTAksQkXgJyNt7K8yOfRHAdzUMhn9WfuQH4SLjMF+f6hVBdbUUkn1FsjLQpJ1VgLLGKj9aYofISxAJoSJL0KGcBz3OSJvyGTjV5kSWP5OfgmCSSVZZvrOdsW4lS2lnuYq/Um76RvGSAksx5IJ0hfZhgQrKdJn2xE+5j/XRXhPFe1AwpaMqPcY55ZKlfjQt3AapXgJP5mHJUqXEVjOQ7iV7DSX4Uq0EUbmgFFg+QyBQQ7IupH9SO72GThzAks7jBl/+gYuRAVpMgosmZMy+PSHvpjztNEobPr3zAksY9c47+vscwS7NpQJ1Rci2s2G/oYFgUXE9ktD58aMedm4n5PJzrVIYBGb44NOzD3mozomeUVikY/9ePedZc7Da6rMCSz9rDKl6nP6l+9u31nKnMBygwbDcW9C9dBm/ue7iMCSTaVuo0Q3dn2naqd+POl7xiKB5XtJdqzvBG3X3xAzJsi2WpofgbXd7JfXQyAEQiAEQmC9CNx178fb1X/wrvb1T2RgkVbKD733cPvil/+jveLM72i/8fq3tv/56v+2H7jhyvbl/3q8/cJr39AufMWhp11olhCKRndYdmLMdniqY/7YnMAShApgFEGrZUAyUPwgVQRk/V3rqYocL4HVP4VQJo+sCvWyaXgVSxwsr5qrox/PFSD44U3UVNBt+QipRQoIBqeCVstWal8d1zknsCqwsOxEloRCAgqwxqWX9V6B7dxeO+pD3p1//vlPQ+56a4Nm3VfQ7ljaylIbgbSshakyJ7DsAzNuMnysAstyuGuvvfYp1egFln2+BLr2Q5laKijAsVRyqswJLAG8PaB8TsaDQmAJ+mVBjGUUWESV6/ZfbUBeCqDtlaMQTf5GfBw+fHgzULbkVLDo/6uXMiWwCBZyTZ/EYSwE2aJMOkJGQCoYtpcUZtq6xNfUHliVSTnugeXvltaOhVAkRfW9ElhT0qEXWJVRZPzUHk79cYkO2YTKnMDymgCbLBXgakMigdSYKtrWmDcXkDP6vf3qtLPgV/uXwLJUyZzWl1qOJ6Ok9nPqXxdg17534/lL9I78RoFlXzOCol8S51jqpd/rP7UZ+bICq2QhGSKTxf5txn8tTZsSWM5J9smGMQYIJmLKuc2NcwLLnmVXXHHFUy7feWXZVabMKLC0F9Hks1OFQJt7KuecwJKd1y9vruNipp1kCfVFPzBHmn8IE4XA0rf68VVLd/HrJfixCiyyZnyS4iiwLKe0JNm8PQrrRfPenMCSNUhq92VZgeU3AHE0St46lrGkTgSWDDFia7xJUntg6Vv9a6PA0nf0IeN36kaLtrZkPgJrcvjkjyEQAiEQAiGwtgQ+86X724U3v6WdctLJ7S9+9tbNzdyVzz70QHvT7/1Ke/DRhzcl1nNPPa39+Sc/2s583gvakct+eXPPrLHcfved7Z0fvq19/9nntRsuOrodyjrC2YlPOmHjGS6wXL4fjbVUS1BA2iiWwPgxvyijx/v2QmA5j6DLMglZHVUnQbysCWJq2eKa7SfkB7+gmaggnQTfY7ApOLJ0zN1hQZEliQTHuHSt9m0aN3GfEljq61iCP/smTRViheiwYf2yReaBJZVE3bh0r46xnwQWDgJ5y3xqT6xlr7UE1riZvn3SZAsJoEsOrCKwZAKQDsShY5B6glHHUMgQ0oPI6p8aqL18bpHAqv1fiK5+Cdiy19y/TyYiySQDiWQQhKuDoLx/aqY9twiXUWBZ5jVmewn81a32WFtWYBGRsn+MqXGvt/HaFgmseq/+a6masVnL8frjaCOiTUak+alKPSlvGYFlnzOCSoA9PlV1u/ZYVmBpn+LcHxNn9XezoPaJWlZgOY4MUvMR6azPETUlROcEVn9+os3yT9lcxMecwCL3R+lLGhJB+j/hOgosY5lsshxt1Q23VxVY5KXvrfq+qms0JzhWZc36+34TWCW4x/2otut7x0Ngmed8f5orFpXdEFiWzepD47w9njcCa7uekNdDIARCIARCYL0IPP7fX2k/fvPPtfsf+VK78aI3t1edvfVEcIXcuvzI9ZsSq8o7f+xwO3TOVvw1lh/+tWvag4883K7/0avaa16+dZN8XUsE1oKW224PLNlNAqIqlgIJ8pYpeyWwLFsRcMk8cMdXgCQwl8lgSdq4BI4w8B5B3bh/VwWwsigcU/aSPWwEzDJGFJ8TLHpv7SPi7zI27AMjE6feJwiQabVMBpbP4C1zxT5W1TY9axslW9bhiVRTm7zXecfrsteQZUlEztSeZbspsCpzbcy0qk3ct8vAcg2ydixpsg9SvyG216r9pvpgCaxeVHkfuSTbhuQskbOKwHIM2QGWCNnPx5ioJzJ6TeaEYK/fcFwQTQIbB7WEUKYCSdBv1O3ztffNlDiZu95y7KMQ0P/0eU8XK3FnbytL9qoQEF63LLI2iyY5jZdaalfvrQCVECCylhVYPi8LSnaiILgXaGPbaWNyqs/QITJHSW5zfwKSqBkLUUsAOUa/6b0lTMbxuIRwKgOLBJO9YymnbLZeRm435y0rsEhKGZbavESVtiTOyT6c60mmhIusNpuxb1dIDGKVPJI1Q6r3c1a/ifvU3CcDzHmJLMJpTmDJSqonA6qTdpJ5SBzWcrVRYOl/ljS6jtrfq65n0Xj2nlUFlo3wPVzEHNkvp7V0UGYToVkPwNhtgWWpuTElk7FfMldP+NwuA4ukJVDN1+aZZcuxCKzKOrTflKziKv5N2Psu9d06V3ZDYMlCJbtlYlk2PCc5fS/qR1PLl5dllfeFQAiEQAiEQAjsLwI33vn+9v67PrxZqb/8+fe1Z5948pMV/NxDD7Y3/u51m8sJz3nRt7Yjl/3SZOU/8bl72+t/+x2br91xzXvbC08/+vT1/XW1y9UmAmsBp+0Elo+WxPJeAaR/L1P2SmCpix/Z5I47/LVnh0wHy2OIC0GQfa/8KLekyhIbWVs+J7gQuFmGI/gV3NirxJIWe9q4Dtkklot5zd1iAZlAxWtViAPCwOa3Al/Hl2lBmiwrsAS35Jgf8/boEfQLxGTTCBJdgw3ULUdRV8GOYMm5CDvChHCT+SWgtP+Qu/kCq6nNl6vuuymwHFNg7los+7J/Ehko8LXP0zICyzEsd5Rt4/0y1rAliWz+PdcHS2DJnpOFJxAnOywZwsNT0KqsKrBqSZzPk2uC5Cr6g6W25JQ+YamhzbMFyJYSlsAiPT3Fy3vsdyNbhfggAfyN6NGueGlrx5UFOPWUQfviCDhlN5EcZA/pQLThQFgJDPUJDCwBtIyLpNI2BAeh1gsswaxx4JiViUT+6NP6l7KKwDJu7M1FjhAIxqb+aJmUjJ0SCbIZjRFiTX/Rvs5HAlheRg5bhqQdyZ9xX59qB9k39n8yVu2bRfYaf0Sosd7vgTUlsBxHppC+QWRZbqXf4meMYTdXlhVYPk+EkhmksnFNhtpfyfX1Ek/fJ5Rw0cbqVU9DnaqHvqLf6Iv9EuUxA0s/c/2yqezHR9xZzoaxLD7zxpzAUl8SvNpH3dxEILVqT7RRYKmrcavd9S1jW/8lbI0BT3qdK6sKLNdi7BOnRFDtCWZ/OjKzX1a+2wLLjQ9zHzbmG32ZRFtWYJF5xrrvFm1T/dW1+O4a99AqZscisIxR2YbGqHnNPGL8WYJsPvN957vVsnxtZu7wnmqz3RBYrsPxzDUXXHDBpqTSx+wnd8stt2xmkpJa+rb5E1PL0NUd71Wz+pb5/ZL3hEAIhEAIhEAI7A2Bhx97pL3mPVurj37yu3+wXX3oonbis0588uSPPv5Ye8ef/Ga7/sKr28knnvS0Sj36lcfaoXdf2TbaRnvjq17Xrnz11l7Z61wisBa03jICy8ctG/TDUSC7bDkeAssdYUE4kdYXy29sli0gEbTWD1qZN0SCoJyQspxKdoJAi0yQ8eAHuaBHMG1fD9fY3z33mrvCMjL8yLesxw/9ypKoegg+iDHZOQJGxxJIE1ukQu2dI5ATBM49+VAQSTjVZtCuyecFlYprFSAKqNVNoIG1H/SCbfJK4Ev+qK/gX9AmS2iu2Hhc8CwAI98ECoIYwqd/BLvPE2yC3kXLGAkZYsSSECwt23EcwoW4GffQseSN2BjFhKCG6CBitJ/AF9Nx4+a6rhJYAh5BpDv1AiGyadyIn+DUZ6aWt+nvXh+ZCa4Ei9iP7a+vkQaCKm0tG1Df0m9IxSrEBdaCQYzrSXxe9z7Covor+aM/jufyXoydw3mdU1DpvKRhv/Gyfqn9iVD9wd5d2o40slRVkKzIfiC9tJG+JOsQcxlPJbm8T4aQ/XEE1IRkXwhDGTa9JCh5JXvC/9dfBZ2uq8apfoy19iJoiF/9n3zG27Xq2/qOwH6u4EAOCfgdm8gxzvQ3GV6CcMey55FNqv1vquj/2JB1xrLMU9c8JRLr8153TksA+6JPWgorM6gv5jBzk3PJ+MKjz5KrNlb3eloioTmXeen92lWWk2yuPvO05iOCDwfZauYQQtjY0iZEkf5Xgsy51Ml/q5hnHN+NAXWXMWS5r2yymp+8l3QwpxBWfTGW1dH5zQv6qz0HzalzRd8jgvoHP5hXjGlja0ro6fOErXoRz8aDeb/2CKxzYWTZXi0F9nf9Tb9x3ZXB5u/GvOtaJDHr2o1Lfdr3i7389BvXPD651Vg3t4/H9G/s8TWujX/fQWTuVLF0k7TzOcJOwQfX2u+rPkc46te1rNnf1c2YdD593diu3wbku76Co/lAm7mu2ofOfGx+N9eN2b2+PzDDss+mJFD1Q+K2/wwJary6KWMs2fPOHGA+ruImlXnAw0KMG8J67knIs50qL4RACIRACIRACOwrAn/zT3/XfuoDN2w+YdASwEPnfFd71hP7YS2q6Ocf/kJ7y4dubPf827+20089rX3gTb/aXnD6N+yra9tJZSKwFlBbVmDtBPzxEFg7qUc+88whUAJr1T1knjmEcqUhEAIhEAIhEAIhEAIhEAIhsL8I3PbXd7SbPvLBTYn1ym87t91w0ZvbSV0mVl/br25sNMsG3/A7Ww/jIrv+7Gd+vX3dKaftr4vaYW0isCKwdth18rF1IxCBtW4tlvqGQAiEQAiEQAiEQAiEQAiEQGu//4TEwoK8OveMs9prX/497aUvenE754yz2t/f94/trz71t+2DH/1I+/f/fHQT2XOefWq745obJ59MuK5MI7AisNa176beKxKIwFoRWN4eAiEQAiEQAiEQAiEQAiEQAvuEwD33f7q9/Y9ubfd+4bPb1uiy7/2RdskrX9e+9uRTtn3vOr0hAisCa536a+p6DATs3WKjZvug2cslJQRCIARCIARCIARCIARCIARCYL0IfPy+T7WPfeaT7WP/ck+776EH2j9/8fPtrOd/c3vZN72knXfmS9u533J2e8k3nrFeF7VkbSOwFoDylDsbRh/PYsNzGyunhEAIhEAIhEAIhEAIhEAIhEAIhEAIhEAITBOIwFrQMzza3mOyPYVot4unDnkCnycR9U9z2u3z5HghEAIhEAIhEAIhEAIhEAIhEAIhEAIhsO4EIrDWvQVT/xAIgRAIgRAIgRAIgRAIgRAIgRAIgRA44AQisA54A+fyQiAEQiAEQiAEQiAEQiAEQiAEQiAEQmDdCURgrXsLpv4hEAIhEAIhEAIhEAIhEAIhEAIhEAIhcMAJRGAd8AbO5YVACIRACIRACIRACIRACIRACIRACITAuhOIwFr3Fkz9QyAEQiAEQiAEQiAEQiAEQiAEQiAEQuCAE4jAOuANnMsLgRAIgRAIgRAIgRAIgRAIgRAIgRAIgXUnEIG17i2Y+odACIRACIRACIRACIRACIRACIRACITAAScQgXXAGziXFwIhEAIhEAIhEAIhEAIhEAIhEAIhEALrTiACa91bMPUPgRAIgRAIgRAIgRAIgRAIgRAIgRAIgQNOIALrgDdwLi8EQiAEQiAEQiAEQiAEQiAEQiAEQiAE1p1ABNa6t2DqHwIhEAIhEAIhEAIhEAIhEAIhEAIhEAIHnEAE1gFv4FxeCIRACIRACIRACIRACIRACIRACIRACKw7gQisdW/B1D8EQiAEQiAEQiAEQiAEQiAEQiAEQiAEDjiBCKwD3sC5vBAIgRAIgRAIgRAIgRAIgRAIgRAIgRBYdwIRWOvegql/CIRACIRACIRACIRACIRACIRACIRACBxwAhFYB7yBc3khEAIhEAIhEAIhEAIhEAIhEAIhEAIhsO4E/l8E1rpDS/1DIARCIARCIARCIARCIARCIARCIARCIAT2lsDdbzuy0glP2NjY2FjpE3lzCIRACIRACIRACIRACIRACIRACIRACIRACOwhgQisPYSdU4VACIRACIRACIRACIRACIRACIRACIRACKxOIAJrdWb5RAiEQAiEQAiEQAiEQAiEQAiEQAiEQAiEwB4SiMDaQ9g5VQiEQAiEQAiEQAiEQAiEQAiEQAiEQAiEwOoEIrBWZ5ZPhEAIhEAIhEAIhEAIhEAIhEAIhEAIhEAI7CGBCKw9hJ1ThUAIhEAIhEAIhEAIhEAIhEAIhEAIhEAIrE4gAmt1ZvlECIRACIRACIRACIRACIRACIRACIRACITAHhKIwNpD2DlVCIRACIRACIRACIRACIRACIRACIRACITA6gQisFZnlk+EQAiEQAiEQAiEQAiEQAiEQAiEQAiEQAjsIYEIrD2EnVOFQAiEQAiEQAiEQAiEQAiEQAiEQAiEQAisTiACa3Vm+UQIhEAIhEAIhEAIhEAIhEAIhEAIhEAIhMAeEojA2kPYOVUIhEAIhEAIhEAIhEAIhEAIhEAIhEAIhMDqBP4PMkOvCIpMa3QAAAAASUVORK5CYII=;" vertex="1" parent="1">
          <mxGeometry x="-510" y="205" width="440" height="145.2" as="geometry" />
        </mxCell>
      </root>
    </mxGraphModel>
  </diagram>
</mxfile>
